<mxfile host="app.diagrams.net" modified="2023-10-23T02:38:30.747Z" agent="Mozilla/5.0 (Windows NT 10.0; Win64; x64) AppleWebKit/537.36 (KHTML, like Gecko) Chrome/118.0.0.0 Safari/537.36" etag="lr4uTDm-qZMDSIFQqLd3" version="22.0.5" type="google" pages="3">
  <diagram name="AS IS" id="2lrDk02iTjpjKqfuS0Eb">
    <mxGraphModel grid="1" page="1" gridSize="20" guides="1" tooltips="1" connect="1" arrows="1" fold="1" pageScale="1" pageWidth="850" pageHeight="1100" math="0" shadow="0">
      <root>
        <mxCell id="0" />
        <mxCell id="1" parent="0" />
        <mxCell id="jZ0b4sKvb5LqVwHHVG_P-1" value="Corporate data center" style="points=[[0,0],[0.25,0],[0.5,0],[0.75,0],[1,0],[1,0.25],[1,0.5],[1,0.75],[1,1],[0.75,1],[0.5,1],[0.25,1],[0,1],[0,0.75],[0,0.5],[0,0.25]];outlineConnect=0;html=1;whiteSpace=wrap;fontSize=12;fontStyle=1;container=1;pointerEvents=0;collapsible=0;recursiveResize=0;shape=mxgraph.aws4.group;grIcon=mxgraph.aws4.group_corporate_data_center;strokeColor=#56517e;fillColor=#d0cee2;verticalAlign=top;align=left;spacingLeft=30;dashed=0;" vertex="1" parent="1">
          <mxGeometry x="88.7" y="240" width="680" height="760" as="geometry" />
        </mxCell>
        <mxCell id="jZ0b4sKvb5LqVwHHVG_P-15" style="edgeStyle=orthogonalEdgeStyle;rounded=0;orthogonalLoop=1;jettySize=auto;html=1;strokeWidth=2;fontStyle=1" edge="1" parent="jZ0b4sKvb5LqVwHHVG_P-1" source="jZ0b4sKvb5LqVwHHVG_P-11" target="jZ0b4sKvb5LqVwHHVG_P-14">
          <mxGeometry relative="1" as="geometry" />
        </mxCell>
        <mxCell id="jZ0b4sKvb5LqVwHHVG_P-11" value="Roteador de Borda" style="outlineConnect=0;dashed=0;verticalLabelPosition=bottom;verticalAlign=top;align=center;html=1;shape=mxgraph.aws3.router;fillColor=#F58536;gradientColor=none;fontStyle=1" vertex="1" parent="jZ0b4sKvb5LqVwHHVG_P-1">
          <mxGeometry x="302.3" y="60" width="69" height="72" as="geometry" />
        </mxCell>
        <mxCell id="jZ0b4sKvb5LqVwHHVG_P-19" style="edgeStyle=orthogonalEdgeStyle;rounded=0;orthogonalLoop=1;jettySize=auto;html=1;strokeWidth=2;exitX=0.75;exitY=1;exitDx=0;exitDy=0;fontStyle=1" edge="1" parent="jZ0b4sKvb5LqVwHHVG_P-1" source="jZ0b4sKvb5LqVwHHVG_P-14" target="jZ0b4sKvb5LqVwHHVG_P-17">
          <mxGeometry relative="1" as="geometry">
            <Array as="points">
              <mxPoint x="357" y="360" />
              <mxPoint x="563" y="360" />
            </Array>
          </mxGeometry>
        </mxCell>
        <mxCell id="jZ0b4sKvb5LqVwHHVG_P-21" style="edgeStyle=orthogonalEdgeStyle;rounded=0;orthogonalLoop=1;jettySize=auto;html=1;strokeWidth=2;exitX=0.25;exitY=1;exitDx=0;exitDy=0;fontStyle=1" edge="1" parent="jZ0b4sKvb5LqVwHHVG_P-1" source="jZ0b4sKvb5LqVwHHVG_P-14" target="jZ0b4sKvb5LqVwHHVG_P-18">
          <mxGeometry relative="1" as="geometry">
            <Array as="points">
              <mxPoint x="315" y="360" />
              <mxPoint x="123" y="360" />
            </Array>
          </mxGeometry>
        </mxCell>
        <mxCell id="jZ0b4sKvb5LqVwHHVG_P-23" style="edgeStyle=orthogonalEdgeStyle;rounded=0;orthogonalLoop=1;jettySize=auto;html=1;strokeWidth=2;entryX=0.5;entryY=0;entryDx=0;entryDy=0;fontStyle=1" edge="1" parent="jZ0b4sKvb5LqVwHHVG_P-1" target="jZ0b4sKvb5LqVwHHVG_P-16">
          <mxGeometry relative="1" as="geometry">
            <mxPoint x="338.1" y="340" as="sourcePoint" />
            <mxPoint x="341.80000000000007" y="580" as="targetPoint" />
            <Array as="points">
              <mxPoint x="340" y="340" />
            </Array>
          </mxGeometry>
        </mxCell>
        <mxCell id="jZ0b4sKvb5LqVwHHVG_P-14" value="&lt;span&gt;Web Server&lt;/span&gt;" style="image;aspect=fixed;perimeter=ellipsePerimeter;html=1;align=center;shadow=0;dashed=0;spacingTop=3;image=img/lib/active_directory/web_server.svg;labelBackgroundColor=none;labelPosition=center;verticalLabelPosition=top;verticalAlign=bottom;fontStyle=1" vertex="1" parent="jZ0b4sKvb5LqVwHHVG_P-1">
          <mxGeometry x="288.3" y="300" width="96" height="120" as="geometry" />
        </mxCell>
        <mxCell id="jZ0b4sKvb5LqVwHHVG_P-16" value="&lt;span&gt;DataBase Server&lt;/span&gt;" style="image;aspect=fixed;perimeter=ellipsePerimeter;html=1;align=center;shadow=0;dashed=0;spacingTop=3;image=img/lib/active_directory/database_server.svg;labelBackgroundColor=none;fontStyle=1" vertex="1" parent="jZ0b4sKvb5LqVwHHVG_P-1">
          <mxGeometry x="292.85" y="515" width="94.3" height="115" as="geometry" />
        </mxCell>
        <mxCell id="jZ0b4sKvb5LqVwHHVG_P-17" value="&lt;span&gt;NAS&lt;/span&gt;" style="image;aspect=fixed;perimeter=ellipsePerimeter;html=1;align=center;shadow=0;dashed=0;spacingTop=3;image=img/lib/active_directory/generic_server.svg;fontStyle=1;labelBackgroundColor=none;" vertex="1" parent="jZ0b4sKvb5LqVwHHVG_P-1">
          <mxGeometry x="531.3" y="515" width="64.4" height="115" as="geometry" />
        </mxCell>
        <mxCell id="jZ0b4sKvb5LqVwHHVG_P-18" value="&lt;span&gt;Rabbit MQ Server&lt;/span&gt;" style="image;aspect=fixed;perimeter=ellipsePerimeter;html=1;align=center;shadow=0;dashed=0;spacingTop=3;image=img/lib/active_directory/generic_server.svg;labelBackgroundColor=none;fontStyle=1" vertex="1" parent="jZ0b4sKvb5LqVwHHVG_P-1">
          <mxGeometry x="91.30000000000001" y="515" width="64.4" height="115" as="geometry" />
        </mxCell>
        <mxCell id="jZ0b4sKvb5LqVwHHVG_P-12" style="edgeStyle=orthogonalEdgeStyle;rounded=0;orthogonalLoop=1;jettySize=auto;html=1;strokeWidth=2;fontStyle=1" edge="1" parent="1" source="jZ0b4sKvb5LqVwHHVG_P-2" target="jZ0b4sKvb5LqVwHHVG_P-11">
          <mxGeometry relative="1" as="geometry" />
        </mxCell>
        <mxCell id="jZ0b4sKvb5LqVwHHVG_P-2" value="" style="image;aspect=fixed;perimeter=ellipsePerimeter;html=1;align=center;shadow=0;dashed=0;spacingTop=3;image=img/lib/active_directory/internet_cloud.svg;fontStyle=1" vertex="1" parent="1">
          <mxGeometry x="370" y="89.7" width="110" height="69.3" as="geometry" />
        </mxCell>
        <mxCell id="jZ0b4sKvb5LqVwHHVG_P-9" style="edgeStyle=orthogonalEdgeStyle;rounded=0;orthogonalLoop=1;jettySize=auto;html=1;entryX=0.25;entryY=0;entryDx=0;entryDy=0;strokeWidth=2;fontStyle=1" edge="1" parent="1" source="jZ0b4sKvb5LqVwHHVG_P-3" target="jZ0b4sKvb5LqVwHHVG_P-2">
          <mxGeometry relative="1" as="geometry" />
        </mxCell>
        <mxCell id="jZ0b4sKvb5LqVwHHVG_P-3" value="User 1" style="sketch=0;outlineConnect=0;fontColor=#232F3E;gradientColor=none;fillColor=#232F3D;strokeColor=none;dashed=0;verticalLabelPosition=bottom;verticalAlign=top;align=center;html=1;fontSize=12;fontStyle=1;aspect=fixed;pointerEvents=1;shape=mxgraph.aws4.user;" vertex="1" parent="1">
          <mxGeometry x="100" y="20" width="48.7" height="48.7" as="geometry" />
        </mxCell>
        <mxCell id="jZ0b4sKvb5LqVwHHVG_P-10" style="edgeStyle=orthogonalEdgeStyle;rounded=0;orthogonalLoop=1;jettySize=auto;html=1;strokeWidth=2;fontStyle=1" edge="1" parent="1" source="jZ0b4sKvb5LqVwHHVG_P-4" target="jZ0b4sKvb5LqVwHHVG_P-2">
          <mxGeometry relative="1" as="geometry" />
        </mxCell>
        <mxCell id="jZ0b4sKvb5LqVwHHVG_P-4" value="User 2" style="sketch=0;outlineConnect=0;fontColor=#232F3E;gradientColor=none;fillColor=#232F3D;strokeColor=none;dashed=0;verticalLabelPosition=bottom;verticalAlign=top;align=center;html=1;fontSize=12;fontStyle=1;aspect=fixed;pointerEvents=1;shape=mxgraph.aws4.user;" vertex="1" parent="1">
          <mxGeometry x="100" y="100" width="48.7" height="48.7" as="geometry" />
        </mxCell>
        <mxCell id="jZ0b4sKvb5LqVwHHVG_P-8" style="edgeStyle=orthogonalEdgeStyle;rounded=0;orthogonalLoop=1;jettySize=auto;html=1;entryX=0.75;entryY=0;entryDx=0;entryDy=0;strokeWidth=2;fontStyle=1" edge="1" parent="1" source="jZ0b4sKvb5LqVwHHVG_P-5" target="jZ0b4sKvb5LqVwHHVG_P-2">
          <mxGeometry relative="1" as="geometry" />
        </mxCell>
        <mxCell id="jZ0b4sKvb5LqVwHHVG_P-5" value="User 3" style="sketch=0;outlineConnect=0;fontColor=#232F3E;gradientColor=none;fillColor=#232F3D;strokeColor=none;dashed=0;verticalLabelPosition=bottom;verticalAlign=top;align=center;html=1;fontSize=12;fontStyle=1;aspect=fixed;pointerEvents=1;shape=mxgraph.aws4.user;" vertex="1" parent="1">
          <mxGeometry x="720" y="20" width="48.7" height="48.7" as="geometry" />
        </mxCell>
        <mxCell id="jZ0b4sKvb5LqVwHHVG_P-7" style="edgeStyle=orthogonalEdgeStyle;rounded=0;orthogonalLoop=1;jettySize=auto;html=1;entryX=1;entryY=0.5;entryDx=0;entryDy=0;strokeWidth=2;fontStyle=1" edge="1" parent="1" source="jZ0b4sKvb5LqVwHHVG_P-6" target="jZ0b4sKvb5LqVwHHVG_P-2">
          <mxGeometry relative="1" as="geometry" />
        </mxCell>
        <mxCell id="jZ0b4sKvb5LqVwHHVG_P-6" value="User N" style="sketch=0;outlineConnect=0;fontColor=#232F3E;gradientColor=none;fillColor=#232F3D;strokeColor=none;dashed=0;verticalLabelPosition=bottom;verticalAlign=top;align=center;html=1;fontSize=12;fontStyle=1;aspect=fixed;pointerEvents=1;shape=mxgraph.aws4.user;" vertex="1" parent="1">
          <mxGeometry x="720" y="100" width="48.7" height="48.7" as="geometry" />
        </mxCell>
      </root>
    </mxGraphModel>
  </diagram>
  <diagram name="Visão Detalhada da Solução" id="WhjI1BWvoWVcO_SIT5ln">
    <mxGraphModel grid="1" page="1" gridSize="20" guides="1" tooltips="1" connect="1" arrows="1" fold="1" pageScale="1" pageWidth="850" pageHeight="1100" math="0" shadow="0">
      <root>
        <mxCell id="myqctyIuVr8iJMyiNVSi-0" />
        <mxCell id="myqctyIuVr8iJMyiNVSi-1" parent="myqctyIuVr8iJMyiNVSi-0" />
        <mxCell id="hGdy4Wsc0eGWjVHkm4My-114" value="&lt;span style=&quot;font-size: 29px;&quot;&gt;Autenticação&lt;/span&gt;" style="rounded=1;whiteSpace=wrap;html=1;fillColor=#fad9d5;strokeColor=#ae4132;labelPosition=center;verticalLabelPosition=top;align=center;verticalAlign=bottom;fontStyle=1" vertex="1" parent="myqctyIuVr8iJMyiNVSi-1">
          <mxGeometry x="-1587.76" y="2500" width="360" height="230" as="geometry" />
        </mxCell>
        <mxCell id="myqctyIuVr8iJMyiNVSi-3" value="AWS Cloud" style="points=[[0,0],[0.25,0],[0.5,0],[0.75,0],[1,0],[1,0.25],[1,0.5],[1,0.75],[1,1],[0.75,1],[0.5,1],[0.25,1],[0,1],[0,0.75],[0,0.5],[0,0.25]];outlineConnect=0;html=1;whiteSpace=wrap;fontSize=12;fontStyle=1;container=1;pointerEvents=0;collapsible=0;recursiveResize=0;shape=mxgraph.aws4.group;grIcon=mxgraph.aws4.group_aws_cloud_alt;strokeColor=#0e8088;fillColor=#b0e3e6;verticalAlign=top;align=left;spacingLeft=30;dashed=0;" vertex="1" parent="myqctyIuVr8iJMyiNVSi-1">
          <mxGeometry x="-1020" y="240" width="2540" height="2960" as="geometry" />
        </mxCell>
        <mxCell id="hGdy4Wsc0eGWjVHkm4My-44" value="Region" style="sketch=0;outlineConnect=0;html=1;whiteSpace=wrap;fontSize=12;fontStyle=1;shape=mxgraph.aws4.group;grIcon=mxgraph.aws4.group_region;strokeColor=#36393d;fillColor=#eeeeee;verticalAlign=top;align=left;spacingLeft=30;dashed=1;" vertex="1" parent="myqctyIuVr8iJMyiNVSi-3">
          <mxGeometry x="40" y="40" width="2460" height="2860" as="geometry" />
        </mxCell>
        <mxCell id="hGdy4Wsc0eGWjVHkm4My-105" value="VPC" style="points=[[0,0],[0.25,0],[0.5,0],[0.75,0],[1,0],[1,0.25],[1,0.5],[1,0.75],[1,1],[0.75,1],[0.5,1],[0.25,1],[0,1],[0,0.75],[0,0.5],[0,0.25]];outlineConnect=0;html=1;whiteSpace=wrap;fontSize=12;fontStyle=1;container=1;pointerEvents=0;collapsible=0;recursiveResize=0;shape=mxgraph.aws4.group;grIcon=mxgraph.aws4.group_vpc;strokeColor=#36393d;fillColor=#ffcc99;verticalAlign=top;align=left;spacingLeft=30;dashed=0;" vertex="1" parent="myqctyIuVr8iJMyiNVSi-3">
          <mxGeometry x="500" y="60" width="1000" height="2800" as="geometry" />
        </mxCell>
        <mxCell id="hGdy4Wsc0eGWjVHkm4My-108" value="Availability zone 1 à 3" style="sketch=0;outlineConnect=0;html=1;whiteSpace=wrap;fontSize=12;fontStyle=1;shape=mxgraph.aws4.group;grIcon=mxgraph.aws4.group_availability_zone;strokeColor=#6c8ebf;fillColor=#dae8fc;verticalAlign=top;align=left;spacingLeft=30;dashed=1;" vertex="1" parent="myqctyIuVr8iJMyiNVSi-3">
          <mxGeometry x="520" y="100" width="960" height="2740" as="geometry" />
        </mxCell>
        <mxCell id="hGdy4Wsc0eGWjVHkm4My-98" style="edgeStyle=orthogonalEdgeStyle;rounded=0;orthogonalLoop=1;jettySize=auto;html=1;entryX=0;entryY=0.5;entryDx=0;entryDy=0;strokeWidth=2;strokeColor=#FF0000;fontStyle=1" edge="1" parent="myqctyIuVr8iJMyiNVSi-3" source="hGdy4Wsc0eGWjVHkm4My-33" target="hGdy4Wsc0eGWjVHkm4My-88">
          <mxGeometry relative="1" as="geometry">
            <Array as="points">
              <mxPoint x="2067.5" y="280" />
              <mxPoint x="2067.5" y="1420" />
            </Array>
          </mxGeometry>
        </mxCell>
        <mxCell id="hGdy4Wsc0eGWjVHkm4My-33" value="MicroServiço de Notificações" style="rounded=1;whiteSpace=wrap;html=1;fillColor=#fff2cc;strokeColor=#d6b656;labelPosition=center;verticalLabelPosition=top;align=center;verticalAlign=bottom;fontStyle=1" vertex="1" parent="myqctyIuVr8iJMyiNVSi-3">
          <mxGeometry x="827.5" y="140" width="1020" height="260" as="geometry" />
        </mxCell>
        <mxCell id="hGdy4Wsc0eGWjVHkm4My-97" style="edgeStyle=orthogonalEdgeStyle;rounded=0;orthogonalLoop=1;jettySize=auto;html=1;exitX=1;exitY=0.5;exitDx=0;exitDy=0;entryX=0;entryY=0.5;entryDx=0;entryDy=0;strokeColor=#FF0000;strokeWidth=2;fontStyle=1" edge="1" parent="myqctyIuVr8iJMyiNVSi-3" source="hGdy4Wsc0eGWjVHkm4My-23" target="hGdy4Wsc0eGWjVHkm4My-88">
          <mxGeometry relative="1" as="geometry">
            <Array as="points">
              <mxPoint x="2067.5" y="590" />
              <mxPoint x="2067.5" y="1420" />
            </Array>
          </mxGeometry>
        </mxCell>
        <mxCell id="hGdy4Wsc0eGWjVHkm4My-23" value="MicroServiço de Produtos" style="rounded=1;whiteSpace=wrap;html=1;fillColor=#fff2cc;strokeColor=#d6b656;labelPosition=center;verticalLabelPosition=top;align=center;verticalAlign=bottom;fontStyle=1" vertex="1" parent="myqctyIuVr8iJMyiNVSi-3">
          <mxGeometry x="827.5" y="440" width="1020" height="300" as="geometry" />
        </mxCell>
        <mxCell id="hGdy4Wsc0eGWjVHkm4My-96" style="edgeStyle=orthogonalEdgeStyle;rounded=0;orthogonalLoop=1;jettySize=auto;html=1;exitX=1;exitY=0.5;exitDx=0;exitDy=0;entryX=0;entryY=0.5;entryDx=0;entryDy=0;strokeColor=#FF0000;strokeWidth=2;fontStyle=1" edge="1" parent="myqctyIuVr8iJMyiNVSi-3" source="hGdy4Wsc0eGWjVHkm4My-19" target="hGdy4Wsc0eGWjVHkm4My-88">
          <mxGeometry relative="1" as="geometry">
            <Array as="points">
              <mxPoint x="2067.5" y="952" />
              <mxPoint x="2067.5" y="1420" />
            </Array>
          </mxGeometry>
        </mxCell>
        <mxCell id="hGdy4Wsc0eGWjVHkm4My-19" value="MicroServiço de Carrinho de Compras do Usuário" style="rounded=1;whiteSpace=wrap;html=1;fillColor=#fff2cc;strokeColor=#d6b656;labelPosition=center;verticalLabelPosition=top;align=center;verticalAlign=bottom;fontStyle=1" vertex="1" parent="myqctyIuVr8iJMyiNVSi-3">
          <mxGeometry x="827.5" y="802" width="1020" height="300" as="geometry" />
        </mxCell>
        <mxCell id="hGdy4Wsc0eGWjVHkm4My-99" style="edgeStyle=orthogonalEdgeStyle;rounded=0;orthogonalLoop=1;jettySize=auto;html=1;entryX=0;entryY=0.5;entryDx=0;entryDy=0;strokeWidth=2;strokeColor=#FF0000;fontStyle=1" edge="1" parent="myqctyIuVr8iJMyiNVSi-3" source="hGdy4Wsc0eGWjVHkm4My-11" target="hGdy4Wsc0eGWjVHkm4My-88">
          <mxGeometry relative="1" as="geometry">
            <Array as="points">
              <mxPoint x="2067.5" y="1310" />
              <mxPoint x="2067.5" y="1420" />
            </Array>
          </mxGeometry>
        </mxCell>
        <mxCell id="hGdy4Wsc0eGWjVHkm4My-11" value="MicroServiço de Transação" style="rounded=1;whiteSpace=wrap;html=1;fillColor=#fff2cc;strokeColor=#d6b656;labelPosition=center;verticalLabelPosition=top;align=center;verticalAlign=bottom;fontStyle=1" vertex="1" parent="myqctyIuVr8iJMyiNVSi-3">
          <mxGeometry x="827.5" y="1160" width="1020" height="300" as="geometry" />
        </mxCell>
        <mxCell id="hGdy4Wsc0eGWjVHkm4My-94" style="edgeStyle=orthogonalEdgeStyle;rounded=0;orthogonalLoop=1;jettySize=auto;html=1;entryX=0;entryY=0.5;entryDx=0;entryDy=0;strokeColor=#FF0000;strokeWidth=2;fontStyle=1" edge="1" parent="myqctyIuVr8iJMyiNVSi-3" source="hGdy4Wsc0eGWjVHkm4My-8" target="hGdy4Wsc0eGWjVHkm4My-88">
          <mxGeometry relative="1" as="geometry">
            <mxPoint x="2307.5" y="800" as="targetPoint" />
            <Array as="points">
              <mxPoint x="2067.5" y="1670" />
              <mxPoint x="2067.5" y="1420" />
            </Array>
          </mxGeometry>
        </mxCell>
        <mxCell id="hGdy4Wsc0eGWjVHkm4My-8" value="MicroServiço de Pedidos" style="rounded=1;whiteSpace=wrap;html=1;fillColor=#fff2cc;strokeColor=#d6b656;labelPosition=center;verticalLabelPosition=top;align=center;verticalAlign=bottom;fontStyle=1" vertex="1" parent="myqctyIuVr8iJMyiNVSi-3">
          <mxGeometry x="827.5" y="1520" width="1020" height="300" as="geometry" />
        </mxCell>
        <mxCell id="hGdy4Wsc0eGWjVHkm4My-93" style="edgeStyle=orthogonalEdgeStyle;rounded=0;orthogonalLoop=1;jettySize=auto;html=1;entryX=0;entryY=0.5;entryDx=0;entryDy=0;strokeColor=#FF0000;strokeWidth=2;fontStyle=1" edge="1" parent="myqctyIuVr8iJMyiNVSi-3" source="hGdy4Wsc0eGWjVHkm4My-2" target="hGdy4Wsc0eGWjVHkm4My-88">
          <mxGeometry relative="1" as="geometry">
            <Array as="points">
              <mxPoint x="2067.5" y="2070" />
              <mxPoint x="2067.5" y="1420" />
            </Array>
          </mxGeometry>
        </mxCell>
        <mxCell id="hGdy4Wsc0eGWjVHkm4My-2" value="MicroServiço de Rastreamento Pedidos" style="rounded=1;whiteSpace=wrap;html=1;fillColor=#fff2cc;strokeColor=#d6b656;labelPosition=center;verticalLabelPosition=top;align=center;verticalAlign=bottom;fontStyle=1" vertex="1" parent="myqctyIuVr8iJMyiNVSi-3">
          <mxGeometry x="827.5" y="1920" width="1020" height="300" as="geometry" />
        </mxCell>
        <mxCell id="I2cXr4Xbu_d9eAzQmwmS-1" style="edgeStyle=orthogonalEdgeStyle;rounded=0;orthogonalLoop=1;jettySize=auto;html=1;fontStyle=1;strokeWidth=2;entryX=1;entryY=0.5;entryDx=0;entryDy=0;entryPerimeter=0;" edge="1" parent="myqctyIuVr8iJMyiNVSi-3" source="I2cXr4Xbu_d9eAzQmwmS-60" target="I2cXr4Xbu_d9eAzQmwmS-0">
          <mxGeometry relative="1" as="geometry">
            <mxPoint x="265.5" y="840.5" as="sourcePoint" />
            <mxPoint x="343.5" y="640" as="targetPoint" />
            <Array as="points">
              <mxPoint x="268" y="318" />
            </Array>
          </mxGeometry>
        </mxCell>
        <mxCell id="hGdy4Wsc0eGWjVHkm4My-56" value="&lt;span&gt;Verifica Conexões&lt;/span&gt;" style="edgeLabel;html=1;align=center;verticalAlign=middle;resizable=0;points=[];fontStyle=1" connectable="0" vertex="1" parent="I2cXr4Xbu_d9eAzQmwmS-1">
          <mxGeometry x="-0.2865" y="3" relative="1" as="geometry">
            <mxPoint x="1" y="189" as="offset" />
          </mxGeometry>
        </mxCell>
        <mxCell id="I2cXr4Xbu_d9eAzQmwmS-0" value="&lt;span&gt;WAF&lt;/span&gt;" style="sketch=0;points=[[0,0,0],[0.25,0,0],[0.5,0,0],[0.75,0,0],[1,0,0],[0,1,0],[0.25,1,0],[0.5,1,0],[0.75,1,0],[1,1,0],[0,0.25,0],[0,0.5,0],[0,0.75,0],[1,0.25,0],[1,0.5,0],[1,0.75,0]];outlineConnect=0;fontColor=#232F3E;fillColor=#DD344C;strokeColor=#ffffff;dashed=0;verticalLabelPosition=top;verticalAlign=bottom;align=center;html=1;fontSize=12;fontStyle=1;aspect=fixed;shape=mxgraph.aws4.resourceIcon;resIcon=mxgraph.aws4.waf;labelPosition=center;" vertex="1" parent="myqctyIuVr8iJMyiNVSi-3">
          <mxGeometry x="127.5" y="278.5" width="78" height="78" as="geometry" />
        </mxCell>
        <mxCell id="I2cXr4Xbu_d9eAzQmwmS-79" style="edgeStyle=orthogonalEdgeStyle;rounded=0;orthogonalLoop=1;jettySize=auto;html=1;fontStyle=1;strokeWidth=2;" edge="1" parent="myqctyIuVr8iJMyiNVSi-3" source="I2cXr4Xbu_d9eAzQmwmS-54" target="I2cXr4Xbu_d9eAzQmwmS-48">
          <mxGeometry relative="1" as="geometry" />
        </mxCell>
        <mxCell id="I2cXr4Xbu_d9eAzQmwmS-54" value="obtem-produtos" style="outlineConnect=0;dashed=0;verticalLabelPosition=bottom;verticalAlign=top;align=center;html=1;shape=mxgraph.aws3.lambda_function;fillColor=#F58534;gradientColor=none;fontStyle=1" vertex="1" parent="myqctyIuVr8iJMyiNVSi-3">
          <mxGeometry x="1263" y="484.5" width="69" height="72" as="geometry" />
        </mxCell>
        <mxCell id="I2cXr4Xbu_d9eAzQmwmS-225" style="edgeStyle=orthogonalEdgeStyle;rounded=0;orthogonalLoop=1;jettySize=auto;html=1;fontStyle=1;strokeWidth=2;exitX=1;exitY=0.21;exitDx=0;exitDy=0;exitPerimeter=0;" edge="1" parent="myqctyIuVr8iJMyiNVSi-3" source="I2cXr4Xbu_d9eAzQmwmS-60" target="I2cXr4Xbu_d9eAzQmwmS-223">
          <mxGeometry relative="1" as="geometry">
            <Array as="points">
              <mxPoint x="468" y="1028" />
              <mxPoint x="468" y="676" />
            </Array>
          </mxGeometry>
        </mxCell>
        <mxCell id="hGdy4Wsc0eGWjVHkm4My-55" value="&lt;span&gt;Pega Conteudo&lt;/span&gt;" style="edgeLabel;html=1;align=center;verticalAlign=middle;resizable=0;points=[];fontStyle=1" connectable="0" vertex="1" parent="I2cXr4Xbu_d9eAzQmwmS-225">
          <mxGeometry x="-0.0315" relative="1" as="geometry">
            <mxPoint x="-5" as="offset" />
          </mxGeometry>
        </mxCell>
        <mxCell id="I2cXr4Xbu_d9eAzQmwmS-60" value="AWS Cloud Front" style="outlineConnect=0;dashed=0;verticalLabelPosition=bottom;verticalAlign=top;align=center;html=1;shape=mxgraph.aws3.cloudfront;fillColor=#F58536;gradientColor=none;fontStyle=1" vertex="1" parent="myqctyIuVr8iJMyiNVSi-3">
          <mxGeometry x="227.5" y="1009" width="76.5" height="93" as="geometry" />
        </mxCell>
        <mxCell id="hGdy4Wsc0eGWjVHkm4My-28" style="edgeStyle=orthogonalEdgeStyle;rounded=0;orthogonalLoop=1;jettySize=auto;html=1;strokeWidth=2;fontStyle=1" edge="1" parent="myqctyIuVr8iJMyiNVSi-3" source="I2cXr4Xbu_d9eAzQmwmS-48" target="hGdy4Wsc0eGWjVHkm4My-27">
          <mxGeometry relative="1" as="geometry" />
        </mxCell>
        <mxCell id="I2cXr4Xbu_d9eAzQmwmS-48" value="tabela_produtos" style="outlineConnect=0;dashed=0;verticalLabelPosition=top;verticalAlign=bottom;align=center;html=1;shape=mxgraph.aws3.dynamo_db;fillColor=#2E73B8;gradientColor=none;labelPosition=center;fontStyle=1" vertex="1" parent="myqctyIuVr8iJMyiNVSi-3">
          <mxGeometry x="1547.5" y="480" width="72" height="81" as="geometry" />
        </mxCell>
        <mxCell id="I2cXr4Xbu_d9eAzQmwmS-90" style="edgeStyle=orthogonalEdgeStyle;rounded=0;orthogonalLoop=1;jettySize=auto;html=1;fontStyle=1;strokeWidth=2;" edge="1" parent="myqctyIuVr8iJMyiNVSi-3" source="I2cXr4Xbu_d9eAzQmwmS-81" target="I2cXr4Xbu_d9eAzQmwmS-82">
          <mxGeometry relative="1" as="geometry" />
        </mxCell>
        <mxCell id="I2cXr4Xbu_d9eAzQmwmS-81" value="gerencia-carrinho-de-compras" style="outlineConnect=0;dashed=0;verticalLabelPosition=bottom;verticalAlign=top;align=center;html=1;shape=mxgraph.aws3.lambda_function;fillColor=#F58534;gradientColor=none;fontStyle=1" vertex="1" parent="myqctyIuVr8iJMyiNVSi-3">
          <mxGeometry x="1105.8100000000002" y="859.44" width="69" height="72" as="geometry" />
        </mxCell>
        <mxCell id="I2cXr4Xbu_d9eAzQmwmS-281" style="edgeStyle=orthogonalEdgeStyle;rounded=0;orthogonalLoop=1;jettySize=auto;html=1;fontStyle=1;strokeWidth=2;" edge="1" parent="myqctyIuVr8iJMyiNVSi-3" source="I2cXr4Xbu_d9eAzQmwmS-82" target="I2cXr4Xbu_d9eAzQmwmS-280">
          <mxGeometry relative="1" as="geometry">
            <Array as="points">
              <mxPoint x="1727.5" y="894.94" />
              <mxPoint x="1727.5" y="894.94" />
            </Array>
          </mxGeometry>
        </mxCell>
        <mxCell id="I2cXr4Xbu_d9eAzQmwmS-82" value="tabela_carrinho_compras" style="outlineConnect=0;dashed=0;verticalLabelPosition=top;verticalAlign=bottom;align=center;html=1;shape=mxgraph.aws3.dynamo_db;fillColor=#2E73B8;gradientColor=none;labelPosition=center;fontStyle=1" vertex="1" parent="myqctyIuVr8iJMyiNVSi-3">
          <mxGeometry x="1547.5" y="854.94" width="72" height="81" as="geometry" />
        </mxCell>
        <mxCell id="I2cXr4Xbu_d9eAzQmwmS-91" style="edgeStyle=orthogonalEdgeStyle;rounded=0;orthogonalLoop=1;jettySize=auto;html=1;fontStyle=1;strokeWidth=2;exitX=1;exitY=0.5;exitDx=0;exitDy=0;exitPerimeter=0;" edge="1" parent="myqctyIuVr8iJMyiNVSi-3" source="I2cXr4Xbu_d9eAzQmwmS-86" target="I2cXr4Xbu_d9eAzQmwmS-87">
          <mxGeometry relative="1" as="geometry">
            <Array as="points">
              <mxPoint x="1327.5" y="1603" />
              <mxPoint x="1327.5" y="1603" />
            </Array>
          </mxGeometry>
        </mxCell>
        <mxCell id="I2cXr4Xbu_d9eAzQmwmS-86" value="gerencia-pedidos" style="outlineConnect=0;dashed=0;verticalLabelPosition=bottom;verticalAlign=top;align=center;html=1;shape=mxgraph.aws3.lambda_function;fillColor=#F58534;gradientColor=none;fontStyle=1" vertex="1" parent="myqctyIuVr8iJMyiNVSi-3">
          <mxGeometry x="1207.5000000000002" y="1566.75" width="69" height="72" as="geometry" />
        </mxCell>
        <mxCell id="I2cXr4Xbu_d9eAzQmwmS-211" style="edgeStyle=orthogonalEdgeStyle;rounded=0;orthogonalLoop=1;jettySize=auto;html=1;fontStyle=1;strokeWidth=2;" edge="1" parent="myqctyIuVr8iJMyiNVSi-3" source="I2cXr4Xbu_d9eAzQmwmS-87" target="I2cXr4Xbu_d9eAzQmwmS-210">
          <mxGeometry relative="1" as="geometry">
            <Array as="points">
              <mxPoint x="1747.5" y="1603" />
              <mxPoint x="1747.5" y="1603" />
            </Array>
          </mxGeometry>
        </mxCell>
        <mxCell id="I2cXr4Xbu_d9eAzQmwmS-87" value="tabela_pedidos" style="outlineConnect=0;dashed=0;verticalLabelPosition=top;verticalAlign=bottom;align=center;html=1;shape=mxgraph.aws3.dynamo_db;fillColor=#2E73B8;gradientColor=none;labelPosition=center;fontStyle=1" vertex="1" parent="myqctyIuVr8iJMyiNVSi-3">
          <mxGeometry x="1587.5000000000005" y="1562.25" width="72" height="81" as="geometry" />
        </mxCell>
        <mxCell id="I2cXr4Xbu_d9eAzQmwmS-184" style="edgeStyle=orthogonalEdgeStyle;rounded=0;orthogonalLoop=1;jettySize=auto;html=1;fontStyle=1;strokeWidth=2;" edge="1" parent="myqctyIuVr8iJMyiNVSi-3" source="I2cXr4Xbu_d9eAzQmwmS-96" target="I2cXr4Xbu_d9eAzQmwmS-88">
          <mxGeometry relative="1" as="geometry" />
        </mxCell>
        <mxCell id="I2cXr4Xbu_d9eAzQmwmS-96" value="tabela_transacaoes" style="outlineConnect=0;dashed=0;verticalLabelPosition=top;verticalAlign=bottom;align=center;html=1;shape=mxgraph.aws3.dynamo_db;fillColor=#2E73B8;gradientColor=none;labelPosition=center;fontStyle=1" vertex="1" parent="myqctyIuVr8iJMyiNVSi-3">
          <mxGeometry x="1547.5000000000002" y="1207.75" width="72" height="81" as="geometry" />
        </mxCell>
        <mxCell id="I2cXr4Xbu_d9eAzQmwmS-99" value="gerencia_rastreamento_pedidos" style="outlineConnect=0;dashed=0;verticalLabelPosition=bottom;verticalAlign=top;align=center;html=1;shape=mxgraph.aws3.lambda_function;fillColor=#F58534;gradientColor=none;fontStyle=1" vertex="1" parent="myqctyIuVr8iJMyiNVSi-3">
          <mxGeometry x="1120.1100000000001" y="1968" width="69" height="72" as="geometry" />
        </mxCell>
        <mxCell id="I2cXr4Xbu_d9eAzQmwmS-276" style="edgeStyle=orthogonalEdgeStyle;rounded=0;orthogonalLoop=1;jettySize=auto;html=1;fontStyle=1;strokeWidth=2;" edge="1" parent="myqctyIuVr8iJMyiNVSi-3" source="I2cXr4Xbu_d9eAzQmwmS-100" target="I2cXr4Xbu_d9eAzQmwmS-271">
          <mxGeometry relative="1" as="geometry" />
        </mxCell>
        <mxCell id="I2cXr4Xbu_d9eAzQmwmS-100" value="tabela_rastreamento_pedidos" style="outlineConnect=0;dashed=0;verticalLabelPosition=top;verticalAlign=bottom;align=center;html=1;shape=mxgraph.aws3.dynamo_db;fillColor=#2E73B8;gradientColor=none;fontStyle=1;labelPosition=center;" vertex="1" parent="myqctyIuVr8iJMyiNVSi-3">
          <mxGeometry x="1587.5" y="1963.5" width="72" height="81" as="geometry" />
        </mxCell>
        <mxCell id="I2cXr4Xbu_d9eAzQmwmS-98" style="edgeStyle=orthogonalEdgeStyle;rounded=0;orthogonalLoop=1;jettySize=auto;html=1;fontStyle=1;strokeWidth=2;exitX=1;exitY=0.5;exitDx=0;exitDy=0;exitPerimeter=0;entryX=0;entryY=0.22;entryDx=0;entryDy=0;entryPerimeter=0;" edge="1" parent="myqctyIuVr8iJMyiNVSi-3" source="I2cXr4Xbu_d9eAzQmwmS-99" target="I2cXr4Xbu_d9eAzQmwmS-100">
          <mxGeometry relative="1" as="geometry">
            <Array as="points">
              <mxPoint x="1267.5" y="2004" />
              <mxPoint x="1267.5" y="1981" />
            </Array>
          </mxGeometry>
        </mxCell>
        <mxCell id="I2cXr4Xbu_d9eAzQmwmS-206" style="edgeStyle=orthogonalEdgeStyle;rounded=0;orthogonalLoop=1;jettySize=auto;html=1;entryX=0.5;entryY=0;entryDx=0;entryDy=0;entryPerimeter=0;fontStyle=1;strokeWidth=2;" edge="1" parent="myqctyIuVr8iJMyiNVSi-3" source="I2cXr4Xbu_d9eAzQmwmS-88" target="I2cXr4Xbu_d9eAzQmwmS-278">
          <mxGeometry relative="1" as="geometry">
            <Array as="points">
              <mxPoint x="1744.5" y="1300" />
              <mxPoint x="1397.5" y="1300" />
            </Array>
          </mxGeometry>
        </mxCell>
        <mxCell id="I2cXr4Xbu_d9eAzQmwmS-88" value="DynamoDB Stream" style="sketch=0;outlineConnect=0;fontColor=#232F3E;gradientColor=none;fillColor=#C925D1;strokeColor=none;dashed=0;verticalLabelPosition=bottom;verticalAlign=top;align=center;html=1;fontSize=12;fontStyle=1;aspect=fixed;pointerEvents=1;shape=mxgraph.aws4.dynamodb_stream;" vertex="1" parent="myqctyIuVr8iJMyiNVSi-3">
          <mxGeometry x="1722" y="1225.5" width="45.5" height="45.5" as="geometry" />
        </mxCell>
        <mxCell id="I2cXr4Xbu_d9eAzQmwmS-195" style="edgeStyle=orthogonalEdgeStyle;rounded=0;orthogonalLoop=1;jettySize=auto;html=1;fontStyle=1;strokeWidth=2;" edge="1" parent="myqctyIuVr8iJMyiNVSi-3" source="I2cXr4Xbu_d9eAzQmwmS-183" target="I2cXr4Xbu_d9eAzQmwmS-96">
          <mxGeometry relative="1" as="geometry">
            <Array as="points">
              <mxPoint x="1327.5" y="1376" />
              <mxPoint x="1327.5" y="1260" />
            </Array>
          </mxGeometry>
        </mxCell>
        <mxCell id="I2cXr4Xbu_d9eAzQmwmS-196" value="1 - Persiste Transação" style="edgeLabel;html=1;align=center;verticalAlign=middle;resizable=0;points=[];fontStyle=1" connectable="0" vertex="1" parent="I2cXr4Xbu_d9eAzQmwmS-195">
          <mxGeometry x="0.3126" relative="1" as="geometry">
            <mxPoint x="-179" y="109" as="offset" />
          </mxGeometry>
        </mxCell>
        <mxCell id="I2cXr4Xbu_d9eAzQmwmS-183" value="gerencia-transacao" style="outlineConnect=0;dashed=0;verticalLabelPosition=bottom;verticalAlign=top;align=center;html=1;shape=mxgraph.aws3.lambda_function;fillColor=#F58534;gradientColor=none;fontStyle=1" vertex="1" parent="myqctyIuVr8iJMyiNVSi-3">
          <mxGeometry x="1051.11" y="1340" width="69" height="72" as="geometry" />
        </mxCell>
        <mxCell id="I2cXr4Xbu_d9eAzQmwmS-198" value="recebe-transacao-externa" style="outlineConnect=0;dashed=0;verticalLabelPosition=bottom;verticalAlign=top;align=center;html=1;shape=mxgraph.aws3.lambda_function;fillColor=#F58534;gradientColor=none;fontStyle=1" vertex="1" parent="myqctyIuVr8iJMyiNVSi-3">
          <mxGeometry x="1174.81" y="1203.06" width="69" height="72" as="geometry" />
        </mxCell>
        <mxCell id="I2cXr4Xbu_d9eAzQmwmS-207" style="edgeStyle=orthogonalEdgeStyle;rounded=0;orthogonalLoop=1;jettySize=auto;html=1;exitX=0.5;exitY=1;exitDx=0;exitDy=0;exitPerimeter=0;entryX=0;entryY=0.21;entryDx=0;entryDy=0;entryPerimeter=0;fontStyle=1;strokeWidth=2;strokeColor=#00CC66;" edge="1" parent="myqctyIuVr8iJMyiNVSi-3" source="I2cXr4Xbu_d9eAzQmwmS-278" target="hGdy4Wsc0eGWjVHkm4My-9">
          <mxGeometry relative="1" as="geometry">
            <Array as="points">
              <mxPoint x="1398" y="1500" />
              <mxPoint x="788" y="1500" />
              <mxPoint x="788" y="1653" />
            </Array>
          </mxGeometry>
        </mxCell>
        <mxCell id="I2cXr4Xbu_d9eAzQmwmS-285" value="Cria Pedido" style="edgeLabel;html=1;align=center;verticalAlign=middle;resizable=0;points=[];fontStyle=1" connectable="0" vertex="1" parent="I2cXr4Xbu_d9eAzQmwmS-207">
          <mxGeometry x="-0.2831" relative="1" as="geometry">
            <mxPoint x="248" y="-20" as="offset" />
          </mxGeometry>
        </mxCell>
        <mxCell id="I2cXr4Xbu_d9eAzQmwmS-208" style="edgeStyle=orthogonalEdgeStyle;rounded=0;orthogonalLoop=1;jettySize=auto;html=1;strokeColor=#FF8000;fontStyle=1;strokeWidth=2;" edge="1" parent="myqctyIuVr8iJMyiNVSi-3" source="I2cXr4Xbu_d9eAzQmwmS-205" target="I2cXr4Xbu_d9eAzQmwmS-101">
          <mxGeometry relative="1" as="geometry" />
        </mxCell>
        <mxCell id="I2cXr4Xbu_d9eAzQmwmS-101" value="Simple Email Service" style="sketch=0;points=[[0,0,0],[0.25,0,0],[0.5,0,0],[0.75,0,0],[1,0,0],[0,1,0],[0.25,1,0],[0.5,1,0],[0.75,1,0],[1,1,0],[0,0.25,0],[0,0.5,0],[0,0.75,0],[1,0.25,0],[1,0.5,0],[1,0.75,0]];outlineConnect=0;fontColor=#232F3E;gradientColor=#4D72F3;gradientDirection=north;fillColor=#3334B9;strokeColor=#ffffff;dashed=0;verticalLabelPosition=bottom;verticalAlign=top;align=center;html=1;fontSize=12;fontStyle=1;aspect=fixed;shape=mxgraph.aws4.resourceIcon;resIcon=mxgraph.aws4.simple_email_service;" vertex="1" parent="myqctyIuVr8iJMyiNVSi-3">
          <mxGeometry x="328.5" y="271" width="78" height="78" as="geometry" />
        </mxCell>
        <mxCell id="I2cXr4Xbu_d9eAzQmwmS-257" style="edgeStyle=orthogonalEdgeStyle;rounded=0;orthogonalLoop=1;jettySize=auto;html=1;fontStyle=1;strokeWidth=2;" edge="1" parent="myqctyIuVr8iJMyiNVSi-3" source="I2cXr4Xbu_d9eAzQmwmS-210" target="I2cXr4Xbu_d9eAzQmwmS-256">
          <mxGeometry relative="1" as="geometry">
            <Array as="points">
              <mxPoint x="1744.5" y="1680" />
              <mxPoint x="1242.5" y="1680" />
            </Array>
          </mxGeometry>
        </mxCell>
        <mxCell id="I2cXr4Xbu_d9eAzQmwmS-210" value="DynamoDB Stream" style="sketch=0;outlineConnect=0;fontColor=#232F3E;gradientColor=none;fillColor=#C925D1;strokeColor=none;dashed=0;verticalLabelPosition=bottom;verticalAlign=top;align=center;html=1;fontSize=12;fontStyle=1;aspect=fixed;pointerEvents=1;shape=mxgraph.aws4.dynamodb_stream;" vertex="1" parent="myqctyIuVr8iJMyiNVSi-3">
          <mxGeometry x="1722" y="1580" width="45.5" height="45.5" as="geometry" />
        </mxCell>
        <mxCell id="I2cXr4Xbu_d9eAzQmwmS-223" value="&lt;span&gt;&lt;font color=&quot;#000000&quot;&gt;Conteudo Estático&lt;/font&gt;&lt;/span&gt;" style="sketch=0;outlineConnect=0;fontColor=#232F3E;gradientColor=none;fillColor=#7AA116;strokeColor=none;dashed=0;verticalLabelPosition=top;verticalAlign=bottom;align=center;html=1;fontSize=12;fontStyle=1;aspect=fixed;pointerEvents=1;shape=mxgraph.aws4.bucket;labelPosition=center;" vertex="1" parent="myqctyIuVr8iJMyiNVSi-3">
          <mxGeometry x="326.5" y="634.8" width="80" height="83.2" as="geometry" />
        </mxCell>
        <mxCell id="I2cXr4Xbu_d9eAzQmwmS-228" style="edgeStyle=orthogonalEdgeStyle;rounded=0;orthogonalLoop=1;jettySize=auto;html=1;fontStyle=1;strokeWidth=2;" edge="1" parent="myqctyIuVr8iJMyiNVSi-3" source="I2cXr4Xbu_d9eAzQmwmS-227" target="I2cXr4Xbu_d9eAzQmwmS-48">
          <mxGeometry relative="1" as="geometry" />
        </mxCell>
        <mxCell id="I2cXr4Xbu_d9eAzQmwmS-231" value="CRUD" style="edgeLabel;html=1;align=center;verticalAlign=middle;resizable=0;points=[];fontStyle=1" connectable="0" vertex="1" parent="I2cXr4Xbu_d9eAzQmwmS-228">
          <mxGeometry x="-0.3023" y="-2" relative="1" as="geometry">
            <mxPoint x="-7" y="-84" as="offset" />
          </mxGeometry>
        </mxCell>
        <mxCell id="hGdy4Wsc0eGWjVHkm4My-26" value="&lt;span&gt;Atualiza Produto&lt;/span&gt;" style="edgeLabel;html=1;align=center;verticalAlign=middle;resizable=0;points=[];fontStyle=1" connectable="0" vertex="1" parent="I2cXr4Xbu_d9eAzQmwmS-228">
          <mxGeometry x="-0.2752" y="-4" relative="1" as="geometry">
            <mxPoint x="-6" y="-5" as="offset" />
          </mxGeometry>
        </mxCell>
        <mxCell id="I2cXr4Xbu_d9eAzQmwmS-229" style="edgeStyle=orthogonalEdgeStyle;rounded=0;orthogonalLoop=1;jettySize=auto;html=1;fontStyle=1;strokeWidth=2;exitX=0;exitY=0.5;exitDx=0;exitDy=0;exitPerimeter=0;" edge="1" parent="myqctyIuVr8iJMyiNVSi-3" source="I2cXr4Xbu_d9eAzQmwmS-227" target="I2cXr4Xbu_d9eAzQmwmS-223">
          <mxGeometry relative="1" as="geometry">
            <Array as="points">
              <mxPoint x="487.5" y="640" />
              <mxPoint x="487.5" y="640" />
            </Array>
          </mxGeometry>
        </mxCell>
        <mxCell id="I2cXr4Xbu_d9eAzQmwmS-230" value="Salva imagem Produto" style="edgeLabel;html=1;align=center;verticalAlign=middle;resizable=0;points=[];fontStyle=1" connectable="0" vertex="1" parent="I2cXr4Xbu_d9eAzQmwmS-229">
          <mxGeometry x="-0.8881" y="-1" relative="1" as="geometry">
            <mxPoint x="-31" y="1" as="offset" />
          </mxGeometry>
        </mxCell>
        <mxCell id="I2cXr4Xbu_d9eAzQmwmS-227" value="gerencia-produtos" style="outlineConnect=0;dashed=0;verticalLabelPosition=bottom;verticalAlign=top;align=center;html=1;shape=mxgraph.aws3.lambda_function;fillColor=#F58534;gradientColor=none;fontStyle=1" vertex="1" parent="myqctyIuVr8iJMyiNVSi-3">
          <mxGeometry x="1263" y="600" width="69" height="72" as="geometry" />
        </mxCell>
        <mxCell id="I2cXr4Xbu_d9eAzQmwmS-103" value="WebHook Pagamentos Parceiros" style="outlineConnect=0;dashed=0;verticalLabelPosition=bottom;verticalAlign=top;align=center;html=1;shape=mxgraph.aws3.api_gateway;fillColor=#D9A741;gradientColor=none;fontStyle=1" vertex="1" parent="myqctyIuVr8iJMyiNVSi-3">
          <mxGeometry x="911.11" y="1192.56" width="76.5" height="93" as="geometry" />
        </mxCell>
        <mxCell id="I2cXr4Xbu_d9eAzQmwmS-201" style="edgeStyle=orthogonalEdgeStyle;rounded=0;orthogonalLoop=1;jettySize=auto;html=1;fontStyle=1;strokeWidth=2;exitX=0.65;exitY=0.5;exitDx=0;exitDy=0;exitPerimeter=0;strokeColor=#9933FF;" edge="1" parent="myqctyIuVr8iJMyiNVSi-3" source="I2cXr4Xbu_d9eAzQmwmS-103" target="I2cXr4Xbu_d9eAzQmwmS-198">
          <mxGeometry relative="1" as="geometry">
            <Array as="points">
              <mxPoint x="967.5" y="1240" />
              <mxPoint x="967.5" y="1240" />
            </Array>
          </mxGeometry>
        </mxCell>
        <mxCell id="I2cXr4Xbu_d9eAzQmwmS-202" value="Recebe Status Pagamento" style="edgeLabel;html=1;align=center;verticalAlign=middle;resizable=0;points=[];fontStyle=1" connectable="0" vertex="1" parent="I2cXr4Xbu_d9eAzQmwmS-201">
          <mxGeometry x="-0.2184" y="-3" relative="1" as="geometry">
            <mxPoint x="23" y="-3" as="offset" />
          </mxGeometry>
        </mxCell>
        <mxCell id="I2cXr4Xbu_d9eAzQmwmS-258" style="edgeStyle=orthogonalEdgeStyle;rounded=0;orthogonalLoop=1;jettySize=auto;html=1;entryX=0.5;entryY=1;entryDx=0;entryDy=0;entryPerimeter=0;fontStyle=1;strokeWidth=2;strokeColor=#00CC66;exitX=0.855;exitY=0.855;exitDx=0;exitDy=0;exitPerimeter=0;" edge="1" parent="myqctyIuVr8iJMyiNVSi-3" source="I2cXr4Xbu_d9eAzQmwmS-256" target="I2cXr4Xbu_d9eAzQmwmS-227">
          <mxGeometry relative="1" as="geometry">
            <Array as="points">
              <mxPoint x="1266.5" y="1880" />
              <mxPoint x="1867.5" y="1880" />
              <mxPoint x="1867.5" y="760" />
              <mxPoint x="1297.5" y="760" />
            </Array>
          </mxGeometry>
        </mxCell>
        <mxCell id="I2cXr4Xbu_d9eAzQmwmS-259" value="Atualiza Quantidade" style="edgeLabel;html=1;align=center;verticalAlign=middle;resizable=0;points=[];fontStyle=1" connectable="0" vertex="1" parent="I2cXr4Xbu_d9eAzQmwmS-258">
          <mxGeometry x="-0.8378" relative="1" as="geometry">
            <mxPoint x="-13" as="offset" />
          </mxGeometry>
        </mxCell>
        <mxCell id="I2cXr4Xbu_d9eAzQmwmS-260" style="edgeStyle=orthogonalEdgeStyle;rounded=0;orthogonalLoop=1;jettySize=auto;html=1;fontStyle=1;strokeWidth=2;entryX=0;entryY=0.21;entryDx=0;entryDy=0;entryPerimeter=0;strokeColor=#00CC66;exitX=0.145;exitY=0.855;exitDx=0;exitDy=0;exitPerimeter=0;" edge="1" parent="myqctyIuVr8iJMyiNVSi-3" source="I2cXr4Xbu_d9eAzQmwmS-256" target="hGdy4Wsc0eGWjVHkm4My-4">
          <mxGeometry relative="1" as="geometry">
            <Array as="points">
              <mxPoint x="1217.5" y="1880" />
              <mxPoint x="787.5" y="1880" />
              <mxPoint x="787.5" y="1977" />
            </Array>
          </mxGeometry>
        </mxCell>
        <mxCell id="I2cXr4Xbu_d9eAzQmwmS-261" value="Cria Tracking do pedido" style="edgeLabel;html=1;align=center;verticalAlign=middle;resizable=0;points=[];fontStyle=1" connectable="0" vertex="1" parent="I2cXr4Xbu_d9eAzQmwmS-260">
          <mxGeometry x="-0.7352" relative="1" as="geometry">
            <mxPoint x="-77" y="16" as="offset" />
          </mxGeometry>
        </mxCell>
        <mxCell id="I2cXr4Xbu_d9eAzQmwmS-256" value="finalizacao-pedido" style="outlineConnect=0;dashed=0;verticalLabelPosition=bottom;verticalAlign=top;align=center;html=1;shape=mxgraph.aws3.lambda_function;fillColor=#F58534;gradientColor=none;fontStyle=1" vertex="1" parent="myqctyIuVr8iJMyiNVSi-3">
          <mxGeometry x="1207.5" y="1700" width="69" height="72" as="geometry" />
        </mxCell>
        <mxCell id="I2cXr4Xbu_d9eAzQmwmS-270" style="edgeStyle=orthogonalEdgeStyle;rounded=0;orthogonalLoop=1;jettySize=auto;html=1;fontStyle=1;strokeWidth=2;strokeColor=#9933FF;exitX=1;exitY=0.5;exitDx=0;exitDy=0;exitPerimeter=0;" edge="1" parent="myqctyIuVr8iJMyiNVSi-3" source="I2cXr4Xbu_d9eAzQmwmS-269" target="I2cXr4Xbu_d9eAzQmwmS-100">
          <mxGeometry relative="1" as="geometry">
            <Array as="points">
              <mxPoint x="1467.5" y="2136" />
              <mxPoint x="1467.5" y="2004" />
            </Array>
          </mxGeometry>
        </mxCell>
        <mxCell id="I2cXr4Xbu_d9eAzQmwmS-269" value="gerencia-rastreio-pedidos" style="outlineConnect=0;dashed=0;verticalLabelPosition=bottom;verticalAlign=top;align=center;html=1;shape=mxgraph.aws3.lambda_function;fillColor=#F58534;gradientColor=none;fontStyle=1" vertex="1" parent="myqctyIuVr8iJMyiNVSi-3">
          <mxGeometry x="1363.11" y="2100" width="69" height="72" as="geometry" />
        </mxCell>
        <mxCell id="hGdy4Wsc0eGWjVHkm4My-42" style="edgeStyle=orthogonalEdgeStyle;rounded=0;orthogonalLoop=1;jettySize=auto;html=1;strokeWidth=2;strokeColor=#FF8000;fontStyle=1" edge="1" parent="myqctyIuVr8iJMyiNVSi-3" source="I2cXr4Xbu_d9eAzQmwmS-271" target="hGdy4Wsc0eGWjVHkm4My-35">
          <mxGeometry relative="1" as="geometry">
            <Array as="points">
              <mxPoint x="1968" y="2004" />
              <mxPoint x="1968" y="340" />
            </Array>
          </mxGeometry>
        </mxCell>
        <mxCell id="I2cXr4Xbu_d9eAzQmwmS-271" value="DynamoDB Stream" style="sketch=0;outlineConnect=0;fontColor=#232F3E;gradientColor=none;fillColor=#C925D1;strokeColor=none;dashed=0;verticalLabelPosition=bottom;verticalAlign=top;align=center;html=1;fontSize=12;fontStyle=1;aspect=fixed;pointerEvents=1;shape=mxgraph.aws4.dynamodb_stream;" vertex="1" parent="myqctyIuVr8iJMyiNVSi-3">
          <mxGeometry x="1722" y="1981.25" width="45.5" height="45.5" as="geometry" />
        </mxCell>
        <mxCell id="I2cXr4Xbu_d9eAzQmwmS-272" value="WebHook Logistica Parceiros" style="outlineConnect=0;dashed=0;verticalLabelPosition=bottom;verticalAlign=top;align=center;html=1;shape=mxgraph.aws3.api_gateway;fillColor=#D9A741;gradientColor=none;fontStyle=1" vertex="1" parent="myqctyIuVr8iJMyiNVSi-3">
          <mxGeometry x="911.11" y="2089.5" width="76.5" height="93" as="geometry" />
        </mxCell>
        <mxCell id="I2cXr4Xbu_d9eAzQmwmS-278" value="envia-para-pedido" style="outlineConnect=0;dashed=0;verticalLabelPosition=bottom;verticalAlign=top;align=center;html=1;shape=mxgraph.aws3.lambda_function;fillColor=#F58534;gradientColor=none;fontStyle=1" vertex="1" parent="myqctyIuVr8iJMyiNVSi-3">
          <mxGeometry x="1363.1100000000001" y="1320" width="69" height="72" as="geometry" />
        </mxCell>
        <mxCell id="I2cXr4Xbu_d9eAzQmwmS-283" style="edgeStyle=orthogonalEdgeStyle;rounded=0;orthogonalLoop=1;jettySize=auto;html=1;fontStyle=1;strokeWidth=2;" edge="1" parent="myqctyIuVr8iJMyiNVSi-3" source="I2cXr4Xbu_d9eAzQmwmS-280" target="I2cXr4Xbu_d9eAzQmwmS-282">
          <mxGeometry relative="1" as="geometry">
            <Array as="points">
              <mxPoint x="1747.5" y="954.94" />
              <mxPoint x="1252.5" y="954.94" />
            </Array>
          </mxGeometry>
        </mxCell>
        <mxCell id="I2cXr4Xbu_d9eAzQmwmS-280" value="DynamoDB Stream" style="sketch=0;outlineConnect=0;fontColor=#232F3E;gradientColor=none;fillColor=#C925D1;strokeColor=none;dashed=0;verticalLabelPosition=bottom;verticalAlign=top;align=center;html=1;fontSize=12;fontStyle=1;aspect=fixed;pointerEvents=1;shape=mxgraph.aws4.dynamodb_stream;" vertex="1" parent="myqctyIuVr8iJMyiNVSi-3">
          <mxGeometry x="1722" y="872.69" width="45.5" height="45.5" as="geometry" />
        </mxCell>
        <mxCell id="hGdy4Wsc0eGWjVHkm4My-37" style="edgeStyle=orthogonalEdgeStyle;rounded=0;orthogonalLoop=1;jettySize=auto;html=1;strokeColor=#FF8000;strokeWidth=2;fontStyle=1" edge="1" parent="myqctyIuVr8iJMyiNVSi-3" source="I2cXr4Xbu_d9eAzQmwmS-282" target="hGdy4Wsc0eGWjVHkm4My-35">
          <mxGeometry relative="1" as="geometry">
            <Array as="points">
              <mxPoint x="1968" y="1004" />
              <mxPoint x="1968" y="340" />
            </Array>
          </mxGeometry>
        </mxCell>
        <mxCell id="I2cXr4Xbu_d9eAzQmwmS-282" value="lembrete-carrinho-cheio" style="outlineConnect=0;dashed=0;verticalLabelPosition=bottom;verticalAlign=top;align=center;html=1;shape=mxgraph.aws3.lambda_function;fillColor=#F58534;gradientColor=none;fontStyle=1" vertex="1" parent="myqctyIuVr8iJMyiNVSi-3">
          <mxGeometry x="1303.0000000000002" y="967.69" width="69" height="72" as="geometry" />
        </mxCell>
        <mxCell id="MP5OMuKNtqwY5v9U1ztN-2" value="&lt;span&gt;AWS Route 53&lt;/span&gt;" style="outlineConnect=0;dashed=0;verticalLabelPosition=bottom;verticalAlign=top;align=center;html=1;shape=mxgraph.aws3.route_53;fillColor=#F58536;gradientColor=none;fontStyle=1" vertex="1" parent="myqctyIuVr8iJMyiNVSi-3">
          <mxGeometry x="-40" y="852.75" width="70.5" height="85.5" as="geometry" />
        </mxCell>
        <mxCell id="MP5OMuKNtqwY5v9U1ztN-4" style="edgeStyle=orthogonalEdgeStyle;rounded=0;orthogonalLoop=1;jettySize=auto;html=1;strokeWidth=2;fontStyle=1" edge="1" parent="myqctyIuVr8iJMyiNVSi-3" source="MP5OMuKNtqwY5v9U1ztN-2" target="I2cXr4Xbu_d9eAzQmwmS-60">
          <mxGeometry relative="1" as="geometry">
            <Array as="points">
              <mxPoint x="160" y="896" />
              <mxPoint x="160" y="1056" />
            </Array>
          </mxGeometry>
        </mxCell>
        <mxCell id="hGdy4Wsc0eGWjVHkm4My-92" style="edgeStyle=orthogonalEdgeStyle;rounded=0;orthogonalLoop=1;jettySize=auto;html=1;entryX=0;entryY=0.5;entryDx=0;entryDy=0;strokeColor=#FF0000;strokeWidth=2;fontStyle=1" edge="1" parent="myqctyIuVr8iJMyiNVSi-3" source="iqRmgzaMu4S7BW8Kewet-3" target="hGdy4Wsc0eGWjVHkm4My-88">
          <mxGeometry relative="1" as="geometry">
            <Array as="points">
              <mxPoint x="2067.5" y="2400" />
              <mxPoint x="2067.5" y="1420" />
            </Array>
          </mxGeometry>
        </mxCell>
        <mxCell id="iqRmgzaMu4S7BW8Kewet-3" value="MicroServiço de&amp;nbsp; Usuários" style="rounded=1;whiteSpace=wrap;html=1;fillColor=#fff2cc;strokeColor=#d6b656;labelPosition=center;verticalLabelPosition=top;align=center;verticalAlign=bottom;fontStyle=1" vertex="1" parent="myqctyIuVr8iJMyiNVSi-3">
          <mxGeometry x="827.5" y="2300" width="1020" height="200" as="geometry" />
        </mxCell>
        <mxCell id="hGdy4Wsc0eGWjVHkm4My-73" style="edgeStyle=orthogonalEdgeStyle;rounded=0;orthogonalLoop=1;jettySize=auto;html=1;exitX=1;exitY=0.5;exitDx=0;exitDy=0;exitPerimeter=0;strokeWidth=2;fontStyle=1" edge="1" parent="myqctyIuVr8iJMyiNVSi-3" source="MP5OMuKNtqwY5v9U1ztN-2" target="hGdy4Wsc0eGWjVHkm4My-68">
          <mxGeometry relative="1" as="geometry">
            <Array as="points">
              <mxPoint x="159" y="895" />
              <mxPoint x="159" y="580" />
              <mxPoint x="159" y="580" />
            </Array>
          </mxGeometry>
        </mxCell>
        <mxCell id="hGdy4Wsc0eGWjVHkm4My-79" value="Autenticação Usuário" style="edgeLabel;html=1;align=center;verticalAlign=middle;resizable=0;points=[];fontStyle=1" connectable="0" vertex="1" parent="hGdy4Wsc0eGWjVHkm4My-73">
          <mxGeometry x="0.7512" y="5" relative="1" as="geometry">
            <mxPoint y="3" as="offset" />
          </mxGeometry>
        </mxCell>
        <mxCell id="iqRmgzaMu4S7BW8Kewet-4" value="gerencia_usuarios" style="outlineConnect=0;dashed=0;verticalLabelPosition=bottom;verticalAlign=top;align=center;html=1;shape=mxgraph.aws3.lambda_function;fillColor=#F58534;gradientColor=none;fontStyle=1" vertex="1" parent="myqctyIuVr8iJMyiNVSi-3">
          <mxGeometry x="1207.5000000000002" y="2344.5" width="69" height="72" as="geometry" />
        </mxCell>
        <mxCell id="hGdy4Wsc0eGWjVHkm4My-7" style="edgeStyle=orthogonalEdgeStyle;rounded=0;orthogonalLoop=1;jettySize=auto;html=1;strokeWidth=2;fontStyle=1" edge="1" parent="myqctyIuVr8iJMyiNVSi-3" source="iqRmgzaMu4S7BW8Kewet-6" target="iqRmgzaMu4S7BW8Kewet-11">
          <mxGeometry relative="1" as="geometry" />
        </mxCell>
        <mxCell id="iqRmgzaMu4S7BW8Kewet-6" value="tabela_usuarios" style="outlineConnect=0;dashed=0;verticalLabelPosition=top;verticalAlign=bottom;align=center;html=1;shape=mxgraph.aws3.dynamo_db;fillColor=#2E73B8;gradientColor=none;fontStyle=1;labelPosition=center;" vertex="1" parent="myqctyIuVr8iJMyiNVSi-3">
          <mxGeometry x="1587.5000000000005" y="2340" width="72" height="81" as="geometry" />
        </mxCell>
        <mxCell id="iqRmgzaMu4S7BW8Kewet-7" style="edgeStyle=orthogonalEdgeStyle;rounded=0;orthogonalLoop=1;jettySize=auto;html=1;fontStyle=1;strokeWidth=2;" edge="1" parent="myqctyIuVr8iJMyiNVSi-3" source="iqRmgzaMu4S7BW8Kewet-4" target="iqRmgzaMu4S7BW8Kewet-6">
          <mxGeometry relative="1" as="geometry">
            <mxPoint x="1300" y="2380" as="sourcePoint" />
            <Array as="points" />
          </mxGeometry>
        </mxCell>
        <mxCell id="iqRmgzaMu4S7BW8Kewet-11" value="DynamoDB Stream" style="sketch=0;outlineConnect=0;fontColor=#232F3E;gradientColor=none;fillColor=#C925D1;strokeColor=none;dashed=0;verticalLabelPosition=bottom;verticalAlign=top;align=center;html=1;fontSize=12;fontStyle=1;aspect=fixed;pointerEvents=1;shape=mxgraph.aws4.dynamodb_stream;" vertex="1" parent="myqctyIuVr8iJMyiNVSi-3">
          <mxGeometry x="1722" y="2357.75" width="45.5" height="45.5" as="geometry" />
        </mxCell>
        <mxCell id="iqRmgzaMu4S7BW8Kewet-32" style="edgeStyle=orthogonalEdgeStyle;rounded=0;orthogonalLoop=1;jettySize=auto;html=1;strokeColor=#FF8000;strokeWidth=2;fontStyle=1" edge="1" parent="myqctyIuVr8iJMyiNVSi-3" source="iqRmgzaMu4S7BW8Kewet-17" target="I2cXr4Xbu_d9eAzQmwmS-205">
          <mxGeometry relative="1" as="geometry">
            <Array as="points">
              <mxPoint x="1300" y="200" />
              <mxPoint x="1300" y="200" />
            </Array>
          </mxGeometry>
        </mxCell>
        <mxCell id="iqRmgzaMu4S7BW8Kewet-17" value="&lt;span&gt;SQS&amp;nbsp; Notificações&lt;/span&gt;" style="outlineConnect=0;dashed=0;verticalLabelPosition=bottom;verticalAlign=top;align=center;html=1;shape=mxgraph.aws3.sqs;fillColor=#D9A741;gradientColor=none;fontStyle=1" vertex="1" parent="myqctyIuVr8iJMyiNVSi-3">
          <mxGeometry x="1619.5" y="160" width="76.5" height="93" as="geometry" />
        </mxCell>
        <mxCell id="iqRmgzaMu4S7BW8Kewet-24" style="edgeStyle=orthogonalEdgeStyle;rounded=0;orthogonalLoop=1;jettySize=auto;html=1;entryX=0.35;entryY=0.5;entryDx=0;entryDy=0;entryPerimeter=0;strokeWidth=2;strokeColor=#9933FF;exitX=0.855;exitY=0.855;exitDx=0;exitDy=0;exitPerimeter=0;fontStyle=1" edge="1" parent="myqctyIuVr8iJMyiNVSi-3" source="hGdy4Wsc0eGWjVHkm4My-57" target="I2cXr4Xbu_d9eAzQmwmS-272">
          <mxGeometry relative="1" as="geometry">
            <Array as="points">
              <mxPoint x="780" y="1100" />
              <mxPoint x="780" y="2136" />
            </Array>
          </mxGeometry>
        </mxCell>
        <mxCell id="iqRmgzaMu4S7BW8Kewet-26" style="edgeStyle=orthogonalEdgeStyle;rounded=0;orthogonalLoop=1;jettySize=auto;html=1;entryX=0.35;entryY=0.5;entryDx=0;entryDy=0;entryPerimeter=0;strokeWidth=2;strokeColor=#9933FF;exitX=0.855;exitY=0.855;exitDx=0;exitDy=0;exitPerimeter=0;fontStyle=1" edge="1" parent="myqctyIuVr8iJMyiNVSi-3" source="hGdy4Wsc0eGWjVHkm4My-57" target="I2cXr4Xbu_d9eAzQmwmS-103">
          <mxGeometry relative="1" as="geometry">
            <Array as="points">
              <mxPoint x="780" y="1101" />
              <mxPoint x="780" y="1239" />
            </Array>
          </mxGeometry>
        </mxCell>
        <mxCell id="iqRmgzaMu4S7BW8Kewet-28" style="edgeStyle=orthogonalEdgeStyle;rounded=0;orthogonalLoop=1;jettySize=auto;html=1;entryX=0;entryY=0.5;entryDx=0;entryDy=0;entryPerimeter=0;exitX=0.65;exitY=0.5;exitDx=0;exitDy=0;exitPerimeter=0;strokeWidth=2;strokeColor=#9933FF;fontStyle=1" edge="1" parent="myqctyIuVr8iJMyiNVSi-3" source="I2cXr4Xbu_d9eAzQmwmS-272" target="I2cXr4Xbu_d9eAzQmwmS-269">
          <mxGeometry relative="1" as="geometry">
            <mxPoint x="171.5" y="1806" as="sourcePoint" />
            <Array as="points">
              <mxPoint x="1247.5" y="2136" />
              <mxPoint x="1247.5" y="2136" />
            </Array>
          </mxGeometry>
        </mxCell>
        <mxCell id="iqRmgzaMu4S7BW8Kewet-37" style="edgeStyle=orthogonalEdgeStyle;rounded=0;orthogonalLoop=1;jettySize=auto;html=1;strokeColor=#FF8000;strokeWidth=2;fontStyle=1" edge="1" parent="myqctyIuVr8iJMyiNVSi-3" source="hGdy4Wsc0eGWjVHkm4My-35" target="iqRmgzaMu4S7BW8Kewet-17">
          <mxGeometry relative="1" as="geometry">
            <mxPoint x="1803" y="310" as="sourcePoint" />
            <Array as="points">
              <mxPoint x="1658" y="320" />
            </Array>
          </mxGeometry>
        </mxCell>
        <mxCell id="hGdy4Wsc0eGWjVHkm4My-1" style="edgeStyle=orthogonalEdgeStyle;rounded=0;orthogonalLoop=1;jettySize=auto;html=1;strokeWidth=2;fontStyle=1" edge="1" parent="myqctyIuVr8iJMyiNVSi-3" source="hGdy4Wsc0eGWjVHkm4My-0" target="iqRmgzaMu4S7BW8Kewet-4">
          <mxGeometry relative="1" as="geometry" />
        </mxCell>
        <mxCell id="hGdy4Wsc0eGWjVHkm4My-0" value="API Usuários" style="outlineConnect=0;dashed=0;verticalLabelPosition=bottom;verticalAlign=top;align=center;html=1;shape=mxgraph.aws3.api_gateway;fillColor=#D9A741;gradientColor=none;fontStyle=1" vertex="1" parent="myqctyIuVr8iJMyiNVSi-3">
          <mxGeometry x="901.11" y="2334" width="76.5" height="93" as="geometry" />
        </mxCell>
        <mxCell id="hGdy4Wsc0eGWjVHkm4My-4" value="API Logistica" style="outlineConnect=0;dashed=0;verticalLabelPosition=bottom;verticalAlign=top;align=center;html=1;shape=mxgraph.aws3.api_gateway;fillColor=#D9A741;gradientColor=none;fontStyle=1" vertex="1" parent="myqctyIuVr8iJMyiNVSi-3">
          <mxGeometry x="911.11" y="1957.5" width="76.5" height="93" as="geometry" />
        </mxCell>
        <mxCell id="hGdy4Wsc0eGWjVHkm4My-5" style="edgeStyle=orthogonalEdgeStyle;rounded=0;orthogonalLoop=1;jettySize=auto;html=1;exitX=0.65;exitY=0.5;exitDx=0;exitDy=0;exitPerimeter=0;entryX=0;entryY=0.5;entryDx=0;entryDy=0;entryPerimeter=0;strokeWidth=2;fontStyle=1" edge="1" parent="myqctyIuVr8iJMyiNVSi-3" source="hGdy4Wsc0eGWjVHkm4My-4" target="I2cXr4Xbu_d9eAzQmwmS-99">
          <mxGeometry relative="1" as="geometry" />
        </mxCell>
        <mxCell id="hGdy4Wsc0eGWjVHkm4My-10" style="edgeStyle=orthogonalEdgeStyle;rounded=0;orthogonalLoop=1;jettySize=auto;html=1;strokeWidth=2;fontStyle=1" edge="1" parent="myqctyIuVr8iJMyiNVSi-3" source="hGdy4Wsc0eGWjVHkm4My-9" target="I2cXr4Xbu_d9eAzQmwmS-86">
          <mxGeometry relative="1" as="geometry" />
        </mxCell>
        <mxCell id="hGdy4Wsc0eGWjVHkm4My-9" value="API Logistica" style="outlineConnect=0;dashed=0;verticalLabelPosition=bottom;verticalAlign=top;align=center;html=1;shape=mxgraph.aws3.api_gateway;fillColor=#D9A741;gradientColor=none;fontStyle=1" vertex="1" parent="myqctyIuVr8iJMyiNVSi-3">
          <mxGeometry x="911.11" y="1633.5" width="76.5" height="93" as="geometry" />
        </mxCell>
        <mxCell id="I2cXr4Xbu_d9eAzQmwmS-199" style="edgeStyle=orthogonalEdgeStyle;rounded=0;orthogonalLoop=1;jettySize=auto;html=1;startArrow=classic;startFill=1;endArrow=none;endFill=0;fontStyle=1;strokeWidth=2;strokeColor=#000000;entryX=1;entryY=0.5;entryDx=0;entryDy=0;entryPerimeter=0;" edge="1" parent="myqctyIuVr8iJMyiNVSi-3" source="I2cXr4Xbu_d9eAzQmwmS-96" target="I2cXr4Xbu_d9eAzQmwmS-198">
          <mxGeometry relative="1" as="geometry">
            <Array as="points">
              <mxPoint x="1447.5" y="1239" />
              <mxPoint x="1447.5" y="1239" />
            </Array>
          </mxGeometry>
        </mxCell>
        <mxCell id="I2cXr4Xbu_d9eAzQmwmS-203" value="Atualiza Transação" style="edgeLabel;html=1;align=center;verticalAlign=middle;resizable=0;points=[];fontStyle=1" connectable="0" vertex="1" parent="I2cXr4Xbu_d9eAzQmwmS-199">
          <mxGeometry x="0.1234" relative="1" as="geometry">
            <mxPoint x="-59" as="offset" />
          </mxGeometry>
        </mxCell>
        <mxCell id="hGdy4Wsc0eGWjVHkm4My-16" style="edgeStyle=orthogonalEdgeStyle;rounded=0;orthogonalLoop=1;jettySize=auto;html=1;exitX=0.65;exitY=0.5;exitDx=0;exitDy=0;exitPerimeter=0;strokeWidth=2;fontStyle=1" edge="1" parent="myqctyIuVr8iJMyiNVSi-3" source="hGdy4Wsc0eGWjVHkm4My-15" target="I2cXr4Xbu_d9eAzQmwmS-183">
          <mxGeometry relative="1" as="geometry" />
        </mxCell>
        <mxCell id="hGdy4Wsc0eGWjVHkm4My-15" value="API Transacoes" style="outlineConnect=0;dashed=0;verticalLabelPosition=bottom;verticalAlign=top;align=center;html=1;shape=mxgraph.aws3.api_gateway;fillColor=#D9A741;gradientColor=none;fontStyle=1" vertex="1" parent="myqctyIuVr8iJMyiNVSi-3">
          <mxGeometry x="911.11" y="1329.5" width="76.5" height="93" as="geometry" />
        </mxCell>
        <mxCell id="hGdy4Wsc0eGWjVHkm4My-21" value="API Compras" style="outlineConnect=0;dashed=0;verticalLabelPosition=bottom;verticalAlign=top;align=center;html=1;shape=mxgraph.aws3.api_gateway;fillColor=#D9A741;gradientColor=none;fontStyle=1" vertex="1" parent="myqctyIuVr8iJMyiNVSi-3">
          <mxGeometry x="901.11" y="905.5" width="76.5" height="93" as="geometry" />
        </mxCell>
        <mxCell id="hGdy4Wsc0eGWjVHkm4My-22" style="edgeStyle=orthogonalEdgeStyle;rounded=0;orthogonalLoop=1;jettySize=auto;html=1;entryX=0;entryY=0.5;entryDx=0;entryDy=0;entryPerimeter=0;strokeWidth=2;fontStyle=1" edge="1" parent="myqctyIuVr8iJMyiNVSi-3" source="hGdy4Wsc0eGWjVHkm4My-21" target="I2cXr4Xbu_d9eAzQmwmS-81">
          <mxGeometry relative="1" as="geometry" />
        </mxCell>
        <mxCell id="hGdy4Wsc0eGWjVHkm4My-24" value="API Produtos" style="outlineConnect=0;dashed=0;verticalLabelPosition=bottom;verticalAlign=top;align=center;html=1;shape=mxgraph.aws3.api_gateway;fillColor=#D9A741;gradientColor=none;fontStyle=1" vertex="1" parent="myqctyIuVr8iJMyiNVSi-3">
          <mxGeometry x="901.11" y="518" width="76.5" height="93" as="geometry" />
        </mxCell>
        <mxCell id="hGdy4Wsc0eGWjVHkm4My-25" style="edgeStyle=orthogonalEdgeStyle;rounded=0;orthogonalLoop=1;jettySize=auto;html=1;exitX=0.65;exitY=0.5;exitDx=0;exitDy=0;exitPerimeter=0;entryX=0;entryY=0.5;entryDx=0;entryDy=0;entryPerimeter=0;strokeWidth=2;fontStyle=1" edge="1" parent="myqctyIuVr8iJMyiNVSi-3" source="hGdy4Wsc0eGWjVHkm4My-24" target="I2cXr4Xbu_d9eAzQmwmS-54">
          <mxGeometry relative="1" as="geometry" />
        </mxCell>
        <mxCell id="hGdy4Wsc0eGWjVHkm4My-27" value="DynamoDB Stream" style="sketch=0;outlineConnect=0;fontColor=#232F3E;gradientColor=none;fillColor=#C925D1;strokeColor=none;dashed=0;verticalLabelPosition=bottom;verticalAlign=top;align=center;html=1;fontSize=12;fontStyle=1;aspect=fixed;pointerEvents=1;shape=mxgraph.aws4.dynamodb_stream;" vertex="1" parent="myqctyIuVr8iJMyiNVSi-3">
          <mxGeometry x="1722" y="497.75" width="45.5" height="45.5" as="geometry" />
        </mxCell>
        <mxCell id="hGdy4Wsc0eGWjVHkm4My-38" style="edgeStyle=orthogonalEdgeStyle;rounded=0;orthogonalLoop=1;jettySize=auto;html=1;entryX=1;entryY=0.5;entryDx=0;entryDy=0;entryPerimeter=0;strokeColor=#FF8000;strokeWidth=2;fontStyle=1" edge="1" parent="myqctyIuVr8iJMyiNVSi-3" source="I2cXr4Xbu_d9eAzQmwmS-278" target="hGdy4Wsc0eGWjVHkm4My-35">
          <mxGeometry relative="1" as="geometry">
            <Array as="points">
              <mxPoint x="1968" y="1356" />
              <mxPoint x="1968" y="340" />
              <mxPoint x="1120" y="340" />
            </Array>
          </mxGeometry>
        </mxCell>
        <mxCell id="hGdy4Wsc0eGWjVHkm4My-39" style="edgeStyle=orthogonalEdgeStyle;rounded=0;orthogonalLoop=1;jettySize=auto;html=1;entryX=1;entryY=0.5;entryDx=0;entryDy=0;entryPerimeter=0;strokeWidth=2;strokeColor=#FF8000;fontStyle=1" edge="1" parent="myqctyIuVr8iJMyiNVSi-3" source="I2cXr4Xbu_d9eAzQmwmS-256" target="hGdy4Wsc0eGWjVHkm4My-35">
          <mxGeometry relative="1" as="geometry">
            <Array as="points">
              <mxPoint x="1968" y="1740" />
              <mxPoint x="1968" y="340" />
              <mxPoint x="1120" y="340" />
            </Array>
          </mxGeometry>
        </mxCell>
        <mxCell id="hGdy4Wsc0eGWjVHkm4My-41" style="edgeStyle=orthogonalEdgeStyle;rounded=0;orthogonalLoop=1;jettySize=auto;html=1;entryX=1;entryY=0.5;entryDx=0;entryDy=0;entryPerimeter=0;strokeWidth=2;strokeColor=#FF8000;fontStyle=1" edge="1" parent="myqctyIuVr8iJMyiNVSi-3" source="iqRmgzaMu4S7BW8Kewet-11" target="hGdy4Wsc0eGWjVHkm4My-35">
          <mxGeometry relative="1" as="geometry">
            <Array as="points">
              <mxPoint x="1968" y="2381" />
              <mxPoint x="1968" y="340" />
              <mxPoint x="1120" y="340" />
              <mxPoint x="1120" y="339" />
            </Array>
          </mxGeometry>
        </mxCell>
        <mxCell id="hGdy4Wsc0eGWjVHkm4My-43" style="edgeStyle=orthogonalEdgeStyle;rounded=0;orthogonalLoop=1;jettySize=auto;html=1;entryX=1;entryY=0.5;entryDx=0;entryDy=0;entryPerimeter=0;strokeWidth=2;strokeColor=#FF8000;fontStyle=1" edge="1" parent="myqctyIuVr8iJMyiNVSi-3" source="hGdy4Wsc0eGWjVHkm4My-27" target="hGdy4Wsc0eGWjVHkm4My-35">
          <mxGeometry relative="1" as="geometry">
            <Array as="points">
              <mxPoint x="1968" y="521" />
              <mxPoint x="1968" y="339" />
              <mxPoint x="1120" y="339" />
            </Array>
          </mxGeometry>
        </mxCell>
        <mxCell id="hGdy4Wsc0eGWjVHkm4My-63" style="edgeStyle=orthogonalEdgeStyle;rounded=0;orthogonalLoop=1;jettySize=auto;html=1;entryX=0.35;entryY=0.5;entryDx=0;entryDy=0;entryPerimeter=0;strokeWidth=2;fontStyle=1" edge="1" parent="myqctyIuVr8iJMyiNVSi-3" source="hGdy4Wsc0eGWjVHkm4My-57" target="hGdy4Wsc0eGWjVHkm4My-4">
          <mxGeometry relative="1" as="geometry">
            <Array as="points">
              <mxPoint x="707.5" y="1080" />
              <mxPoint x="707.5" y="2004" />
            </Array>
          </mxGeometry>
        </mxCell>
        <mxCell id="hGdy4Wsc0eGWjVHkm4My-57" value="&lt;span&gt;Application Load Balancer&lt;/span&gt;" style="outlineConnect=0;dashed=0;verticalLabelPosition=bottom;verticalAlign=top;align=center;html=1;shape=mxgraph.aws3.application_load_balancer;fillColor=#F58534;gradientColor=none;fontStyle=1" vertex="1" parent="myqctyIuVr8iJMyiNVSi-3">
          <mxGeometry x="568.5" y="1039.69" width="69" height="72" as="geometry" />
        </mxCell>
        <mxCell id="hGdy4Wsc0eGWjVHkm4My-58" style="edgeStyle=orthogonalEdgeStyle;rounded=0;orthogonalLoop=1;jettySize=auto;html=1;entryX=0.35;entryY=0.5;entryDx=0;entryDy=0;entryPerimeter=0;strokeWidth=2;fontStyle=1" edge="1" parent="myqctyIuVr8iJMyiNVSi-3" source="hGdy4Wsc0eGWjVHkm4My-57" target="hGdy4Wsc0eGWjVHkm4My-24">
          <mxGeometry relative="1" as="geometry">
            <Array as="points">
              <mxPoint x="707.5" y="1080" />
              <mxPoint x="707.5" y="564" />
            </Array>
          </mxGeometry>
        </mxCell>
        <mxCell id="hGdy4Wsc0eGWjVHkm4My-60" style="edgeStyle=orthogonalEdgeStyle;rounded=0;orthogonalLoop=1;jettySize=auto;html=1;entryX=0.35;entryY=0.5;entryDx=0;entryDy=0;entryPerimeter=0;strokeWidth=2;fontStyle=1" edge="1" parent="myqctyIuVr8iJMyiNVSi-3" source="hGdy4Wsc0eGWjVHkm4My-57" target="hGdy4Wsc0eGWjVHkm4My-21">
          <mxGeometry relative="1" as="geometry">
            <Array as="points">
              <mxPoint x="707.5" y="1080" />
              <mxPoint x="707.5" y="952" />
            </Array>
          </mxGeometry>
        </mxCell>
        <mxCell id="hGdy4Wsc0eGWjVHkm4My-61" style="edgeStyle=orthogonalEdgeStyle;rounded=0;orthogonalLoop=1;jettySize=auto;html=1;entryX=0.35;entryY=0.5;entryDx=0;entryDy=0;entryPerimeter=0;strokeWidth=2;fontStyle=1" edge="1" parent="myqctyIuVr8iJMyiNVSi-3" source="hGdy4Wsc0eGWjVHkm4My-57" target="hGdy4Wsc0eGWjVHkm4My-15">
          <mxGeometry relative="1" as="geometry">
            <Array as="points">
              <mxPoint x="707.5" y="1080" />
              <mxPoint x="707.5" y="1376" />
            </Array>
          </mxGeometry>
        </mxCell>
        <mxCell id="hGdy4Wsc0eGWjVHkm4My-62" style="edgeStyle=orthogonalEdgeStyle;rounded=0;orthogonalLoop=1;jettySize=auto;html=1;entryX=0.35;entryY=0.5;entryDx=0;entryDy=0;entryPerimeter=0;strokeWidth=2;fontStyle=1" edge="1" parent="myqctyIuVr8iJMyiNVSi-3" source="hGdy4Wsc0eGWjVHkm4My-57" target="hGdy4Wsc0eGWjVHkm4My-9">
          <mxGeometry relative="1" as="geometry">
            <Array as="points">
              <mxPoint x="707.5" y="1080" />
              <mxPoint x="707.5" y="1680" />
            </Array>
          </mxGeometry>
        </mxCell>
        <mxCell id="hGdy4Wsc0eGWjVHkm4My-65" style="edgeStyle=orthogonalEdgeStyle;rounded=0;orthogonalLoop=1;jettySize=auto;html=1;entryX=0.35;entryY=0.5;entryDx=0;entryDy=0;entryPerimeter=0;strokeWidth=2;fontStyle=1" edge="1" parent="myqctyIuVr8iJMyiNVSi-3" source="hGdy4Wsc0eGWjVHkm4My-57" target="hGdy4Wsc0eGWjVHkm4My-0">
          <mxGeometry relative="1" as="geometry">
            <Array as="points">
              <mxPoint x="707.5" y="1080" />
              <mxPoint x="707.5" y="2381" />
            </Array>
          </mxGeometry>
        </mxCell>
        <mxCell id="hGdy4Wsc0eGWjVHkm4My-68" value="Amazon Cognito" style="sketch=0;points=[[0,0,0],[0.25,0,0],[0.5,0,0],[0.75,0,0],[1,0,0],[0,1,0],[0.25,1,0],[0.5,1,0],[0.75,1,0],[1,1,0],[0,0.25,0],[0,0.5,0],[0,0.75,0],[1,0.25,0],[1,0.5,0],[1,0.75,0]];outlineConnect=0;fontColor=#232F3E;fillColor=#DD344C;strokeColor=#ffffff;dashed=0;verticalLabelPosition=top;verticalAlign=bottom;align=center;html=1;fontSize=12;fontStyle=1;aspect=fixed;shape=mxgraph.aws4.resourceIcon;resIcon=mxgraph.aws4.cognito;labelPosition=center;" vertex="1" parent="myqctyIuVr8iJMyiNVSi-3">
          <mxGeometry x="127.5" y="484.5" width="78" height="78" as="geometry" />
        </mxCell>
        <mxCell id="hGdy4Wsc0eGWjVHkm4My-91" style="edgeStyle=orthogonalEdgeStyle;rounded=0;orthogonalLoop=1;jettySize=auto;html=1;entryX=0;entryY=0.5;entryDx=0;entryDy=0;strokeColor=#FF0000;strokeWidth=2;fontStyle=1" edge="1" parent="myqctyIuVr8iJMyiNVSi-3" source="hGdy4Wsc0eGWjVHkm4My-75" target="hGdy4Wsc0eGWjVHkm4My-88">
          <mxGeometry relative="1" as="geometry">
            <Array as="points">
              <mxPoint x="2067.5" y="2680" />
              <mxPoint x="2067.5" y="1420" />
            </Array>
          </mxGeometry>
        </mxCell>
        <mxCell id="hGdy4Wsc0eGWjVHkm4My-75" value="MicroServiço de&amp;nbsp; Autenticação/Autorização" style="rounded=1;whiteSpace=wrap;html=1;fillColor=#fff2cc;strokeColor=#d6b656;labelPosition=center;verticalLabelPosition=top;align=center;verticalAlign=bottom;fontStyle=1" vertex="1" parent="myqctyIuVr8iJMyiNVSi-3">
          <mxGeometry x="827.5" y="2580" width="1020" height="200" as="geometry" />
        </mxCell>
        <mxCell id="hGdy4Wsc0eGWjVHkm4My-78" style="edgeStyle=orthogonalEdgeStyle;rounded=0;orthogonalLoop=1;jettySize=auto;html=1;strokeWidth=2;fontStyle=1" edge="1" parent="myqctyIuVr8iJMyiNVSi-3" source="hGdy4Wsc0eGWjVHkm4My-76" target="hGdy4Wsc0eGWjVHkm4My-77">
          <mxGeometry relative="1" as="geometry" />
        </mxCell>
        <mxCell id="hGdy4Wsc0eGWjVHkm4My-76" value="lambda-authorizer" style="outlineConnect=0;dashed=0;verticalLabelPosition=bottom;verticalAlign=top;align=center;html=1;shape=mxgraph.aws3.lambda_function;fillColor=#F58534;gradientColor=none;fontStyle=1" vertex="1" parent="myqctyIuVr8iJMyiNVSi-3">
          <mxGeometry x="1051.1100000000001" y="2634.5" width="69" height="72" as="geometry" />
        </mxCell>
        <mxCell id="hGdy4Wsc0eGWjVHkm4My-69" value="&lt;span&gt;AWS IAM&lt;/span&gt;" style="outlineConnect=0;dashed=0;verticalLabelPosition=bottom;verticalAlign=top;align=center;html=1;shape=mxgraph.aws3.iam;fillColor=#759C3E;gradientColor=none;fontStyle=1" vertex="1" parent="myqctyIuVr8iJMyiNVSi-3">
          <mxGeometry x="346.5" y="430" width="42" height="81" as="geometry" />
        </mxCell>
        <mxCell id="hGdy4Wsc0eGWjVHkm4My-77" value="tabela_policies_store" style="outlineConnect=0;dashed=0;verticalLabelPosition=top;verticalAlign=bottom;align=center;html=1;shape=mxgraph.aws3.dynamo_db;fillColor=#2E73B8;gradientColor=none;fontStyle=1;labelPosition=center;" vertex="1" parent="myqctyIuVr8iJMyiNVSi-3">
          <mxGeometry x="1587.5000000000005" y="2630" width="72" height="81" as="geometry" />
        </mxCell>
        <mxCell id="hGdy4Wsc0eGWjVHkm4My-88" value="Logs/Métricas/Alarmes" style="rounded=1;whiteSpace=wrap;html=1;fillColor=#fff2cc;strokeColor=#d6b656;labelPosition=center;verticalLabelPosition=top;align=center;verticalAlign=bottom;fontStyle=1;strokeWidth=2;" vertex="1" parent="myqctyIuVr8iJMyiNVSi-3">
          <mxGeometry x="2192.5" y="1140" width="220" height="560" as="geometry" />
        </mxCell>
        <mxCell id="hGdy4Wsc0eGWjVHkm4My-83" value="&lt;span style=&quot;border-color: var(--border-color);&quot;&gt;CloudWatch Metrics&lt;/span&gt;" style="sketch=0;outlineConnect=0;fontColor=#232F3E;gradientColor=none;fillColor=#E7157B;strokeColor=none;dashed=0;verticalLabelPosition=bottom;verticalAlign=top;align=center;html=1;fontSize=12;fontStyle=1;aspect=fixed;pointerEvents=1;shape=mxgraph.aws4.cloudwatch_metrics_insights;" vertex="1" parent="myqctyIuVr8iJMyiNVSi-3">
          <mxGeometry x="2264" y="1357.5" width="77" height="78" as="geometry" />
        </mxCell>
        <mxCell id="hGdy4Wsc0eGWjVHkm4My-82" value="&lt;span&gt;CloudWatch Alarm&lt;/span&gt;" style="sketch=0;outlineConnect=0;fontColor=#232F3E;gradientColor=none;fillColor=#E7157B;strokeColor=none;dashed=0;verticalLabelPosition=bottom;verticalAlign=top;align=center;html=1;fontSize=12;fontStyle=1;aspect=fixed;pointerEvents=1;shape=mxgraph.aws4.alarm;" vertex="1" parent="myqctyIuVr8iJMyiNVSi-3">
          <mxGeometry x="2263" y="1170" width="78" height="78" as="geometry" />
        </mxCell>
        <mxCell id="hGdy4Wsc0eGWjVHkm4My-90" style="edgeStyle=orthogonalEdgeStyle;rounded=0;orthogonalLoop=1;jettySize=auto;html=1;strokeWidth=2;fontStyle=1" edge="1" parent="myqctyIuVr8iJMyiNVSi-3" source="hGdy4Wsc0eGWjVHkm4My-83" target="hGdy4Wsc0eGWjVHkm4My-82">
          <mxGeometry relative="1" as="geometry" />
        </mxCell>
        <mxCell id="hGdy4Wsc0eGWjVHkm4My-89" style="edgeStyle=orthogonalEdgeStyle;rounded=0;orthogonalLoop=1;jettySize=auto;html=1;strokeWidth=2;fontStyle=1" edge="1" parent="myqctyIuVr8iJMyiNVSi-3" source="hGdy4Wsc0eGWjVHkm4My-81" target="hGdy4Wsc0eGWjVHkm4My-83">
          <mxGeometry relative="1" as="geometry" />
        </mxCell>
        <mxCell id="hGdy4Wsc0eGWjVHkm4My-81" value="&lt;span&gt;CloudWatch Logs&lt;/span&gt;" style="sketch=0;outlineConnect=0;fontColor=#232F3E;gradientColor=none;fillColor=#E7157B;strokeColor=none;dashed=0;verticalLabelPosition=bottom;verticalAlign=top;align=center;html=1;fontSize=12;fontStyle=1;aspect=fixed;pointerEvents=1;shape=mxgraph.aws4.cloudwatch_logs;" vertex="1" parent="myqctyIuVr8iJMyiNVSi-3">
          <mxGeometry x="2264" y="1570.25" width="78" height="58" as="geometry" />
        </mxCell>
        <mxCell id="hGdy4Wsc0eGWjVHkm4My-101" style="edgeStyle=orthogonalEdgeStyle;rounded=0;orthogonalLoop=1;jettySize=auto;html=1;strokeWidth=2;fontStyle=1" edge="1" parent="myqctyIuVr8iJMyiNVSi-3" source="hGdy4Wsc0eGWjVHkm4My-100" target="hGdy4Wsc0eGWjVHkm4My-76">
          <mxGeometry relative="1" as="geometry" />
        </mxCell>
        <mxCell id="hGdy4Wsc0eGWjVHkm4My-100" value="Todas as APIS dos MicroServiços" style="outlineConnect=0;dashed=0;verticalLabelPosition=bottom;verticalAlign=top;align=center;html=1;shape=mxgraph.aws3.api_gateway;fillColor=#D9A741;gradientColor=none;fontStyle=1" vertex="1" parent="myqctyIuVr8iJMyiNVSi-3">
          <mxGeometry x="620" y="2623.5" width="76.5" height="93" as="geometry" />
        </mxCell>
        <mxCell id="I2cXr4Xbu_d9eAzQmwmS-205" value="lambda-envia-ses" style="outlineConnect=0;dashed=0;verticalLabelPosition=bottom;verticalAlign=top;align=center;html=1;shape=mxgraph.aws3.lambda_function;fillColor=#F58534;gradientColor=none;fontStyle=1" vertex="1" parent="myqctyIuVr8iJMyiNVSi-3">
          <mxGeometry x="914.8599999999999" y="160" width="69" height="72" as="geometry" />
        </mxCell>
        <mxCell id="hGdy4Wsc0eGWjVHkm4My-35" value="lambda-envia-sqs" style="outlineConnect=0;dashed=0;verticalLabelPosition=bottom;verticalAlign=top;align=center;html=1;shape=mxgraph.aws3.lambda_function;fillColor=#F58534;gradientColor=none;fontStyle=1" vertex="1" parent="myqctyIuVr8iJMyiNVSi-3">
          <mxGeometry x="918.6100000000001" y="302.5" width="69" height="72" as="geometry" />
        </mxCell>
        <mxCell id="X6bv7rz5pkM8iTV4C8JQ-0" style="edgeStyle=orthogonalEdgeStyle;rounded=0;orthogonalLoop=1;jettySize=auto;html=1;exitX=0.71;exitY=0.91;exitDx=0;exitDy=0;exitPerimeter=0;entryX=0;entryY=0.79;entryDx=0;entryDy=0;entryPerimeter=0;strokeWidth=2;strokeColor=#9933FF;" edge="1" parent="myqctyIuVr8iJMyiNVSi-3" source="MP5OMuKNtqwY5v9U1ztN-2" target="I2cXr4Xbu_d9eAzQmwmS-60">
          <mxGeometry relative="1" as="geometry">
            <Array as="points">
              <mxPoint x="100" y="931" />
              <mxPoint x="100" y="1082" />
            </Array>
          </mxGeometry>
        </mxCell>
        <mxCell id="hGdy4Wsc0eGWjVHkm4My-59" style="edgeStyle=orthogonalEdgeStyle;rounded=0;orthogonalLoop=1;jettySize=auto;html=1;strokeWidth=2;fontStyle=1;exitX=1;exitY=0.5;exitDx=0;exitDy=0;exitPerimeter=0;entryX=0;entryY=0.5;entryDx=0;entryDy=0;entryPerimeter=0;" edge="1" parent="myqctyIuVr8iJMyiNVSi-3" source="I2cXr4Xbu_d9eAzQmwmS-60" target="hGdy4Wsc0eGWjVHkm4My-57">
          <mxGeometry relative="1" as="geometry">
            <Array as="points">
              <mxPoint x="440" y="1056" />
              <mxPoint x="440" y="1076" />
            </Array>
          </mxGeometry>
        </mxCell>
        <mxCell id="X6bv7rz5pkM8iTV4C8JQ-3" style="edgeStyle=orthogonalEdgeStyle;rounded=0;orthogonalLoop=1;jettySize=auto;html=1;strokeWidth=2;fontStyle=1;entryX=0.145;entryY=0.855;entryDx=0;entryDy=0;entryPerimeter=0;strokeColor=#9933FF;" edge="1" parent="myqctyIuVr8iJMyiNVSi-3" source="I2cXr4Xbu_d9eAzQmwmS-60" target="hGdy4Wsc0eGWjVHkm4My-57">
          <mxGeometry relative="1" as="geometry">
            <mxPoint x="324" y="1076" as="sourcePoint" />
            <mxPoint x="589" y="1096" as="targetPoint" />
            <Array as="points">
              <mxPoint x="420" y="1080" />
              <mxPoint x="420" y="1101" />
            </Array>
          </mxGeometry>
        </mxCell>
        <mxCell id="I2cXr4Xbu_d9eAzQmwmS-286" value="&lt;span style=&quot;font-size: 29px;&quot;&gt;Parceiro de Logistica&lt;/span&gt;" style="rounded=1;whiteSpace=wrap;html=1;fillColor=#fad9d5;strokeColor=#ae4132;labelPosition=center;verticalLabelPosition=top;align=center;verticalAlign=bottom;fontStyle=1" vertex="1" parent="myqctyIuVr8iJMyiNVSi-1">
          <mxGeometry x="-1579.32" y="2140" width="360" height="230" as="geometry" />
        </mxCell>
        <mxCell id="I2cXr4Xbu_d9eAzQmwmS-266" value="" style="rounded=1;arcSize=10;dashed=0;fillColor=none;gradientColor=none;strokeWidth=2;fontStyle=1" vertex="1" parent="myqctyIuVr8iJMyiNVSi-1">
          <mxGeometry x="-1529.32" y="2190" width="260" height="160" as="geometry" />
        </mxCell>
        <mxCell id="iqRmgzaMu4S7BW8Kewet-29" value="&lt;span style=&quot;font-size: 29px;&quot;&gt;Parceiro de Pagamentos&lt;/span&gt;" style="rounded=1;whiteSpace=wrap;html=1;fillColor=#fad9d5;strokeColor=#ae4132;labelPosition=center;verticalLabelPosition=top;align=center;verticalAlign=bottom;fontStyle=1" vertex="1" parent="myqctyIuVr8iJMyiNVSi-1">
          <mxGeometry x="-1579.9799999999998" y="1820" width="360" height="230" as="geometry" />
        </mxCell>
        <mxCell id="iqRmgzaMu4S7BW8Kewet-21" style="edgeStyle=orthogonalEdgeStyle;rounded=0;orthogonalLoop=1;jettySize=auto;html=1;strokeWidth=2;strokeColor=#9933FF;entryX=0.5;entryY=1;entryDx=0;entryDy=0;fontStyle=1" edge="1" parent="myqctyIuVr8iJMyiNVSi-1" source="I2cXr4Xbu_d9eAzQmwmS-263" target="myqctyIuVr8iJMyiNVSi-74">
          <mxGeometry relative="1" as="geometry">
            <Array as="points">
              <mxPoint x="-1205" y="1920" />
            </Array>
          </mxGeometry>
        </mxCell>
        <mxCell id="I2cXr4Xbu_d9eAzQmwmS-263" value="" style="rounded=1;arcSize=10;dashed=0;fillColor=none;gradientColor=none;strokeWidth=2;fontStyle=1" vertex="1" parent="myqctyIuVr8iJMyiNVSi-1">
          <mxGeometry x="-1529.9799999999998" y="1866" width="260" height="160" as="geometry" />
        </mxCell>
        <mxCell id="myqctyIuVr8iJMyiNVSi-2" value="&lt;font style=&quot;font-size: 29px;&quot;&gt;Usuários&lt;/font&gt;" style="rounded=1;whiteSpace=wrap;html=1;fillColor=#FAD9D5;strokeColor=#AE4132;fontStyle=1;labelPosition=center;verticalLabelPosition=top;align=center;verticalAlign=bottom;fontSize=23;" vertex="1" parent="myqctyIuVr8iJMyiNVSi-1">
          <mxGeometry x="-1579.98" y="280" width="240" height="1480" as="geometry" />
        </mxCell>
        <mxCell id="I2cXr4Xbu_d9eAzQmwmS-42" style="rounded=0;orthogonalLoop=1;jettySize=auto;html=1;entryX=0.29;entryY=0.5;entryDx=0;entryDy=0;entryPerimeter=0;fontStyle=1;strokeWidth=2;exitX=1;exitY=0.5;exitDx=0;exitDy=0;" edge="1" parent="myqctyIuVr8iJMyiNVSi-1" source="myqctyIuVr8iJMyiNVSi-74" target="MP5OMuKNtqwY5v9U1ztN-2">
          <mxGeometry relative="1" as="geometry">
            <mxPoint x="-799.5550000000001" y="1136.5" as="targetPoint" />
            <mxPoint x="-1049.9999999999986" y="1128.3999999999999" as="sourcePoint" />
          </mxGeometry>
        </mxCell>
        <mxCell id="myqctyIuVr8iJMyiNVSi-80" value="Usuários Web" style="sketch=0;outlineConnect=0;fontColor=#232F3E;gradientColor=none;fillColor=#232F3D;strokeColor=none;dashed=0;verticalLabelPosition=bottom;verticalAlign=top;align=center;html=1;fontSize=12;fontStyle=1;aspect=fixed;pointerEvents=1;shape=mxgraph.aws4.user;" vertex="1" parent="myqctyIuVr8iJMyiNVSi-1">
          <mxGeometry x="-1502.8" y="1580" width="84.35" height="84.35" as="geometry" />
        </mxCell>
        <mxCell id="I2cXr4Xbu_d9eAzQmwmS-35" style="edgeStyle=orthogonalEdgeStyle;rounded=0;orthogonalLoop=1;jettySize=auto;html=1;strokeWidth=2;strokeColor=#009900;fontStyle=1;entryX=0;entryY=0.25;entryDx=0;entryDy=0;" edge="1" parent="myqctyIuVr8iJMyiNVSi-1" source="I2cXr4Xbu_d9eAzQmwmS-32" target="myqctyIuVr8iJMyiNVSi-74">
          <mxGeometry relative="1" as="geometry">
            <Array as="points">
              <mxPoint x="-1460" y="1120" />
            </Array>
            <mxPoint x="-1254.1688247822367" y="799.9730027003457" as="targetPoint" />
          </mxGeometry>
        </mxCell>
        <mxCell id="I2cXr4Xbu_d9eAzQmwmS-32" value="" style="outlineConnect=0;dashed=0;verticalLabelPosition=bottom;verticalAlign=top;align=center;html=1;shape=mxgraph.aws3.mobile_client;fillColor=#D2D3D3;gradientColor=none;fontStyle=1" vertex="1" parent="myqctyIuVr8iJMyiNVSi-1">
          <mxGeometry x="-1490.1" y="567" width="60.25" height="93" as="geometry" />
        </mxCell>
        <mxCell id="hGdy4Wsc0eGWjVHkm4My-112" style="edgeStyle=orthogonalEdgeStyle;rounded=0;orthogonalLoop=1;jettySize=auto;html=1;strokeWidth=2;strokeColor=#3399FF;" edge="1" parent="myqctyIuVr8iJMyiNVSi-1" source="I2cXr4Xbu_d9eAzQmwmS-36">
          <mxGeometry relative="1" as="geometry">
            <mxPoint x="-1580" y="2620" as="targetPoint" />
            <Array as="points">
              <mxPoint x="-1680" y="1455" />
              <mxPoint x="-1680" y="2620" />
            </Array>
          </mxGeometry>
        </mxCell>
        <mxCell id="I2cXr4Xbu_d9eAzQmwmS-36" value="" style="verticalLabelPosition=bottom;html=1;verticalAlign=top;align=center;strokeColor=none;fillColor=#00BEF2;shape=mxgraph.azure.laptop;pointerEvents=1;fontStyle=1" vertex="1" parent="myqctyIuVr8iJMyiNVSi-1">
          <mxGeometry x="-1522.8000000000002" y="1420" width="125.65" height="70" as="geometry" />
        </mxCell>
        <mxCell id="I2cXr4Xbu_d9eAzQmwmS-37" style="edgeStyle=orthogonalEdgeStyle;rounded=0;orthogonalLoop=1;jettySize=auto;html=1;entryX=0.5;entryY=1;entryDx=0;entryDy=0;entryPerimeter=0;strokeWidth=2;strokeColor=#000099;fontStyle=1" edge="1" parent="myqctyIuVr8iJMyiNVSi-1" source="myqctyIuVr8iJMyiNVSi-80" target="I2cXr4Xbu_d9eAzQmwmS-36">
          <mxGeometry relative="1" as="geometry" />
        </mxCell>
        <mxCell id="I2cXr4Xbu_d9eAzQmwmS-41" style="edgeStyle=orthogonalEdgeStyle;rounded=0;orthogonalLoop=1;jettySize=auto;html=1;strokeColor=#009900;strokeWidth=2;fontStyle=1" edge="1" parent="myqctyIuVr8iJMyiNVSi-1" source="I2cXr4Xbu_d9eAzQmwmS-39" target="I2cXr4Xbu_d9eAzQmwmS-32">
          <mxGeometry relative="1" as="geometry" />
        </mxCell>
        <mxCell id="I2cXr4Xbu_d9eAzQmwmS-39" value="Usuários Mobile" style="sketch=0;outlineConnect=0;fontColor=#232F3E;gradientColor=none;fillColor=#232F3D;strokeColor=none;dashed=0;verticalLabelPosition=bottom;verticalAlign=top;align=center;html=1;fontSize=12;fontStyle=1;aspect=fixed;pointerEvents=1;shape=mxgraph.aws4.user;" vertex="1" parent="myqctyIuVr8iJMyiNVSi-1">
          <mxGeometry x="-1502.1499999999999" y="320" width="84.35" height="84.35" as="geometry" />
        </mxCell>
        <mxCell id="I2cXr4Xbu_d9eAzQmwmS-189" value="API Parceiro de pagamentos" style="outlineConnect=0;dashed=0;verticalLabelPosition=bottom;verticalAlign=top;align=center;html=1;shape=mxgraph.aws3.api_gateway;fillColor=#D9A741;gradientColor=none;fontStyle=1" vertex="1" parent="myqctyIuVr8iJMyiNVSi-1">
          <mxGeometry x="-1438.2299999999998" y="1886" width="76.5" height="93" as="geometry" />
        </mxCell>
        <mxCell id="I2cXr4Xbu_d9eAzQmwmS-264" value="" style="dashed=0;html=1;shape=mxgraph.aws3.corporate_data_center;fillColor=#7D7C7C;gradientColor=none;dashed=0;fontStyle=1" vertex="1" parent="myqctyIuVr8iJMyiNVSi-1">
          <mxGeometry x="-1509.9799999999998" y="1844" width="30" height="42" as="geometry" />
        </mxCell>
        <mxCell id="iqRmgzaMu4S7BW8Kewet-20" style="edgeStyle=orthogonalEdgeStyle;rounded=0;orthogonalLoop=1;jettySize=auto;html=1;entryX=0.5;entryY=1;entryDx=0;entryDy=0;strokeWidth=2;strokeColor=#9933FF;fontStyle=1" edge="1" parent="myqctyIuVr8iJMyiNVSi-1" source="I2cXr4Xbu_d9eAzQmwmS-266" target="myqctyIuVr8iJMyiNVSi-74">
          <mxGeometry relative="1" as="geometry">
            <Array as="points">
              <mxPoint x="-1205" y="2240" />
            </Array>
          </mxGeometry>
        </mxCell>
        <mxCell id="I2cXr4Xbu_d9eAzQmwmS-267" value="API Parceiro Logistica" style="outlineConnect=0;dashed=0;verticalLabelPosition=bottom;verticalAlign=top;align=center;html=1;shape=mxgraph.aws3.api_gateway;fillColor=#D9A741;gradientColor=none;fontStyle=1" vertex="1" parent="myqctyIuVr8iJMyiNVSi-1">
          <mxGeometry x="-1437.57" y="2223.5" width="76.5" height="93" as="geometry" />
        </mxCell>
        <mxCell id="I2cXr4Xbu_d9eAzQmwmS-268" value="" style="dashed=0;html=1;shape=mxgraph.aws3.corporate_data_center;fillColor=#7D7C7C;gradientColor=none;dashed=0;fontStyle=1" vertex="1" parent="myqctyIuVr8iJMyiNVSi-1">
          <mxGeometry x="-1509.32" y="2190" width="30" height="42" as="geometry" />
        </mxCell>
        <mxCell id="I2cXr4Xbu_d9eAzQmwmS-287" value="&lt;span style=&quot;font-size: 29px;&quot;&gt;Administradores&lt;/span&gt;" style="rounded=1;whiteSpace=wrap;html=1;fillColor=#fad9d5;strokeColor=#ae4132;labelPosition=center;verticalLabelPosition=top;align=center;verticalAlign=bottom;fontStyle=1" vertex="1" parent="myqctyIuVr8iJMyiNVSi-1">
          <mxGeometry x="-1300" y="280" width="240" height="300" as="geometry" />
        </mxCell>
        <mxCell id="iqRmgzaMu4S7BW8Kewet-18" style="edgeStyle=orthogonalEdgeStyle;rounded=0;orthogonalLoop=1;jettySize=auto;html=1;entryX=0.5;entryY=0;entryDx=0;entryDy=0;strokeWidth=2;fontStyle=1" edge="1" parent="myqctyIuVr8iJMyiNVSi-1" source="I2cXr4Xbu_d9eAzQmwmS-288" target="myqctyIuVr8iJMyiNVSi-74">
          <mxGeometry relative="1" as="geometry">
            <mxPoint x="-1240.0900000000001" y="850.2192999999993" as="targetPoint" />
            <Array as="points">
              <mxPoint x="-1180" y="940" />
              <mxPoint x="-1205" y="940" />
            </Array>
          </mxGeometry>
        </mxCell>
        <mxCell id="I2cXr4Xbu_d9eAzQmwmS-288" value="" style="verticalLabelPosition=bottom;html=1;verticalAlign=top;align=center;strokeColor=none;fillColor=#00BEF2;shape=mxgraph.azure.laptop;pointerEvents=1;fontStyle=1" vertex="1" parent="myqctyIuVr8iJMyiNVSi-1">
          <mxGeometry x="-1242.8200000000002" y="460" width="125.65" height="70" as="geometry" />
        </mxCell>
        <mxCell id="iqRmgzaMu4S7BW8Kewet-0" style="edgeStyle=none;curved=1;rounded=0;orthogonalLoop=1;jettySize=auto;html=1;fontSize=12;startSize=8;endSize=8;strokeWidth=2;fontStyle=1" edge="1" parent="myqctyIuVr8iJMyiNVSi-1" source="I2cXr4Xbu_d9eAzQmwmS-290" target="I2cXr4Xbu_d9eAzQmwmS-288">
          <mxGeometry relative="1" as="geometry" />
        </mxCell>
        <mxCell id="I2cXr4Xbu_d9eAzQmwmS-290" value="Admins" style="sketch=0;outlineConnect=0;fontColor=#232F3E;gradientColor=none;fillColor=#232F3D;strokeColor=none;dashed=0;verticalLabelPosition=bottom;verticalAlign=top;align=center;html=1;fontSize=12;fontStyle=1;aspect=fixed;pointerEvents=1;shape=mxgraph.aws4.user;" vertex="1" parent="myqctyIuVr8iJMyiNVSi-1">
          <mxGeometry x="-1219.9799999999996" y="320" width="84.35" height="84.35" as="geometry" />
        </mxCell>
        <mxCell id="hGdy4Wsc0eGWjVHkm4My-51" style="edgeStyle=orthogonalEdgeStyle;rounded=0;orthogonalLoop=1;jettySize=auto;html=1;strokeWidth=2;strokeColor=#00CC66;entryX=0.65;entryY=0.5;entryDx=0;entryDy=0;entryPerimeter=0;fontStyle=1" edge="1" parent="myqctyIuVr8iJMyiNVSi-1" source="myqctyIuVr8iJMyiNVSi-74" target="I2cXr4Xbu_d9eAzQmwmS-189">
          <mxGeometry relative="1" as="geometry">
            <Array as="points">
              <mxPoint x="-1180" y="1933" />
            </Array>
          </mxGeometry>
        </mxCell>
        <mxCell id="myqctyIuVr8iJMyiNVSi-74" value="" style="image;aspect=fixed;perimeter=ellipsePerimeter;html=1;align=center;shadow=0;dashed=0;spacingTop=3;image=img/lib/active_directory/internet_cloud.svg;fontStyle=1" vertex="1" parent="myqctyIuVr8iJMyiNVSi-1">
          <mxGeometry x="-1260" y="1100.85" width="110" height="69.3" as="geometry" />
        </mxCell>
        <mxCell id="I2cXr4Xbu_d9eAzQmwmS-38" style="edgeStyle=orthogonalEdgeStyle;rounded=0;orthogonalLoop=1;jettySize=auto;html=1;strokeWidth=2;strokeColor=#000099;fontStyle=1;entryX=0;entryY=0.75;entryDx=0;entryDy=0;" edge="1" parent="myqctyIuVr8iJMyiNVSi-1" source="I2cXr4Xbu_d9eAzQmwmS-36" target="myqctyIuVr8iJMyiNVSi-74">
          <mxGeometry relative="1" as="geometry">
            <Array as="points">
              <mxPoint x="-1460" y="1151" />
            </Array>
            <mxPoint x="-1254.1688247822367" y="831.0269972996543" as="targetPoint" />
          </mxGeometry>
        </mxCell>
        <mxCell id="iqRmgzaMu4S7BW8Kewet-30" style="edgeStyle=orthogonalEdgeStyle;rounded=0;orthogonalLoop=1;jettySize=auto;html=1;exitX=0.5;exitY=1;exitDx=0;exitDy=0;exitPerimeter=0;entryX=0.75;entryY=0;entryDx=0;entryDy=0;strokeWidth=2;strokeColor=#00CC66;fontStyle=1" edge="1" parent="myqctyIuVr8iJMyiNVSi-1" source="I2cXr4Xbu_d9eAzQmwmS-183" target="myqctyIuVr8iJMyiNVSi-74">
          <mxGeometry relative="1" as="geometry">
            <Array as="points">
              <mxPoint x="66" y="1720" />
              <mxPoint x="-880" y="1720" />
              <mxPoint x="-880" y="1000" />
              <mxPoint x="-1181" y="1000" />
            </Array>
          </mxGeometry>
        </mxCell>
        <mxCell id="OnFxQIrHqDfEWK6bsaLl-1" value="&lt;span style=&quot;border-color: var(--border-color);&quot;&gt;Envia para API Pagamentos Parceiro&lt;/span&gt;" style="edgeLabel;html=1;align=center;verticalAlign=middle;resizable=0;points=[];fontStyle=1" connectable="0" vertex="1" parent="iqRmgzaMu4S7BW8Kewet-30">
          <mxGeometry x="-0.9637" y="2" relative="1" as="geometry">
            <mxPoint x="-110" y="29" as="offset" />
          </mxGeometry>
        </mxCell>
        <mxCell id="OnFxQIrHqDfEWK6bsaLl-3" style="edgeStyle=orthogonalEdgeStyle;rounded=0;orthogonalLoop=1;jettySize=auto;html=1;strokeWidth=2;strokeColor=#9933FF;fontStyle=1" edge="1" parent="myqctyIuVr8iJMyiNVSi-1" source="myqctyIuVr8iJMyiNVSi-74">
          <mxGeometry relative="1" as="geometry">
            <mxPoint x="-1040" y="1160" as="targetPoint" />
            <Array as="points">
              <mxPoint x="-1040" y="1160" />
            </Array>
          </mxGeometry>
        </mxCell>
        <mxCell id="iqRmgzaMu4S7BW8Kewet-19" style="edgeStyle=orthogonalEdgeStyle;rounded=0;orthogonalLoop=1;jettySize=auto;html=1;strokeWidth=2;strokeColor=#00CC66;exitX=0.5;exitY=1;exitDx=0;exitDy=0;exitPerimeter=0;entryX=0.75;entryY=0;entryDx=0;entryDy=0;fontStyle=1" edge="1" parent="myqctyIuVr8iJMyiNVSi-1" source="I2cXr4Xbu_d9eAzQmwmS-99" target="myqctyIuVr8iJMyiNVSi-74">
          <mxGeometry relative="1" as="geometry">
            <mxPoint x="99" y="2380" as="sourcePoint" />
            <Array as="points">
              <mxPoint x="135" y="2500" />
              <mxPoint x="-880" y="2500" />
              <mxPoint x="-880" y="1000" />
              <mxPoint x="-1181" y="1000" />
            </Array>
          </mxGeometry>
        </mxCell>
        <mxCell id="hGdy4Wsc0eGWjVHkm4My-53" value="&lt;span&gt;Envia para API Logistica Parceiro&lt;/span&gt;" style="edgeLabel;html=1;align=center;verticalAlign=middle;resizable=0;points=[];fontStyle=1" connectable="0" vertex="1" parent="iqRmgzaMu4S7BW8Kewet-19">
          <mxGeometry x="-0.7424" y="-1" relative="1" as="geometry">
            <mxPoint x="-272" y="1" as="offset" />
          </mxGeometry>
        </mxCell>
        <mxCell id="hGdy4Wsc0eGWjVHkm4My-50" value="&lt;span&gt;Customer&lt;br&gt;Gateway&lt;/span&gt;" style="outlineConnect=0;dashed=0;verticalLabelPosition=bottom;verticalAlign=top;align=center;html=1;shape=mxgraph.aws3.customer_gateway;fillColor=#F58534;gradientColor=none;fontStyle=1" vertex="1" parent="myqctyIuVr8iJMyiNVSi-1">
          <mxGeometry x="-1308.34" y="1907" width="69" height="72" as="geometry" />
        </mxCell>
        <mxCell id="hGdy4Wsc0eGWjVHkm4My-52" style="edgeStyle=orthogonalEdgeStyle;rounded=0;orthogonalLoop=1;jettySize=auto;html=1;strokeWidth=2;strokeColor=#00CC66;entryX=0.65;entryY=0.5;entryDx=0;entryDy=0;entryPerimeter=0;exitX=0.75;exitY=1;exitDx=0;exitDy=0;fontStyle=1" edge="1" parent="myqctyIuVr8iJMyiNVSi-1" source="myqctyIuVr8iJMyiNVSi-74" target="I2cXr4Xbu_d9eAzQmwmS-267">
          <mxGeometry relative="1" as="geometry">
            <mxPoint x="-1160" y="1186" as="sourcePoint" />
            <mxPoint x="-1342" y="2353" as="targetPoint" />
            <Array as="points">
              <mxPoint x="-1180" y="2270" />
            </Array>
          </mxGeometry>
        </mxCell>
        <mxCell id="hGdy4Wsc0eGWjVHkm4My-49" value="&lt;span&gt;Customer&lt;br&gt;Gateway&lt;/span&gt;" style="outlineConnect=0;dashed=0;verticalLabelPosition=bottom;verticalAlign=top;align=center;html=1;shape=mxgraph.aws3.customer_gateway;fillColor=#F58534;gradientColor=none;fontStyle=1" vertex="1" parent="myqctyIuVr8iJMyiNVSi-1">
          <mxGeometry x="-1308.34" y="2219" width="69" height="72" as="geometry" />
        </mxCell>
        <mxCell id="hGdy4Wsc0eGWjVHkm4My-110" value="" style="shape=image;verticalLabelPosition=bottom;labelBackgroundColor=default;verticalAlign=top;aspect=fixed;imageAspect=0;image=data:image/png,iVBORw0KGgoAAAANSUhEUgAAANkAAAB+CAYAAACpp7QgAAAgAElEQVR4Ae19BXQU19v+7/t/7lKhXorV3b2lFAotLqUtTpGiLV6geHFN8CAJSUjwECAEjSAJhABxF+Kuuzuz+vzPc5dJNiGebEjKzjn3zMrMnTt33mdef+/fYNtsM2CbAavOwN+s2rutc9sM2GYANpDZiMA2A1aeARvIrDzBtu5tM2ADWYugARNg1AN6CSadpuU2vQYwyIDJAMDUImauNQzCBrL7/ZSMBhhLs6BP8IYucC20l5ZCe2lJC21LobuxGYbUqzBJxYDJBrS6kI8NZHWZJWsdYzLCmB8L7cXZkBzehmZTO2g2Pteym31HyPu+gC5oM0zqXBvQ6kAbNpDVYZKsc4gJJk2eIFZp60vQrH0GmjVPt4627llI+zpDH3VYiLbWmZ+/Tq82kN2vZ2kywJgTBvnoD60LYMqLwP4laC/OgUmVdb9msNVc1way+/WojDoYUq5Acu3eOriXAi5lv7EDtF6/wFiYeL9msNVc1way+/WoDDoY7vhDcv269YLs1HgYCxLu1wy2muvaQHa/HtVfBmTx92sGW811bSC7X4/KBrL7NfPNfl0byJp9yu9e0BogW/csNBvaQWP3AjRbXoW09Q1IW16FZtPz0Kx/rmkNLNTJhLho42S1kZANZLXNkLX+b0qQEVz2L0By6gz52BBoz82A1n8JdFdWQue/BFrvqZDd+0La9qYZbIrxojF7G8jqTBk2kNV5qpr4wKYC2YbnIDl/DZ3PfBiij8KQeRPGkjThKDZp8mFS5cJYmARDkg90V1ZApjVzY4fGG1tsIKszQdhAVuepauIDmwJk69tCdu8FffRhmFTZd2MKqxmnySB8WvpwF8hu35nFShsnq2aymvZnG8iadj7r3ltjQbb2GcHB9NHHAJ2q/LpGPUxyMQQXk4sBg678P5NRgFF/ywHS3s8ap6PZOFn5vNbyyQayWibIan83FmR2HaANXA+TVFA+RIMMY3aoCNXSXf4TuhtbYUi/Bujl8mMYL5kXLYwWmk2NEBttICuf01o+2UBWywRZ7e9GgewZSLvfhyE1wJwiw0GaTDAWJkN7cS6kHe9As/llSDvfg9b7VxiyQwEj01PMG4HJiH9p+5sN181sIFOms9b9XxZkzMIwGI2QtXqUqrQoLNIgr0CNnDwVsvNKkZNXitx8FfILNSgukaGRdNAbjDA1V/pGY0BGUXHPx9DHnhJGDepjNHDooz3F72XBxjxu90fQ3dolREiFGkx6CfrQfZB2fQzNmgYGJttApkxnrfu/HMgIrFK1FqnpRQgKScPJ81FwPBCMjQ6X8efGC1iw6gzmLvfG/JXeWLL2PNZs9cMO52s4dDIMfoGJiEnMRWGxBJ3eYF3ANQZkNFhs6gTJ9TtoPYZD6z0ZWp95kA8Pqmg5pGl/22viP2NJahkxmAxa6CMPQNrzmQ1kZbNivQ9/CZCR+ZBjZWaX4NqtFLh53MZKex/8+ocnRv92CD/+4oYBo53RZ7gTeg7Zi29/2oPvhuxB72GO6DdqH74f54rhkw9g/KyjmL/yDBxcruGcfxwSkvMFYI1GU9PnJzYWZASacD4/B82mjkI81Nh1gmTfSYiS8oE+kL0mQOu/FPrY48IQUkZGRp2wSEp7v7CBrGxSrPeh1YPMYDAiO7cUF6/EY/0Of0ya64GfJrgJ8PQcuhffDWHbI4BFcFXXeAyPJRC/H+uC0dMOYcGaszjgGYKYxDxoJH3TAq0pQKaY4Okr2/UeZM+R0AWshSHxjDCAmIpTYFLnwKQtrWjeN+ptILMepu7pudWCjNyrRCULkXCjwxVMmH0UA392BoFVHZDq87sA3AgnweEWrjkHz7ORglNSjGySrSlAtq4tpF3vQHtxHvRxp2DMi4FJU2Cuw2HUAQYtTDq1ObHSwvDBeiL0rdk4WZM8yVo7aZUgMxhMyMopxYETIfhtwQkMakJwVQYiwdZvpBN+nnYIG3ddRnBYOiRZ3/gyMo0F2bpnzY7oyEMwlmbcLXBjBOgLkwphzLwFXcg+6K6uhj7ECcaiO+XFb2wgqxUYTXlAqwMZxcP45Hys334JQye6odcwx3pxLoqFPGfAz8748Zf9GDb5AEZOPXhPGzbZHf1G7ivrmxxy0BgXYTShaFpUIjUOaI0BGdP/HT+HPuEcQFFQGYnRCFNxOnRX10By7QbN1tcgbXkFWo8RMGbcFAAUxGMDWVNiqNa+WhXIaGKPiM3GkvXnBQC+q0HHqooj9R+5DxPmHMOarb6CC/oGJOJWeAbCY7IRGZdT1iJic3AlKBkzF5+qIH4SoH1HOmHyXA+cOBeJomKp4XpaI0Am2XWE7spqQCq0eMAm8V0fvBPStlfNRhHqbOufg/bYUKGjlQ3WBjKLebP+x1YDMupCYdFZmLXUC32G14970aI4aupBbHUMQHhMltDl2J/ZakjLYcXG3zNzSrFozbkKIFOAS65GS6SHd4TwszWoMFpjQLbnQ+iTfcsd0aQTRnLkRpvN+OssfF+bOkF7ehKMhRYZzARZzFFIjl80PLTK5ierMzpbBchI9NHxuVi07hx6DaufYYPcZ8hEN+w7dBOZOSUCWLXNDo0qWbmqakFGsFHknDD7GM74xAhnd72d2I0AGc3zhuzwcvHvLsgMmbchuXSuEMUhbX9LWBxN6vzy2zYaoE88C8mluw1k5bNitU8tHmQEWGpGEVbY+Qg9SuEmdd1T91qzzQ9xSXl1Apig1zqATAHajEUn4ReQCJVaW7+H1BiQHR4s4g/Jvco2UcMxBvIRpfrVM9BsaA/54EAY7lyCqVKgsDE3EtqTY8w+NsUVUJ+9jZOVTX1tH1o8yPIL1XA+EiyMFPXRwQgCcrEx0w/j5LkowW1qmwyKfaKZTMjKrV5ctAQ4ndnLNl5AVFyOCMuq7Rpl/zcGZG49YcgKrcjJwDqO+dBd3wJp57siK5opLfoQR5jkkrLLKh9M2hLogrdB2vlBw7iZDWTKVNa6b9Eg0+oMOOsXi/GzjtRbTCQQeg51xO9/nkZIZCYMxuo1J/6nkfUoLpVFo+WQ0R4MvaIJ3xJUVX2mldLx4I06i6N8Kga9Dpokf6ic61+titWG6ReDsRL3pPmeJb+jjkEXtl8kcDLtBfSZifr1FvRgMsKQcQPykcENyy2zgcxiMmv+2GJBZjSZkJJeiOWbLqL/qHJTelVEXt1vfUY4YZW9L5JTC8oMa5WnQ6s1IDYxF2f8YnHwRCjcPUJEWNau/dcxdsaROoGs19C9mPqHJ/wCEqDWWORvVb4YAGK9RDYhJlPGZX8f3NneAJAxzcX3D5joH7MUGXk9Au3uwhUEl/CZZYfBmBcrFrQQQ+Ix6jzoIw6bM6VZ/6M+oiKP3dgB6hPjoM2LVxwIVdyt7SfOQIsFGYN8j54Ox4ipB+tE6FUBjX4u+91XhOO6Kj5GA0dKetFdIJujRci5ylv1YViVr0exkWFdd9IKq9X9tAbgTqEJh2/pMGV/CcavOYuA1RUNFXUidkbXO7xjFgVLMyuksZSRtdEgyoDrYz0hnxgN7fk5MGQEixArU0ka9Lf3QnbtUc7FlCI8LE3AYjy1lA0vWd8BCfvHIjQqDvlqEwwW6mHZGGwfxAy0SJDR2BGTkIulGy6IGMTKBF3X7+SANNvn5FtkDls8eHLLG6FpmDjnWIOBrIyF+t/4mUfhezVRpM1YXEZwryLJhEsJBiz3kjFgixo/bi6CvfN5JG7rUjMXIbGvb1vu91I4Dh3STl+YYxXTA0UlX4KHjVV9jenXoQveDvnQAGjsOoBWRu2ZX6GPOABd4HrIzl2g2cgFLtpD2vEuZPfe0J742RzRf+JnSHs/v/eayrXXPI38Ne3htXE05u6LgOMVLSIzjaDthy8u21ZxBlokyBi2dPxMBEb9dqhRxE+QbdsXgNyCakBmNOFqcHKdxUIFUNXtyc22OQUgg66Cu9RmMJm5l/M1HX7aoca361SYeVCCZ4gGudH+0Lh0rRlkW16FvP9bUYmKFak0a58tP54cjVH3br2g9Z4iiulofedDe2Yq5IP9oNn6SjlQCFamxzi8C83Wu85q1ghx/Qa6axtgSL0CIwOKNXkCqASiZlP78mtZAIzctmhde/hu/RkTt4SjzwYV5hyWcCFGL7haDepvRep7QL61SJAxqn7tNn/0H90wXUwBQZ1AdqPpQEYn9YzFJ3E7IgNavQEqLRCcasQqbxk9N6owfKcGW3y1iM42Qi1ray/TTRA5fg7d9U3Qh+wTpd5k5+6QNr9i5m6KSMf9hnaQ7DsK0AkOpfxXCRwVxNGN7SGfGAt9jAcMKf4w3PEDI/eh00B3ay8ku+rLE6g3dED24XG4eD0Gi47L+H6rGuOcNNh/XYekfBMoGjfpxpdWK2WTLQ5kDP4NicrEtIUnynK/FNDUtqfIRicxDR5sg8e5YqfLNZERXdUDJ7cJvHlHhFoxXEo5T+yHO1YZ7VHbGH4cvx/Hz0Yio0DGmUg9JrlI6LFejWluGpyP1aNQYzIbCupqwt/6qhDzWNLNmBMOQ4wntBfnQ3LvBYkciaJkXQBVGWw8x64DZPee0PovgvbqKmhPT4Ah3luUk9P6L4ZmQw0GkY0dIJ8cDyk3Hgl5Ruy5qsOIXWoM2qLG2rMywjONkPVVzXo9f2M0jloNY16eaKaiIvHdpNUCRgZEt3z5tMWBjKKi18VokWxZG0FX/p+O5+mLTmL1Zl+R8cxs6POX4kUYVVWPls8nLjEPtCSu3eYnzmGmNBvjI4dMdK/VfF95DL2HO2H51stwuFiIUbvU6LORRKdFWIYBsuXbva4gY4jUttfMHCf6GEyFyWKRB0PiOREILB8fZa48tfmlmqsEE1QEJBM7d7wNyeUbaE+Ng+7aRhgSzkAfdQTy6V8EN6OjWj46uGbwWpjwKRJnl5pwKlyPaW4SBtqrsdhTQtAdA9T0HlQ1+Xd/Y6SMrDOgsFRCfrHmXl+jVgtDaBi0O3ZAXrEM2g1rod27G7oTntDfCIIx+Q5MpaWAwdBiAdfiQFZQpBFETy5UmYBr+k6LIHU49+MhiE/OE1Y+Wg7zi6p4cBYPXS3pkJ5VLI6nZZAtObVQZFjTLF/TNav6j+MY/NsJ9F6ZhkFbVXC4pEVqkUkYPywuK0q11XlVl7UsN9BRpLbogrYIjkZnMs3wTGnRh++H7tIyyB4jRJk4yeE9USRH2v4GpJ1vQ9r9ISSXbpCPDYX2/GywD33sSRizw2AqToWBaTGB68R6Y6xkJep/7HirWn1MiJwWION9EUg0fAQkGTDvqIR+dmrMPiLhcqJZbK4MNEoRKo0OyRmF8AlOhtOpEDifDkFsSn5Fn6ZeD0NkFKTFi6H+/AOo334B6k/ehrrHV9CM/BHy3NnQurrAcP06jHm5MOmI6spXqzDzzf6lxYEsLbMYKzf7iGj3qoi4ut+oD42deQRn/GNFKQI+RLba5puPg29T5XjumU7DWh9T5h+vN8g4vh6jDmDUpiQcuqkVb3i+6e/Z6srJLMU8ZkA7fAjt6YnQxxyDqSTD7PvSqWAqzYQxKwSGpHPQR7hBd2sPdDd3Qx/qbK4snHRBAJLVhJnYyWxpY1Gy4GBar4mQ9n4Cmf1GuJstkrX5ziqBjPfH25R0QEi6EavPaDFwixqT92sE0Czdh+RciRlFOOoThWW7/TFq8XH0nu6OQb8fwtbDQUjLLTcciX5lGfrgm9BMmQDVm52gfuEJc3vxaahf7wB1l48hDR0Eed1q6H19QJFSiJL3TPr9+aFFgUyIb0l5+GPVmXrniSkgO3spFowUacxGvZApMONmHmkQyPqOdsGu47HILamhZEFDQKYAzq4TZNdu0PktgiH+NFgkhxnQzHgWTacRoVQMpzJp1SJD2vyfrgxcPE/rt8C8CKHd88IKycpWtDZKdp1q5mIcRxUgU+ZcbwTico1CTO69UYVphzS4mmyAWmsUIuGZwHgs33sJP8w7gi4T9uHj0Xvw0ajd+GzMXgxbeAweftEoqRQLatJoIB89guLvvkLpC09C/fzjFRt/++A1aL7vA+2WLTCEhcEkyy2Cq7UwkJkQFp2JOcu87ivI9HojLl1LwvApBxoEMlo1D54ME0V4FMK7Z98YkJHI6Sfjyi0u3aA9+5vwiQnjCEsQlGYJUZLiJMvF0TTPoqc0auiCt5pN/C7dzSu+WHIsOqTrakipAWS8VwItNteIdedk9LVTYYqbGt43c7DjWDCGLzqGrpOc8cnPe/DxqN0CYAQZPxN0v285j4jEnIpio8kEXWIiCmZNR/6bnVDa6bGKIFNA99LTUH/yDqTxo6HzPm3marWJM/c8nKb9oUWBjE7om2FpwgzOUKXqRMOqfm9KTqbV6uF1IQo/jK+fXqiMq+8IJxHLyFjIarfGgkzhagSG3fOikKm8v4d5VZfTE6E9P0voX3RAa0+MhnxkEGSXbuI4sbTSura1cyvlGlXtawEZ75tAozl/8Qk1uv2ZjKF/XkSv6e749Gcz5yKwKrePR+/GwDkHcehChNDZLOfPqFKh0NERqZ+/j5yOj6G0UyVupgDt+Segfq0dNP2+hXaXA4w52fdVfGxhIDMiKCQV0xedqLf5XDF8sO5HYkoBUjOKQf2usEgSOpblw7L8zCpUWTkl4niew8a0GAfXa6KMnAKc+uxZ8WqnSyAKizWWl6r4ualApgCA1kPBidqZ01fsXoTG/kXz2mQb2pstj/y/IeZ+5RqW+zqAjDdMx/T50DwMXuqDz8a5lImGlcFl+f3rifuw3PESUnNKKlom9XqoL1/GnT7dkdihDXI7tqmeoxFwLz0DTdfPIG+xgzE9/b4BrYWBzCRANq0BICMI6Ov6efph4WOjKZ8R+Me8wkWZgIoUbv5GgwfF01X2PmBeGM+ZvvCkKM5DUZHcsT7gUo5l5vYO52YGmSUAmuNzHUHGmQ6Jz8aY5Sfx6c977+FcluBSPlM3m7zmNIKjK2VPsCJ0VBTu/DQA0e3bIKHdw8ipBWiql55G8VcfonTjOhgyGefZ/EGWLQ5kwWFpgtgbSuDkaDyXjSXitjsHVh9WZTIhIDhZxBzSia2cxz37UUBT3z2d2Xvcg0SxnarALX5rak7WHMCyvEY9QEaz/KQ1Xvh0TN1A9snoPfhp/lF4XYmraMQyGqGNi0Pq0EGIat8GUW0fEkDL69gGqipER9Xzj6GwUxtkvfAEsr76GKW7d8NIy2Mzby0LZCYTQqMyMHupF3oNrV8dj6qA0NxhVcoYhOHjRAhK1c2gk1kSfnN+LgOZRe2Qaog3M68UC3b64MtxTnXiZNTL+s5wh8vpUKg05TlzJqMRUkwM7gwZKEAW2fYhAbTEdg8L0VFlYQzhZwIss2MbpLZ/BGnPP4ns3t2hOXkSJqmG51LNPTTm5xYFMopv0Qm5mLfCu97WRYXALff3C2SDxjjjrF+cqM9Y7cMx6mBIuWwu3dac4GiqaxFkXr+IiP9q7/HuHzTHbzsShK4TnesGslG78e1UV2w/egOFJVJZ9yaDAergm0ge2BtR7R4FQSaA9txDiG/3MPI7Pgoz0O4CrMMjAmAEmQDay88ib8xIaEO4yk3ziY0tDGTm/C4uDEGRyxIwDfl8P0DG+Mlhk9xxMyz93hChMnKh59YAY24EZI+hTWeMaCoA1aWfzS+DEf9ihU/L+6ris05vhN+tZPSd6Q5yKUX3qmn/zWQX2B24hryicuORUZJQePAA4r/8EJHPPVwGMgVsBFpux0cFB8vo8GgFgAmgdXgUGe++jOIVy2DI5sqkVUUJVHEDjfypRYGM98LljZguMmisS6sEGfW5KfM9EZtYW+Ee1uQogO7GNkhbX25dQKOPzvlrc9SJvpzT8PlRGqlMu4yiycpXYdJqL3w+tna9jP6yHlNdse1wEAqKy/vXZ2cha8lCxLzR6R6ARbR9CGyRz5n1tDt3uZfCxcr2HR9Ddr9vIfv4APqmiGCuHYEtDmRcJ4xR7MyIbgj3sjznfnCy3sMdsXa7HzKyS2pfeokEWXQH2svLITl+Bs3mF4XPi36vFtmYz7b1VcgHeon4RlE/xAJROoMJGfka5BXLFR3J9JkZjDjiE4k+M9xq5WTkdv1nHcSBc+FgbKkAr06HYu/TSOzZFRHt2yC07UO4+dxDCGj3MC62fxjeHR7B0U5t4NypDdw6PYpznR7F9U6PIqxTG8R1eATJ7R9Byl3gZbz1PIqXLzFbGy3GXztcGnZEiwOZVm+ET1Aqxs7yaJUgYynvQydDxcKCdXokXOO5NBN6RtUH2UMXsBq6q6taZgtYA91tB7FErkkuqiBuUfDKLZZx5FIyzgSlo7BUW4GjkZaTs4qEAaQ2bkYT/vgVJ3ElJAWMvmHQryY2GomzpyHgzY7wfL4NHF55HAvfexrjO7dD7x6d8NWAl/DR0Nfx7og38MGw1/Hl96+gX9+XMOXb57H+47Y4+saTuPZiG8R0fBR3Oj2OnB/6Qfb3NwcU1+lBNfygFgUyPqiMYhM2eReg77Tz6DGkcXpZc3Mymv2nzDuO4NB0UA+p/8bERPOiES13X7UeI6J14vIwe+cNzNgWhICIHEiVMje5QCPDpcYu80TncY4VQqoU/YzRILQs0uiRXaCCXqdDXkIMLq9dhA093sGobzoJMHWc9D6enfERnp31cbWt7dxP0W5JZ3Ra1hlvzvkU3w95HRs+aQvfV55A4gevoWSzHYyFlqXO6//E6nJGiwEZHx0ziVlkZvCWYvT6/Qb6jHGv09piliKi5efmBhmd4Rt2XhLFWEl0D9KmkQ04fiUFw1f4o/e8C1juEoLb8QVQcwUcC5FM1ulxMSgR0zeeRa9pbvjqFyd8NnYvPh/niG6TnDHkjyPY6BaIqOQclGhUiE6OgsP+DRj8aw+8Pu49PPfbh3imBmBVBl3beZ+h/dLO6LCyCzou/wpvzf4EI75/FW4fd0Ti7F+hTUiwuqWxxYBMZwSupRgx3kmDAZtVsDuehll/eoNxgJbAqc/n5gbZyF8P4oxvbK1l4f5q4COGqIttPhaFPvMv4Ovp3ug59xz+2BMM39sZyC2UhE6mvHZYmiE+rUD4wRY7+GHimjOYtum8ANf564nIyi9FkUYF/9gbmOS6GG8t/A5tZ31SLceqDKwK32d/jLbzPkW7pV+iw6ou6LiqC15Y2hldJr4P+9+H4k7QZRiYg2bFrcWALFdlwmZfLfrZq7HmjIyIFDX2H7uNYZMONDj6ojlBRi7256aLIu6xpkKqVnyW961rcu3I5CIs2HMTPWafRZdp3qJ9N+ccJm64DGfvKNyMyUJGXimKVbIwZtCgkVukQWJGIcKT8hGTWii+M9dMq9fhZkoUJh1YjpcW9cCzsxsIMIXjCaB9hvbL7gJtdRd0Wv4Vvl3/IzyueECtqbrQUlNNaIsAGSWrq0kGjN2rEZwsINEASUfHdI7ILWsoN2sukNFsz1VevC7GoIQy7wO26QxGXI3IwRS7QHSbcaYMZARb1+ne6DXHC+NXncWG/YFwPR2KE5dicDYwAeeuJyA0Lgs0dgnT/915yysthJ2PK976s2/jAVYJaO2WfSm4WcfVXfDWpn5Y47MbOSV5Vn1i9x1kFCGKZRN2+mvRe5MaO/20yFOZfS005x/zjhD17EnI9REVeWxzgYylEujbS04rBBM+H7RN0hmERXHUqsv4enpFkAmu9ttpdJnqga8nuwv/Fw0bA+ccwvDFx4SZvnKSbVJeOqYdWoUO875qmIioAKvynhxtvpmjUWx8ZUNPzDtjhzsFGVxJwGqP7b6DjFwsKtuI2QcljNilwZUEQ4V6GCkZRdjqeFVUnmI0RX2A1hwgY5VihoHdCEkDS34/iFuppMcR/zv4YalfBS6miI3m/Wl8MfkoPh3rgo9GmfPJaPg4HRB3T2RMWmEWFnja48WF3zQtyAg6C9HxxbU98Ovx5YjJTqxgnGnqZ3jfQSbpAa8IPYY6aLDYU0ZSvrHCO4Wm8Mi4bCxeew4D6lmH0dog41ppU+d7wutCtMgds967sKkfe9P2V6TSwfVCIgYu8qkBZN7o8psXvpx8DJ+OdRZ5ZX1muOPctYR78v1UshonQn3RZ/sUdJjfxTpAm/8ZOi3vinHu8xGWGvXXBhkNHlt8tOi/RY29V7VgOevKG8UJLi8758/T9Vpl05ogY2oMF6Q44Bkilll60Ez2ls+Ijud95xIwYGEtIKNB5LfT+PIuR+s+xRX7vELu8aeJMKziPLgGeWHAzt/w4oJv0Laxxo8qRMcOCzpjpNMs3L4TDmPlhTssb7CRn+87JyPnWnBUwtCdapyN1ldbebZUpYVfYKJIruw7vG5mfZbN3uoUgOw8lQjzIRAsG6tSXQlKwpgZh+tlwWRpBBbZcTlyUyxY8SDqYZZ0V6TSwuV8Qu2c7K7VUeFonSfsx0y7c0jJKr5nkQ4SfW5pAU6F+WP8/sV4c2lvtJ39aZNytfZzv8DoPbMQkhzx1wAZfSkMgmAoWqnWhELJJOqmX0kyYPxeDaY4a3A73Yjq7AY8n0C7FJgodKB+I51qdVTTrL7C/iICb6WI5XCZRlOhxeXg8MlQjJhKN0Hd9D1mB/wy+yj2H7slnM4Ni+ywJNHW/7lEo8MB3yQMXuJbs7g4zVsYRrrPOoses87g25knMGzxSZy8HFsWo2g5G7Q4lkoqXE0MwRyPDXhvxQA8N+ezJgNah7lfYsK++YhMi2md4iKFPoKK4l9ivhHX7xhwOsIAlyA9dvhrse6sVqxwMs1dQvdVKiw8LCGlsGYbD4Gm0egQdDtV+KR+GL+/xlLetEgOn3xAFOaZu/w0qmpc0YUcrzaDCkHI2vzTF58UC7KnZRXfo0tYEsiD9JnRHp4BqRi63L9KkBFUff+4gNGrL2OK/TUs3Xcbaw+EY9vxSLhfiEFQZDo0cvUOYY1ORlh6HJad2o4PV37fZEDrOO8rTD+4Egk5Ka0HZAJYJiBPbcKtNAM8QvVY7i1jiosGI3ao8eNWNU9X3zoAACAASURBVAZvU2PwdjW+367G4B1qfL9NjYFb1djhp0WB5l59rCpilWU9ouNz4Hjghlj2iByrOk5kWY6AoLun1aHMQO9hjgKsLLrK9aHzCtX3RJlXNc4H5TcR1H07C2PXXUXXuyb8bjPPYMDCi/hlQ4AA1BH/ZARG5iAssQCJGcVIyS5ERk4ucvPTUViQAHVJLGRVAnRyLkyVVwUFoDPoEZOZiJWnHfDBykFoO7vxHO2FP7ph4XF7pBdkWfVRNZlORlN8rtqE09EGrPCWMcpBjT5rVeixTo0fdqgx/aAkVjfZc0WLQzd1OBmux7kYAy7GGuATZ0BsjrFafayqGWDqBFd/uXA5HsvtLmLoJPcmKVlgydEIXNbXZ5EdiodckZMraVrG4lU1tgftN+qkwbH5IjCYXKv3vPP4dfM17DubgBsxecjI06BUo4Msq6EpTUFRjj9ykx2RGbMWaeELkHJrMpKDRiLpxlikRq1FSUE4jJWX6r0LtNisZEw/sgavLP620Y7qN5f0wqbz+1BQat0g4UaDjMV6GTl/5LYevx+RMMheje82qPDzPg3WnZXhcUuH68kGUX8vp9QkVjUplU1Q6wHJALEIAxdioGhZNz5WTsK0QqnUWsQn5ePk+WissPcRjmuKdawRUt+F3AkwcjqWdPvxFzfM+dML+w4Hiyzn3AK1SLsov7rtkzIDfA6JmaVYdygcv2wMwPYT0QiOyxd5ZYxT1GkLUJp/FZnRK5F0fThifLsg4uy7CD/9KsJPvYSwE50Q6tkewUc7IPDYmwjzH43slJOQZS5DXDGbgRzNNy4Y/R2mocPczo3SzzqvGYLDQd5Qa8uzr5V7asp9g0FG/Yi+V/9EA+Yfl9BnnQrdVqsw85AMtyAdwrOMQmykoUMAqL4IquNdslu+SWkUSUopwMUrCSL6guXdfhjnCiZREjgUGyuLlPyuiJMEJcXOMdMPi1r8x06HIyImG/mFGuh0Bhv3quF5kBYKVTr4hGTi7I0MpOWpRagULYQU/3ISdyD+Sm9EeL0qwBTq8QxCPJ5GyLGnRLt97CkEHXoK/i5P4KLT4/B1bY8g7564E+sMSZNzD9DyVUVYdc4Rbyzp2QiQfYofd/yGawkh0BusmyHdIJBxfeD4PCO2+GnxwxY1uq9RYeZhCd4ReqQVmkTKSnVWwhqeVaP/onmeSy/lF6qRlFogajge8QqD3e7LwpnNBfomzfUQ1kEaPH5d4Im5K7yxaosvnA4FCxcBF5rIzlWJKkkUSUlAtq32GWBQtErSi9QWc4C0CVpNKjKiVyDq3AcIPd62DFQKuLgnwK4ffBJ+zk/g/N7H7rbHcXHfM7jq8RHiQ9ZAXXKnAtD0BgP8Y2+h8/oRDTTrf4KXFnwj9LGMwmyrv0DrDTJyr7BMIxZ6Sui+WoVBW9XYeVmLxDwjGL3REoiSYyDgdFztUq0V3Cgzu1T4tMjtEu/kIzElXyyTlJ5ZjNx8FUpKZTDXiQTSEu6hdrJu2UeYjDLyU1wRffFTCM51l2tZAoyfbxx6Cn7Oj+OCowKw8v0FpycR4PEBUiK3QieXB/HyvZeUl4G+26eg7ZzP683N6G/7bM1PcA08AbVsXVGRT6leIOOCbt5ReozarcHXq1SYdUQSVkSKhC2dMDm+6lrLJtfWOTqpNF7oX6Ge7arkYAQYRcSKHKwcYApXu+D4BK55fo7MpIMwGNRlk5Fbko/RTvPQsQF6Waf5XTDedTHC02JhbIbScHUGGQF2PsaA0bs06LZKhVVnZMTlGcFkS9tmmwHLGaD1tTjXF7G+XSvoXpZcLPiwWQe7UCYi3gswBWi+ru0QHTgD6hIWUjXL7/mlhRjvvBCdGhCp/8GKgXDwP4RSK+eRKXNSK8h4SyqtCafC9BiyTY2+m1QixpDLl7Z07qXcpG3fvDNgMupRkH4C0Re+RMixcgOHArIbhyrrYNUDjEC74PQEgs/2QUHWZZhMZiNFRlEuBu+ajnZzv6iXuNhpXheMdV6AyPQ4q+tiyqzXCjLqWZcTDPjFSYPe61Ui3yurpIrlWZUebfsHfgZMRgMKM70Qc7HzPZyMOpi/8xOoCwdTONkFx8dx/VQX5KZ6C/8ZOWVEejy624+tl+GDIVlfrRsOt2unmkUXUwihRpDR9B6aYcSMQxL6bFJjq69W+MRsHEyZPtu+qhkgCFQF1xB/tS9CPcutimYz/eMWVsSaOZglyG54f4v8DB+YjDqotRKcr53C+ysG4Nk61v6gsePtpf2w4pQDsotyrZqkWXlOqgUZIzhojre7YM5YXnZSFjGINN/bNtsM1DYDBl0+chI2IPrChwjxeFZYEekHq8qKqICpur2P8zMI9RuNkvxQGE0GJOSmYvLBlXhhQdc6ioqfoP2c7ui2fgk8bkZDamZDQrUgY1TGsdt6YaKf6qrBjRSDcCrXNrm2/20zYJ4B+smSkRWzDKGn38Gl/U81CGAUFa8cfgvJ4XaQNdkokVRwDPTEZ+uG1ilQmHloL/7xDT5dOQdfrQ7ArEMlCE031CuEr7FPtEqQkVtFZhkx46CE7zerRaxh6YNXH6axc/vAn08jhayKQ3LIfAQce0cYMKrjVlX9ToD5u72AyMsTUJwXjBJNMc5HB2LQrunoWIeMaQLslYXdMdJxHvZcvoz5x4rQf5MKK7wolTWfXaFKkDE9xeW6Dn3s1VjiKSO1sGJJgAeeemwTUPcZMBmhKYlDcuhyBHq8D1+XtgJsBBBbRXCZf6NvzMe5La4ceQeRVyYiP9MXJeoCXI4LxliXhXhZ1P6ouUwcjRxvLO4pzPxXYoNRIsm4mWLANDcJgzarBX0z66M5AnruARnDocjFph6QMMJBg7NResjWDe2q+wOzHdkqZ0BwNHUa0mK2IeLSGASd7oFAj09w+dDr8Hd/Hn5uHeDn1gmXDryCq0ffQ9CprgjzG4XkyC0oyL2F9PwUeDFD2nURXl/8Xa2lCNrP/RKfrv4Rf3jYIygxDJJOFu4mJgt7h+sxcrcGE5w1uJTQPGLjPSBj2UDqYn3s1PjzlAya65sD7a2SemyDrscMmKDXFUNdHIfcjAvISHBDUvhGxN9ajLgb8xEXvBCJoauQFrsbOaleKMgNQVbBHVxPDhM1GPtum4wXF3SrEWDtfv8Cry3+Dj/tmondlw4jJS+jQvAvreL07zpc0mLAZjXWectIL7a+v7cCyDiI1EITFnrKGLBRjeNhepuxox5kZDu0LjPAOit6GPQa6LTF0MkF0Ep5kKU8lKqykVucgfjsJPjGXscWP3eM3PcH3lsxEARQhfLbdwvj0DTPDOc3lvbGoB1T8afXDhFZX6ypeukqSmpMKJ7MROKdGpyL0ouY27qMvKHHVAAZ/WJBKQb8sFONSc4aROfY7PUNnVjbebXPAP1pbIwfLFGXICghBI4BnpjvaY/vHaYLcLHAqWWlKoKK4uALf3QVxXW6rB+Bia6LsfH8PvjHBCGrKBd6Y831L6mLMXl4wBa1yHlkPqQ1twog0+iAo7d16LlRhTVnZRSVL3JYrzFw0kpLS1FYWFhlKykpgVbbeHOlLMuIiopCWFgYNBrrR1PXZxJIPLzHoqIiSFIDJ7I+F6ziWAPXWFarKzwDzr2ulgUWVCoVbt++jcjIyLJj9Xo9eK7yTHlf/M5n0NggW84VQRYYexPbfA9g2sFV+GnnNHxnNxZdN40qa903jUa/LRMw2mkuZh1Zi80XXXH89gVEZsSjQFUoShTURbkhM6FLarKrBuP2aUT9GfqFrbVVAFmhxoR157Xot1GFgzd1DfYl8CFt3boVv//+O+bNm1ehzZ8/Hxs2bEBwcDBIBA3d+GCys7OxcOFCzJgxA3fuMOfIijNVxUBJXJmZmbh69SpiYmIEwSmHkSiDgoKwZMkSXLhwQfm52faci5ycHBw4cEDM/9y5c8V+y5YtAjw1zX1cXBzGjx+PP/74AwUFzE42ITU1FatXr4bSD5/jsmXLsGvXLnH/ynENvUGD0SAqU6UVZCI8LQ4B8TdxISoAZyKvwjvyqtifiwzApZgg3E6JQmJOCgpVRdDquNhg/Z47j2YdGrvz5kCLA0F6MADeWlsZyHjhzGITph7Q4KdtalxOMqCh0R25ubn4+uuv8dhjj+HLL7/EV199Vda6dOmC4cOHw9vbGyTEhm7Kgx88eDC6d++O6Ojoek92Q6+tnMfx+/n5CYLcsWMH8vLKc57436lTp9CzZ084OjoqpzTbnvOTkpKCpUuX4u2338YzzzyDV155BWPGjMHly5fLOFRVAyIX+/DDDzFgwADxIuPL5NatW3jjjTfw3HPP4bPPPkPnzp3x8ccfi7779euHw4cPo7i4uKru6vUbOREzqgk6Ziyz3IBloyjI/+sLrMqDIG0z6H3QFjVWn5aRZkUDSDnITBAlsgfvVGPMHg0SCxpudeEb9P3338fjjz8uJp/EZtl8fX3Fm5EPj5NFkYNiCM/jnuJV5UnkdxIuHySPI0GTewwcOBDdunW7B2QUiXgsAc9jKTZZijVKf+yTv7PxHDa+5fk7Rd78/HxBaOyH/VEEVMbGz8ePH0fXrl2xePFiQdS8F6WP5ORknDhxQoi0ykNm3zyP/fM+eb9K3/yt8sZx8TiOg8cp4if7qIkbsR+O//r16yDXee211zBkyBCcPn1acF/LuWBf7Jf9kyMFBgbivffeQ//+/ctARq7csWNH8VydnZ3Ffbm5uWHWrFnit2HDhgnOXdU9VL6nlvI9NN2Iqa4Spu6XRM1Pa4mMZSDjBWKyjPhuowqTnTVipZWGToYCsvbt2wsCJ+FZNoVA+KAzMjJw5MgRIYb88ssvQsTkW5GioELMHAcJjQSzaNEiwTl+/fVX8ZlvVUuQ8RyCwd/fX4gzkyZNAo/dvXs3EhISyt7gFGkJ9nPnzgmiI2APHjwIEk5SUpIAxvr16/Hbb7+Jt//EiRPx559/4uLFi+C5JKb4+HghDpKA+/btCx6/Z88ewaVJrImJieJ7SEiImEqeQ/2RIlxAQIC4b4rU7HvVqlWCSDlPyqbMD4+fOXMmJkyYIMRjEjkbdaaagMa54Fh5X5wnin+cVwVgyv/nz58XLwnOP0VvgvKFF164B2TPP/88vvvuOzE/HCdfXOR6PI/SyqFDh1qcbqzMZVX7tEIjlnrK+MlBA99Y64UNloGMps3baUZ8s1aF3w5K0DaiSIcCsnbt2gkQUUFWGt+uypucRE+5/qOPPsK7776LTz75RIgfFEO2b98uAEpCIHF6enqiR48eQuTh/59//rk4hyIpRVOKiyQevvH37t2Lb775pqwvclW+mUlAynEEN8FHTkhC//bbb4U4xDGQ6yocimMjgVJ8Iph43NGjR8Wb/8qVK/jpp5+EWPzSSy+J8fHtT65GLnbmzBkxBgKPG40zO3fuxOuvvw6KzbyHTz/9VIyNfY8cOVLoqjyW902wL1iwQHAKinw8lvdOsY3X27dvXwU9sCpCIhg43i+++EKMi/OjbHwZOTk5ifljn8q88vN//ud/Vgmy3r17Iz09XXTBMfIzwUu1wMXFRYBa6b+l72mDYAB8v81qHL2pBw1/1tjKQKY3ATdTzCCbdkSCrglA9r//+7+YPn264FJUmNlWrFgBHx8fIZrwbcw3IHU05e3u6uoqHi6Jn7oDiYS6BfUD6hRr164Vv1OkoR5E4qO4RvAQvCT8Pn36CD2N/1+6dElwFnILAsbd3V28gdknxacnn3xSgHvs2LFCf6FRhtyGXOLYsWOCc9FIQ65HIwZBOG3aNAEiiqFU/Emc5JjkcuRa5GDkIB4eHgKAmzZtEs+Ob/5169bh//7v/wTR29nZiXO8vLwEt+T9kePypcLzqcsRWIMGDRIclvdMXZZjfeKJJ4RxiRy+pq06kBEg5KYEDQG4ceNGMa+cPz6jZ599tkaQ8XzeD+f3+++/F9IE74PPoLVsjMfdfUWH/pvVcKxmsZOmuJcykAknXYoR3deqMO1w04DsX//1XwVhkxOw8c1NsYrEQ2KkmMHvFO34lidxkdNRvKExQzEmEHh805NDUAzjcWy0glHpprhIUz6J3t7eXnwngKln8Dg+eAKAXIhvXVrKaI0kyMjhCHByNr7ZyXGpU/E8EjAJKSsrC7GxsUK8Yx8k+vDwcHEcdS5yTRoY2AfFNxIgzyfI2rRpg8ogI4fnb7wer8V75z2/8847oh+OgSD/+eefxZjJWfmbos+Rg1E/ogW3oSDjfRFYlCBoceQ9csxs165dE79X1sk6dOgguCjPc3BwEFyWL8mXX35ZiO6cV957a9loUdx/XSf8ZfY+WuSorDP2MpBRJwtLN4PstwMaaMnaGrgp4iLftiRCmrCVRu5EXYacgWIeRadx48Zhzpw5os2ePVuIYJT/KUrywVFkeuutt4TSruggfJj8jwSvgIwiGkXAF198ET/++KNQypV+R40aJYhh6NChAiA8lp/5Jqdeoegpyi2TCDlWgmf06NFCrKRF7amnnkL3Hj1w89YtQZAnT54UIONYSagKkXGc1YGM90YxTbkm9xQt+SKiS4IiHTlEr169hB6miLjK2AhI9tFQkHGMHCv1PL7M+AKy5ECcjw8++OAeTkbL4j/+4z/if/7nfwQ35guEoiXdNBEREWI+lDG2hj2z/g8F60Q617rzMjJLG07zNd1vGcj4AmKp7F72akx00gg/QkNfSgrIaPig9YwEZ9n4QKlsU1f6t3/7N/HAHnnkESjt4YcfFuIQDQ0U6wgcchwSvUKYVYGM4CUgqE9QVFX64559Ukz74YcfEBoaKsQ9goyclOKh0i8ni2OmKEfxjaZvjpMcjDohOQgJ8+bNm00KsrNnzwpOr4CMIjWvR3GbupkCXo6vKUDGeaWISzGcYig5mLJVBzJyMorn27ZtE2PgC4bH8qWgvPyUPlrDnjqY+w2dWIth00UZ2dbmZATUnQIThu3RYPRuDWJyjRWWla3PpCkg40OhmFN54wMlEZEzkJPQmkh/k2Xjm5zERZGPhEaxhmKlAoaqQEZdiLoX9RgSArmlZZ/8TDGP+g6JrCqQsV+KS9S9+Dbfs3evACHFSxIjQSo4mZVBxrHSksf7oaiq3DfnkuJtYzkZpYDJkycLcZvO9LqAjNckd01LSxOgtwR+5WfcGr5TXHS5ZhYXWVqDDmprbOWcDEB2iQlzjskiUfNcbMODg2sDGQkmPCICI0aMEM5aKtvUTfjQ2Pg/uR0b9RUaIxSjAH9TjqEYxYeuiIs0T69Zs0ZYuqi3EEzsS+mX1+D5/K0mkFF0o55BrkKQ83i+qQlQiqGWIKPfiZyNx9LSplyPRFsfcdGSk1HvpPhFayNFaorcilWWeieNJxTd6iIuUmeji4T6MN0fPJ/zQW5NHZcvE5reOVfKvFJioBhYWScjyCyti9YgyObss1g2YZufFn3tVXC/rhOVr61x/TKQsfNiyYSt/jr02aCC0zUdtOUSRL2uXRvI2BlFDIpkNI3zbU3CpthGQiYnoWXvxo0bgrguXfIXYgoJjrodjyFXoR5EkZS/0/BBQNL6RmsZwcc3PiMVaERgXyR6cjcScU0gI8ck52Q0CTkKCZ6WOFo2qUMq4iIBxRcECY8GGPZPUZTgJwdvKMgIAIKbRhwaQ0jsNDTQAEQ3BPVTisN0c1Rn+CBgCEw6ken3evXVV0GHMeeZ+hhfNvv37xf3SeuuMv+8nylTpgjx+q8OMi6lvNZbxoCtalFinounWGOrADKurnIuUo+eG9VYfEIWK2E25KKMHKAf6M033xQPuqo+yBnoAKaPioYKcg6+bQkQvkVpbndxdRXnEzx8C3fq1EkcS58MQcD+eR71KopUJCxem294gpf6E/uhBYzEyu/U8xhvSHGJBhdaGAkiAkbZaCUkMbdt21aMhefTTE/ippOWeoziYKboRNcE3/K0gPIe2C+BRp2F1yQYuNGYsnnzZjEWOr2Va3KvWD9pPle4J8VlWkPZL3VKRtDwfqir0fXAPgiWqjbOBeeEBh8aKtgITI6P4+J5FIFp/ODY+fLgf7xH6l3klAQlX5gcH3VQziHFZc7fX2GLzzVi7mEJox01CGhEGGFtc1EBZDTjh2caMWKvBqMcNLiZWk54tXVk+T9BQRGEZnSKaNVt/I8OaR5H3xNFMepJJHCKe/yPYhcJhtZA6lkUMekApsWRpm1yPDqq+fbncSQIEgZ9NjyGx5MwqH9Q7CSx8O3PtzyjPSjukavyXGXjNQkSBsTyLU+xjeDkdejYpfhGMHPjPZB7rVy5UhAliZquB3ILjp+OaBoHuLFfclY6bdm/ck3uyVl5L+Ti9G3xNwKBbgo6xtknnezk5HzhEOz8zD6r2ng+OTY5FIGtNHJ3josvOZ5LLs9IFd4jG0HOc8g1OTd8MbAviuIcN+ecomVr3/i0LycaRMn5+UclxDbCBlHbXFQAGS9MFrrhgha91qrgfE3XLKUH+LApXpFwqTMQAJWtVQrRERA8hkDmb9VtBBuP4fEEneKTqukcy754HMHI89lquh6PVa6lHMvrN2Zjn9TxaCBiIzgp8pJ70dJJPZRgqev9VDeWyvfJe25sn9VdqyX9rtEDzoHmtK6dXOVVqkuSTMPuoALI2AXreVyM1qP/FjVmH5aQkNd8VX0adgt/zbMIUupTTDmhqEpLJ0VgujIoipOr/RU4yv14evQJc+mvBR6yWFqZdWyYY2at7R6QcQBJ+SYs8JQxeIsaB4NpdameY1hrYA96v+Qm1BsZHTN16lQhRlMUpQhMUZjcvLHc8kGdY/rHuJzyEAcN5h2VhX+4BqGo0dN0D8jYI/0HHAQXTZ/mpkFYhhGNCGVs9CAf1A4UkZeGEIKKoihF6er0sAd1nupz32QXSflGYdhjzCL9ZCyBaM2tSpCRmyUXmLDslIz+dmrs8NeJKj/WRLs1b9LWt20GlBlgNTYma/60XY2Z7pKZgVhRVOR1qwQZ/2Bcl1+cHmOdNBjhoMbJML3VnHXKBNj2thmw5gwoC6jMOSJh8DY1Dt7QgeXorb1VCzJyLYaZMEr5B4qN7hICkw1Wy7mx9o3a+rfNAP3A1+8YsOq0jF3+WrGACqU2a2/VgowX5gDuFBix/rwW/e3VoD+BNeuaeVEMa8+Brf8HZAZIz0zUTM43IrfUZFWLouWU1ggyHshQEzqoF3ua9TOma99ONy/CbtmR7bNtBmwzUPUM1Aoynkbf2Y07BhGC0t9OhT88ZASlGEGHXjNw26pHbvvVNgOtZAbqBDICib6FW6kGLDkho5+dGr+6STgVoRfxjTarYyt52lYcJt0KdDMwXIwFjxhozD2DuRnfqYRnVR4Cz2PIFuMhGYrG8LiqXBT8ja4MHsNjeQ7Dzyw3+hb5G/9XmhIHqkS2MPqH/3GsSviaZR/W+FwnkCkXpuLI5W1XeZtFx6E71XAM0AnntTU95sr1bfuWOQOMPCGoli9fLuJEGWjMRFcGezM7gRW/6FQngCw3hs4x0ZZpQoxXZVY8YzTphK+8ERSsz8JgbB7Lc1h7xTJAmnGkzENkmToew6x4xlsS4PyPoWkcI4OimeHAzI3K4XuVr9sU3+sFMl5QazAvSkGr48g9avTfZLY8kqtxBRiCzSZCNsWjafl9kDuQUzDplgmmzAz4r//6L7C2yz//8z+LPbPUmZnO0DACiucoG8HJDIWnn35aZK0z04DHMQjbEjw8R0nIZfkHZrjzWix7QK6k9Ekux7ooShY8sxZYzJWB0owt5TiZucH/WZeFAeIEn7W3eoOMA+I8FahNuBRvwJyjEr5dq8JAezUWHJdwJdEgaujTklM+nda+DVv/92MGKMIxvpLZEwQXS0mQg5FzMSuBIGAlK6bSMCWJqU0KIDheBkDz/3/4h3/A3/72N/zd3/2dqO7F9B6KdcrGcwhQZkT8+7//uzj2//2//ycASc5FoPAYpgsxO4F9sf3Lv/yL4KyMlCE3Y/4cixjxXKYMMTytxYKMN08AkaslFxjhGarDBFcNvl2vEsuFTnLTYP8NPSKyjEJnoz5nA51CMn+dPQmXWQFMCP37v/97kUDLSlbMU1NCwciBSPzkWASOAjKGjCn5diR6ApQ5bwQGswwo2inHVgUygogciWX6KIaS8zGdif38ZUCmkArBw1jHmBwjDt3SY5STGl1XqdBjtUp41WcekeBwTYebaUakFZmQpzKJDOwSrUmcx8gSW2udc5BfVIrde/eKxFQC5dFHHxVZ1awZopTYo3GBjalGlvoPQUFO9x//8R+CO7EuCzPcWQ2LnI/VvHget8ogI8fjceSAPIfGFjYmnhLsBCqPafWcTAGZsifYaOoniK4kGfDnGS2G7tag22oVOi8pxddLStFzvQqj9mow87CEBackrDyvxXofLTbYWqubg01+WrhdV2Gv+0khepG4CTSKc9SxaPQgZ2GxVhoYKuepUX9iCTyew4JLLEXBDAOKnf/93/8tSlLQKlkVyAhMZm8z05uNxhImm/Izgc66JQTgXw5kCti41xuAUhlIKTThfIwBm/20+PWghGG7NeizWS3Eym9WqwTH67pSBVtrfXPwzRoVprup4X0tUWRqs+IwgUYOwkYipwGEIh1rorCYj2X+G7OvaRAhR2LVMqWuC0tR/NM//ZNISiVHJPerzMlo+GCeHUsl0MCilE0g+KgfsrHfvzTILAGnfOZSNYWSSawWE55hQGCSAWej9TgVqcdJW2t1c+AVpUfgHQPy1UZhcmcVYopuXJuABK6AjfoRwcc6JdSzCBqCjeUm+Ds5Hzke/V4spMQS6zxXqY2iZKRbGj4IXBadZZ4dgapwUQKdZS9YRuGBBJkCNhpMaJ20tdY/B0aWIzcYhIWO5SMoFtJixxLkTDAlsMjNCDTumc1NYwmLEFEH4+8EA8v9sRgSCwSxgA9BRtM/a/6ztguNJJVBxrJ4rAbGTHFyTZ7DAkesWcJrP9AgU8Bm27f+GaBhgkRNMz6dxTSHk1PxcOx+mQAAAkpJREFUd9ZrYYEkAo2chqIbi/nQ6sjiQtSfCDLqZASJ0hSuxO8EIsVK9lsZZCz+Q1DTscwqz9TFaKKnub4uIGMpBxZEIqekK0JpinjalE+nQX6yphyAra/WOwMEDI0ONLmzUCpLr5PwyX1YZYu1IsmlyFWoR9HJTKsjfWMEE3+nJZE6Fcv80VhC4qfhhP/R8cxitbwO+1P8ZBQXCTK6BAhwck5GcNAxTStmXUBGvx19eSwqSxcDGwsWMYqEfSjug6Z4OjaQNcUsPqB9kPjpFyMYaBEkYCjysZYlxT9+p5hIgLFQKrkRK25Rd6J4x6gNhlvR0kjAsLEGJsOhHnroIeHzYl/U1VhDsjLIGMlBzkPLpXR3gXiKrbWBTBFTOWYClnodG7khI0EIXPbbVJsNZE01kw9gPzRgMFSJ68MROAQTdSla+bgnATMCg0TPqswEAOs+suozuRXXoGMUiOVG8Y11Jikqsk+Ga5HbkJMxkoQFbun85mKKBHnljTVQuHYCdTteh4tq0FnNfqnDMdKDL4WqGsfEytPkZjaQVZ5Z2/f7MgMkRIpoFBMprhEELDzLoGCa0RmoS05FINH5TN2KXIJiJEFC8YyGEMuNYhpFSpr8KYoyKJiOZupaPJ5+NzqqWVBWcVZbns9rsBQ7r8EFGlkAlpyOOheByggV9ltV45gIRFo6beKi5azaPt/XGSAxEmzkFDR+MIKeOhn3BAaBYEmwtBTyeDZ+tvxPuRGlT+U45RjLc5XflHMs95bHWV6jcr9K/5Z7Ht/U2/8HJHbsNwtm/moAAAAASUVORK5CYII=;" vertex="1" parent="myqctyIuVr8iJMyiNVSi-1">
          <mxGeometry x="-1567.07" y="2522.5" width="318.61" height="185" as="geometry" />
        </mxCell>
        <mxCell id="hGdy4Wsc0eGWjVHkm4My-111" style="edgeStyle=orthogonalEdgeStyle;rounded=0;orthogonalLoop=1;jettySize=auto;html=1;strokeWidth=2;strokeColor=#3399FF;" edge="1" parent="myqctyIuVr8iJMyiNVSi-1" source="I2cXr4Xbu_d9eAzQmwmS-32">
          <mxGeometry relative="1" as="geometry">
            <mxPoint x="-1580" y="2620" as="targetPoint" />
            <Array as="points">
              <mxPoint x="-1680" y="613" />
              <mxPoint x="-1680" y="2620" />
            </Array>
          </mxGeometry>
        </mxCell>
        <mxCell id="Bw468MJoAQvdqBdyjTD_-0" value="&lt;b&gt;Virtual Private Gateway&lt;/b&gt;" style="outlineConnect=0;dashed=0;verticalLabelPosition=bottom;verticalAlign=top;align=center;html=1;shape=mxgraph.aws3.vpn_gateway;fillColor=#F58534;gradientColor=none;" vertex="1" parent="myqctyIuVr8iJMyiNVSi-1">
          <mxGeometry x="-1060" y="1308" width="69" height="72" as="geometry" />
        </mxCell>
        <mxCell id="Bw468MJoAQvdqBdyjTD_-1" value="&lt;b&gt;CONEXÃO VPN&lt;/b&gt;" style="outlineConnect=0;dashed=0;verticalLabelPosition=bottom;verticalAlign=top;align=center;html=1;shape=mxgraph.aws3.vpn_connection;fillColor=#F58534;gradientColor=none;" vertex="1" parent="myqctyIuVr8iJMyiNVSi-1">
          <mxGeometry x="-1227.76" y="1490" width="58.5" height="48" as="geometry" />
        </mxCell>
      </root>
    </mxGraphModel>
  </diagram>
  <diagram name="Visão Macro da Solução" id="AuPdcd7TRYS4WBLbErwC">
    <mxGraphModel grid="1" page="1" gridSize="20" guides="1" tooltips="1" connect="1" arrows="1" fold="1" pageScale="1" pageWidth="850" pageHeight="1100" math="0" shadow="0">
      <root>
        <mxCell id="7KC2XA-bAF72a5EF2EjA-0" />
        <mxCell id="7KC2XA-bAF72a5EF2EjA-1" parent="7KC2XA-bAF72a5EF2EjA-0" />
        <mxCell id="7KC2XA-bAF72a5EF2EjA-2" value="&lt;span style=&quot;font-size: 29px;&quot;&gt;Autenticação&lt;/span&gt;" style="rounded=1;whiteSpace=wrap;html=1;fillColor=#fad9d5;strokeColor=#ae4132;labelPosition=center;verticalLabelPosition=top;align=center;verticalAlign=bottom;fontStyle=1" parent="7KC2XA-bAF72a5EF2EjA-1" vertex="1">
          <mxGeometry x="-1520.0000000000002" y="1600" width="360" height="230" as="geometry" />
        </mxCell>
        <mxCell id="7KC2XA-bAF72a5EF2EjA-3" value="AWS Cloud" style="points=[[0,0],[0.25,0],[0.5,0],[0.75,0],[1,0],[1,0.25],[1,0.5],[1,0.75],[1,1],[0.75,1],[0.5,1],[0.25,1],[0,1],[0,0.75],[0,0.5],[0,0.25]];outlineConnect=0;html=1;whiteSpace=wrap;fontSize=12;fontStyle=1;container=1;pointerEvents=0;collapsible=0;recursiveResize=0;shape=mxgraph.aws4.group;grIcon=mxgraph.aws4.group_aws_cloud_alt;strokeColor=#0e8088;fillColor=#b0e3e6;verticalAlign=top;align=left;spacingLeft=30;dashed=0;" parent="7KC2XA-bAF72a5EF2EjA-1" vertex="1">
          <mxGeometry x="-1120" y="160" width="1860" height="1700" as="geometry" />
        </mxCell>
        <mxCell id="7KC2XA-bAF72a5EF2EjA-4" value="Region" style="sketch=0;outlineConnect=0;html=1;whiteSpace=wrap;fontSize=12;fontStyle=1;shape=mxgraph.aws4.group;grIcon=mxgraph.aws4.group_region;strokeColor=#36393d;fillColor=#eeeeee;verticalAlign=top;align=left;spacingLeft=30;dashed=1;" parent="7KC2XA-bAF72a5EF2EjA-3" vertex="1">
          <mxGeometry x="40" y="40" width="1780" height="1620" as="geometry" />
        </mxCell>
        <mxCell id="7KC2XA-bAF72a5EF2EjA-5" value="VPC" style="points=[[0,0],[0.25,0],[0.5,0],[0.75,0],[1,0],[1,0.25],[1,0.5],[1,0.75],[1,1],[0.75,1],[0.5,1],[0.25,1],[0,1],[0,0.75],[0,0.5],[0,0.25]];outlineConnect=0;html=1;whiteSpace=wrap;fontSize=12;fontStyle=1;container=1;pointerEvents=0;collapsible=0;recursiveResize=0;shape=mxgraph.aws4.group;grIcon=mxgraph.aws4.group_vpc;strokeColor=#36393d;fillColor=#ffcc99;verticalAlign=top;align=left;spacingLeft=30;dashed=0;" parent="7KC2XA-bAF72a5EF2EjA-3" vertex="1">
          <mxGeometry x="440" y="61" width="1000" height="1540" as="geometry" />
        </mxCell>
        <mxCell id="7KC2XA-bAF72a5EF2EjA-6" value="Availability zone 1 à 3" style="sketch=0;outlineConnect=0;html=1;whiteSpace=wrap;fontSize=12;fontStyle=1;shape=mxgraph.aws4.group;grIcon=mxgraph.aws4.group_availability_zone;strokeColor=#6c8ebf;fillColor=#dae8fc;verticalAlign=top;align=left;spacingLeft=30;dashed=1;" parent="7KC2XA-bAF72a5EF2EjA-3" vertex="1">
          <mxGeometry x="460" y="101" width="960" height="1460" as="geometry" />
        </mxCell>
        <mxCell id="7KC2XA-bAF72a5EF2EjA-7" style="edgeStyle=orthogonalEdgeStyle;rounded=0;orthogonalLoop=1;jettySize=auto;html=1;entryX=0;entryY=0.5;entryDx=0;entryDy=0;strokeWidth=2;strokeColor=#FF0000;fontStyle=1" parent="7KC2XA-bAF72a5EF2EjA-3" source="7KC2XA-bAF72a5EF2EjA-8" target="7KC2XA-bAF72a5EF2EjA-131" edge="1">
          <mxGeometry relative="1" as="geometry">
            <Array as="points">
              <mxPoint x="1520" y="181" />
              <mxPoint x="1520" y="741" />
            </Array>
          </mxGeometry>
        </mxCell>
        <mxCell id="7KC2XA-bAF72a5EF2EjA-8" value="MicroServiço de Notificações" style="rounded=1;whiteSpace=wrap;html=1;fillColor=#fff2cc;strokeColor=#d6b656;labelPosition=center;verticalLabelPosition=top;align=center;verticalAlign=bottom;fontStyle=1" parent="7KC2XA-bAF72a5EF2EjA-3" vertex="1">
          <mxGeometry x="544" y="163.91" width="135" height="110.5" as="geometry" />
        </mxCell>
        <mxCell id="7KC2XA-bAF72a5EF2EjA-9" style="edgeStyle=orthogonalEdgeStyle;rounded=0;orthogonalLoop=1;jettySize=auto;html=1;exitX=1;exitY=0.5;exitDx=0;exitDy=0;entryX=0;entryY=0.5;entryDx=0;entryDy=0;strokeColor=#FF0000;strokeWidth=2;fontStyle=1" parent="7KC2XA-bAF72a5EF2EjA-3" source="7KC2XA-bAF72a5EF2EjA-10" target="7KC2XA-bAF72a5EF2EjA-131" edge="1">
          <mxGeometry relative="1" as="geometry">
            <Array as="points">
              <mxPoint x="1520" y="395" />
              <mxPoint x="1520" y="741" />
            </Array>
          </mxGeometry>
        </mxCell>
        <mxCell id="7KC2XA-bAF72a5EF2EjA-10" value="MicroServiço de Produtos" style="rounded=1;whiteSpace=wrap;html=1;fillColor=#fff2cc;strokeColor=#d6b656;labelPosition=center;verticalLabelPosition=top;align=center;verticalAlign=bottom;fontStyle=1" parent="7KC2XA-bAF72a5EF2EjA-3" vertex="1">
          <mxGeometry x="511.5" y="318.15999999999997" width="200" height="164.5" as="geometry" />
        </mxCell>
        <mxCell id="7KC2XA-bAF72a5EF2EjA-11" style="edgeStyle=orthogonalEdgeStyle;rounded=0;orthogonalLoop=1;jettySize=auto;html=1;exitX=1;exitY=0.5;exitDx=0;exitDy=0;entryX=0;entryY=0.5;entryDx=0;entryDy=0;strokeColor=#FF0000;strokeWidth=2;fontStyle=1" parent="7KC2XA-bAF72a5EF2EjA-3" target="7KC2XA-bAF72a5EF2EjA-131" edge="1">
          <mxGeometry relative="1" as="geometry">
            <mxPoint x="984" y="526.1599999999994" as="sourcePoint" />
            <Array as="points">
              <mxPoint x="1456.25" y="529" />
              <mxPoint x="1456.25" y="740" />
            </Array>
          </mxGeometry>
        </mxCell>
        <mxCell id="7KC2XA-bAF72a5EF2EjA-12" value="MicroServiço de Carrinho de Compras do Usuário" style="rounded=1;whiteSpace=wrap;html=1;fillColor=#fff2cc;strokeColor=#d6b656;labelPosition=center;verticalLabelPosition=top;align=center;verticalAlign=bottom;fontStyle=1" parent="7KC2XA-bAF72a5EF2EjA-3" vertex="1">
          <mxGeometry x="815.25" y="428.15999999999997" width="232.5" height="198" as="geometry" />
        </mxCell>
        <mxCell id="7KC2XA-bAF72a5EF2EjA-13" style="edgeStyle=orthogonalEdgeStyle;rounded=0;orthogonalLoop=1;jettySize=auto;html=1;entryX=0;entryY=0.5;entryDx=0;entryDy=0;strokeWidth=2;strokeColor=#FF0000;fontStyle=1" parent="7KC2XA-bAF72a5EF2EjA-3" source="7KC2XA-bAF72a5EF2EjA-14" target="7KC2XA-bAF72a5EF2EjA-131" edge="1">
          <mxGeometry relative="1" as="geometry">
            <Array as="points">
              <mxPoint x="1520" y="741" />
              <mxPoint x="1520" y="741" />
            </Array>
          </mxGeometry>
        </mxCell>
        <mxCell id="7KC2XA-bAF72a5EF2EjA-14" value="MicroServiço de Transação" style="rounded=1;whiteSpace=wrap;html=1;fillColor=#fff2cc;strokeColor=#d6b656;labelPosition=center;verticalLabelPosition=top;align=center;verticalAlign=bottom;fontStyle=1" parent="7KC2XA-bAF72a5EF2EjA-3" vertex="1">
          <mxGeometry x="711.5" y="698.1600000000001" width="272.5" height="300" as="geometry" />
        </mxCell>
        <mxCell id="7KC2XA-bAF72a5EF2EjA-15" style="edgeStyle=orthogonalEdgeStyle;rounded=0;orthogonalLoop=1;jettySize=auto;html=1;entryX=0;entryY=0.5;entryDx=0;entryDy=0;strokeColor=#FF0000;strokeWidth=2;fontStyle=1" parent="7KC2XA-bAF72a5EF2EjA-3" source="7KC2XA-bAF72a5EF2EjA-16" target="7KC2XA-bAF72a5EF2EjA-131" edge="1">
          <mxGeometry relative="1" as="geometry">
            <mxPoint x="2183.75" y="800" as="targetPoint" />
            <Array as="points">
              <mxPoint x="1456.25" y="840" />
              <mxPoint x="1456.25" y="740" />
            </Array>
          </mxGeometry>
        </mxCell>
        <mxCell id="7KC2XA-bAF72a5EF2EjA-16" value="MicroServiço de Pedidos" style="rounded=1;whiteSpace=wrap;html=1;fillColor=#fff2cc;strokeColor=#d6b656;labelPosition=center;verticalLabelPosition=top;align=center;verticalAlign=bottom;fontStyle=1" parent="7KC2XA-bAF72a5EF2EjA-3" vertex="1">
          <mxGeometry x="1047.75" y="777.1600000000001" width="220" height="220" as="geometry" />
        </mxCell>
        <mxCell id="7KC2XA-bAF72a5EF2EjA-17" style="edgeStyle=orthogonalEdgeStyle;rounded=0;orthogonalLoop=1;jettySize=auto;html=1;entryX=0;entryY=0.5;entryDx=0;entryDy=0;strokeColor=#FF0000;strokeWidth=2;fontStyle=1" parent="7KC2XA-bAF72a5EF2EjA-3" source="7KC2XA-bAF72a5EF2EjA-18" target="7KC2XA-bAF72a5EF2EjA-131" edge="1">
          <mxGeometry relative="1" as="geometry">
            <Array as="points">
              <mxPoint x="1520" y="1161" />
              <mxPoint x="1520" y="741" />
            </Array>
          </mxGeometry>
        </mxCell>
        <mxCell id="7KC2XA-bAF72a5EF2EjA-18" value="MicroServiço de Rastreamento Pedidos" style="rounded=1;whiteSpace=wrap;html=1;fillColor=#fff2cc;strokeColor=#d6b656;labelPosition=center;verticalLabelPosition=top;align=center;verticalAlign=bottom;fontStyle=1" parent="7KC2XA-bAF72a5EF2EjA-3" vertex="1">
          <mxGeometry x="719.5" y="1118.1599999999999" width="232.5" height="320" as="geometry" />
        </mxCell>
        <mxCell id="7KC2XA-bAF72a5EF2EjA-19" style="edgeStyle=orthogonalEdgeStyle;rounded=0;orthogonalLoop=1;jettySize=auto;html=1;fontStyle=1;strokeWidth=2;entryX=1;entryY=0.5;entryDx=0;entryDy=0;entryPerimeter=0;" parent="7KC2XA-bAF72a5EF2EjA-3" source="7KC2XA-bAF72a5EF2EjA-27" target="7KC2XA-bAF72a5EF2EjA-21" edge="1">
          <mxGeometry relative="1" as="geometry">
            <mxPoint x="265.5" y="840.5" as="sourcePoint" />
            <mxPoint x="343.5" y="640" as="targetPoint" />
            <Array as="points">
              <mxPoint x="268" y="359" />
            </Array>
          </mxGeometry>
        </mxCell>
        <mxCell id="7KC2XA-bAF72a5EF2EjA-20" value="&lt;span&gt;Verifica Conexões&lt;/span&gt;" style="edgeLabel;html=1;align=center;verticalAlign=middle;resizable=0;points=[];fontStyle=1" parent="7KC2XA-bAF72a5EF2EjA-19" vertex="1" connectable="0">
          <mxGeometry x="-0.2865" y="3" relative="1" as="geometry">
            <mxPoint x="1" y="191" as="offset" />
          </mxGeometry>
        </mxCell>
        <mxCell id="7KC2XA-bAF72a5EF2EjA-21" value="&lt;span&gt;WAF&lt;/span&gt;" style="sketch=0;points=[[0,0,0],[0.25,0,0],[0.5,0,0],[0.75,0,0],[1,0,0],[0,1,0],[0.25,1,0],[0.5,1,0],[0.75,1,0],[1,1,0],[0,0.25,0],[0,0.5,0],[0,0.75,0],[1,0.25,0],[1,0.5,0],[1,0.75,0]];outlineConnect=0;fontColor=#232F3E;fillColor=#DD344C;strokeColor=#ffffff;dashed=0;verticalLabelPosition=top;verticalAlign=bottom;align=center;html=1;fontSize=12;fontStyle=1;aspect=fixed;shape=mxgraph.aws4.resourceIcon;resIcon=mxgraph.aws4.waf;labelPosition=center;" parent="7KC2XA-bAF72a5EF2EjA-3" vertex="1">
          <mxGeometry x="127.5" y="320" width="78" height="78" as="geometry" />
        </mxCell>
        <mxCell id="7KC2XA-bAF72a5EF2EjA-24" style="edgeStyle=orthogonalEdgeStyle;rounded=0;orthogonalLoop=1;jettySize=auto;html=1;fontStyle=1;strokeWidth=2;exitX=1;exitY=0.21;exitDx=0;exitDy=0;exitPerimeter=0;" parent="7KC2XA-bAF72a5EF2EjA-3" source="7KC2XA-bAF72a5EF2EjA-27" target="7KC2XA-bAF72a5EF2EjA-56" edge="1">
          <mxGeometry relative="1" as="geometry">
            <Array as="points">
              <mxPoint x="367" y="1028" />
            </Array>
          </mxGeometry>
        </mxCell>
        <mxCell id="7KC2XA-bAF72a5EF2EjA-25" value="&lt;span&gt;Pega Conteudo&lt;/span&gt;" style="edgeLabel;html=1;align=center;verticalAlign=middle;resizable=0;points=[];fontStyle=1" parent="7KC2XA-bAF72a5EF2EjA-24" vertex="1" connectable="0">
          <mxGeometry x="-0.0315" relative="1" as="geometry">
            <mxPoint x="-5" as="offset" />
          </mxGeometry>
        </mxCell>
        <mxCell id="7KC2XA-bAF72a5EF2EjA-26" style="edgeStyle=orthogonalEdgeStyle;rounded=0;orthogonalLoop=1;jettySize=auto;html=1;entryX=0;entryY=0.5;entryDx=0;entryDy=0;entryPerimeter=0;strokeWidth=2;fontStyle=1" parent="7KC2XA-bAF72a5EF2EjA-3" source="7KC2XA-bAF72a5EF2EjA-27" target="7KC2XA-bAF72a5EF2EjA-118" edge="1">
          <mxGeometry relative="1" as="geometry">
            <Array as="points">
              <mxPoint x="420" y="1056" />
              <mxPoint x="420" y="1076" />
            </Array>
          </mxGeometry>
        </mxCell>
        <mxCell id="7KC2XA-bAF72a5EF2EjA-27" value="AWS Cloud Front" style="outlineConnect=0;dashed=0;verticalLabelPosition=bottom;verticalAlign=top;align=center;html=1;shape=mxgraph.aws3.cloudfront;fillColor=#F58536;gradientColor=none;fontStyle=1" parent="7KC2XA-bAF72a5EF2EjA-3" vertex="1">
          <mxGeometry x="227.5" y="1009" width="76.5" height="93" as="geometry" />
        </mxCell>
        <mxCell id="7KC2XA-bAF72a5EF2EjA-52" style="edgeStyle=orthogonalEdgeStyle;rounded=0;orthogonalLoop=1;jettySize=auto;html=1;strokeColor=#FF8000;fontStyle=1;strokeWidth=2;exitX=0;exitY=0.25;exitDx=0;exitDy=0;" edge="1" parent="7KC2XA-bAF72a5EF2EjA-3" source="7KC2XA-bAF72a5EF2EjA-8" target="7KC2XA-bAF72a5EF2EjA-53">
          <mxGeometry relative="1" as="geometry">
            <mxPoint x="914.8599999999997" y="195.99999999999955" as="sourcePoint" />
            <Array as="points">
              <mxPoint x="360" y="193" />
              <mxPoint x="360" y="221" />
            </Array>
          </mxGeometry>
        </mxCell>
        <mxCell id="7KC2XA-bAF72a5EF2EjA-53" value="Simple Email Service" style="sketch=0;points=[[0,0,0],[0.25,0,0],[0.5,0,0],[0.75,0,0],[1,0,0],[0,1,0],[0.25,1,0],[0.5,1,0],[0.75,1,0],[1,1,0],[0,0.25,0],[0,0.5,0],[0,0.75,0],[1,0.25,0],[1,0.5,0],[1,0.75,0]];outlineConnect=0;fontColor=#232F3E;gradientColor=#4D72F3;gradientDirection=north;fillColor=#3334B9;strokeColor=#ffffff;dashed=0;verticalLabelPosition=bottom;verticalAlign=top;align=center;html=1;fontSize=12;fontStyle=1;aspect=fixed;shape=mxgraph.aws4.resourceIcon;resIcon=mxgraph.aws4.simple_email_service;" parent="7KC2XA-bAF72a5EF2EjA-3" vertex="1">
          <mxGeometry x="127.5" y="182" width="78" height="78" as="geometry" />
        </mxCell>
        <mxCell id="7KC2XA-bAF72a5EF2EjA-56" value="&lt;span&gt;&lt;font color=&quot;#000000&quot;&gt;AWS S3&lt;/font&gt;&lt;/span&gt;" style="sketch=0;outlineConnect=0;fontColor=#232F3E;gradientColor=none;fillColor=#7AA116;strokeColor=none;dashed=0;verticalLabelPosition=top;verticalAlign=bottom;align=center;html=1;fontSize=12;fontStyle=1;aspect=fixed;pointerEvents=1;shape=mxgraph.aws4.bucket;labelPosition=center;" parent="7KC2XA-bAF72a5EF2EjA-3" vertex="1">
          <mxGeometry x="330.5" y="376.29999999999995" width="80" height="83.2" as="geometry" />
        </mxCell>
        <mxCell id="7KC2XA-bAF72a5EF2EjA-60" style="edgeStyle=orthogonalEdgeStyle;rounded=0;orthogonalLoop=1;jettySize=auto;html=1;fontStyle=1;strokeWidth=2;" parent="7KC2XA-bAF72a5EF2EjA-3" source="7KC2XA-bAF72a5EF2EjA-10" target="7KC2XA-bAF72a5EF2EjA-56" edge="1">
          <mxGeometry relative="1" as="geometry">
            <Array as="points">
              <mxPoint x="600" y="440" />
              <mxPoint x="600" y="440" />
            </Array>
            <mxPoint x="1263" y="636" as="sourcePoint" />
          </mxGeometry>
        </mxCell>
        <mxCell id="7KC2XA-bAF72a5EF2EjA-63" value="WebHook Pagamentos Parceiros" style="outlineConnect=0;dashed=0;verticalLabelPosition=bottom;verticalAlign=top;align=center;html=1;shape=mxgraph.aws3.api_gateway;fillColor=#D9A741;gradientColor=none;fontStyle=1" parent="7KC2XA-bAF72a5EF2EjA-3" vertex="1">
          <mxGeometry x="809.5" y="730.72" width="76.5" height="93" as="geometry" />
        </mxCell>
        <mxCell id="7KC2XA-bAF72a5EF2EjA-75" value="WebHook Logistica Parceiros" style="outlineConnect=0;dashed=0;verticalLabelPosition=bottom;verticalAlign=top;align=center;html=1;shape=mxgraph.aws3.api_gateway;fillColor=#D9A741;gradientColor=none;fontStyle=1" parent="7KC2XA-bAF72a5EF2EjA-3" vertex="1">
          <mxGeometry x="797.5" y="1153.1599999999999" width="76.5" height="93" as="geometry" />
        </mxCell>
        <mxCell id="vQTYE8nqGTHFnHXz65wk-9" style="edgeStyle=orthogonalEdgeStyle;rounded=0;orthogonalLoop=1;jettySize=auto;html=1;exitX=0.71;exitY=0.91;exitDx=0;exitDy=0;exitPerimeter=0;strokeColor=#9933FF;strokeWidth=2;" edge="1" parent="7KC2XA-bAF72a5EF2EjA-3" source="7KC2XA-bAF72a5EF2EjA-81" target="7KC2XA-bAF72a5EF2EjA-27">
          <mxGeometry relative="1" as="geometry">
            <Array as="points">
              <mxPoint x="140" y="931" />
              <mxPoint x="140" y="1080" />
            </Array>
          </mxGeometry>
        </mxCell>
        <mxCell id="7KC2XA-bAF72a5EF2EjA-81" value="&lt;span&gt;AWS Route 53&lt;/span&gt;" style="outlineConnect=0;dashed=0;verticalLabelPosition=bottom;verticalAlign=top;align=center;html=1;shape=mxgraph.aws3.route_53;fillColor=#F58536;gradientColor=none;fontStyle=1" parent="7KC2XA-bAF72a5EF2EjA-3" vertex="1">
          <mxGeometry x="-40" y="852.75" width="70.5" height="85.5" as="geometry" />
        </mxCell>
        <mxCell id="7KC2XA-bAF72a5EF2EjA-82" style="edgeStyle=orthogonalEdgeStyle;rounded=0;orthogonalLoop=1;jettySize=auto;html=1;strokeWidth=2;fontStyle=1" parent="7KC2XA-bAF72a5EF2EjA-3" source="7KC2XA-bAF72a5EF2EjA-81" target="7KC2XA-bAF72a5EF2EjA-27" edge="1">
          <mxGeometry relative="1" as="geometry">
            <Array as="points">
              <mxPoint x="160" y="896" />
              <mxPoint x="160" y="1056" />
            </Array>
          </mxGeometry>
        </mxCell>
        <mxCell id="7KC2XA-bAF72a5EF2EjA-83" style="edgeStyle=orthogonalEdgeStyle;rounded=0;orthogonalLoop=1;jettySize=auto;html=1;entryX=0;entryY=0.5;entryDx=0;entryDy=0;strokeColor=#FF0000;strokeWidth=2;fontStyle=1" parent="7KC2XA-bAF72a5EF2EjA-3" source="7KC2XA-bAF72a5EF2EjA-84" target="7KC2XA-bAF72a5EF2EjA-131" edge="1">
          <mxGeometry relative="1" as="geometry">
            <Array as="points">
              <mxPoint x="1520" y="1301" />
              <mxPoint x="1520" y="741" />
            </Array>
          </mxGeometry>
        </mxCell>
        <mxCell id="7KC2XA-bAF72a5EF2EjA-84" value="MicroServiço de&amp;nbsp; Usuários" style="rounded=1;whiteSpace=wrap;html=1;fillColor=#fff2cc;strokeColor=#d6b656;labelPosition=center;verticalLabelPosition=top;align=center;verticalAlign=bottom;fontStyle=1" parent="7KC2XA-bAF72a5EF2EjA-3" vertex="1">
          <mxGeometry x="1000" y="1233.6599999999999" width="232.5" height="200" as="geometry" />
        </mxCell>
        <mxCell id="7KC2XA-bAF72a5EF2EjA-85" style="edgeStyle=orthogonalEdgeStyle;rounded=0;orthogonalLoop=1;jettySize=auto;html=1;strokeWidth=2;fontStyle=1" parent="7KC2XA-bAF72a5EF2EjA-3" source="7KC2XA-bAF72a5EF2EjA-81" target="7KC2XA-bAF72a5EF2EjA-124" edge="1">
          <mxGeometry relative="1" as="geometry">
            <Array as="points">
              <mxPoint x="159" y="896" />
            </Array>
          </mxGeometry>
        </mxCell>
        <mxCell id="7KC2XA-bAF72a5EF2EjA-86" value="Autenticação Usuário" style="edgeLabel;html=1;align=center;verticalAlign=middle;resizable=0;points=[];fontStyle=1" parent="7KC2XA-bAF72a5EF2EjA-85" vertex="1" connectable="0">
          <mxGeometry x="0.7512" y="5" relative="1" as="geometry">
            <mxPoint y="3" as="offset" />
          </mxGeometry>
        </mxCell>
        <mxCell id="7KC2XA-bAF72a5EF2EjA-88" style="edgeStyle=orthogonalEdgeStyle;rounded=0;orthogonalLoop=1;jettySize=auto;html=1;strokeWidth=2;fontStyle=1" parent="7KC2XA-bAF72a5EF2EjA-3" edge="1">
          <mxGeometry relative="1" as="geometry">
            <mxPoint x="1722" y="2380.5" as="targetPoint" />
          </mxGeometry>
        </mxCell>
        <mxCell id="7KC2XA-bAF72a5EF2EjA-93" value="&lt;span&gt;SQS&amp;nbsp;&lt;/span&gt;" style="outlineConnect=0;dashed=0;verticalLabelPosition=bottom;verticalAlign=top;align=center;html=1;shape=mxgraph.aws3.sqs;fillColor=#D9A741;gradientColor=none;fontStyle=1" parent="7KC2XA-bAF72a5EF2EjA-3" vertex="1">
          <mxGeometry x="94" y="1364" width="76.5" height="93" as="geometry" />
        </mxCell>
        <mxCell id="7KC2XA-bAF72a5EF2EjA-94" style="edgeStyle=orthogonalEdgeStyle;rounded=0;orthogonalLoop=1;jettySize=auto;html=1;entryX=0.35;entryY=0.5;entryDx=0;entryDy=0;entryPerimeter=0;strokeWidth=2;strokeColor=#9933FF;exitX=0.855;exitY=0.855;exitDx=0;exitDy=0;exitPerimeter=0;fontStyle=1" edge="1" parent="7KC2XA-bAF72a5EF2EjA-3" source="7KC2XA-bAF72a5EF2EjA-118" target="7KC2XA-bAF72a5EF2EjA-75">
          <mxGeometry relative="1" as="geometry">
            <Array as="points">
              <mxPoint x="691.5" y="1099.1599999999999" />
              <mxPoint x="691.5" y="1199.1599999999999" />
            </Array>
          </mxGeometry>
        </mxCell>
        <mxCell id="7KC2XA-bAF72a5EF2EjA-95" style="edgeStyle=orthogonalEdgeStyle;rounded=0;orthogonalLoop=1;jettySize=auto;html=1;entryX=0.35;entryY=0.5;entryDx=0;entryDy=0;entryPerimeter=0;strokeWidth=2;strokeColor=#9933FF;exitX=0.855;exitY=0.855;exitDx=0;exitDy=0;exitPerimeter=0;fontStyle=1" edge="1" parent="7KC2XA-bAF72a5EF2EjA-3" source="7KC2XA-bAF72a5EF2EjA-118" target="7KC2XA-bAF72a5EF2EjA-63">
          <mxGeometry relative="1" as="geometry">
            <Array as="points">
              <mxPoint x="558.5" y="1098.1599999999999" />
              <mxPoint x="691.5" y="1098.1599999999999" />
              <mxPoint x="691.5" y="777.1600000000001" />
            </Array>
          </mxGeometry>
        </mxCell>
        <mxCell id="7KC2XA-bAF72a5EF2EjA-99" value="API Usuários" style="outlineConnect=0;dashed=0;verticalLabelPosition=bottom;verticalAlign=top;align=center;html=1;shape=mxgraph.aws3.api_gateway;fillColor=#D9A741;gradientColor=none;fontStyle=1" parent="7KC2XA-bAF72a5EF2EjA-3" vertex="1">
          <mxGeometry x="1078" y="1287.1599999999999" width="76.5" height="93" as="geometry" />
        </mxCell>
        <mxCell id="7KC2XA-bAF72a5EF2EjA-100" value="API Logistica" style="outlineConnect=0;dashed=0;verticalLabelPosition=bottom;verticalAlign=top;align=center;html=1;shape=mxgraph.aws3.api_gateway;fillColor=#D9A741;gradientColor=none;fontStyle=1" parent="7KC2XA-bAF72a5EF2EjA-3" vertex="1">
          <mxGeometry x="797.5" y="1298.1599999999999" width="76.5" height="93" as="geometry" />
        </mxCell>
        <mxCell id="7KC2XA-bAF72a5EF2EjA-103" value="API Logistica" style="outlineConnect=0;dashed=0;verticalLabelPosition=bottom;verticalAlign=top;align=center;html=1;shape=mxgraph.aws3.api_gateway;fillColor=#D9A741;gradientColor=none;fontStyle=1" parent="7KC2XA-bAF72a5EF2EjA-3" vertex="1">
          <mxGeometry x="1119.5" y="840.6600000000001" width="76.5" height="93" as="geometry" />
        </mxCell>
        <mxCell id="7KC2XA-bAF72a5EF2EjA-107" value="API Transacoes" style="outlineConnect=0;dashed=0;verticalLabelPosition=bottom;verticalAlign=top;align=center;html=1;shape=mxgraph.aws3.api_gateway;fillColor=#D9A741;gradientColor=none;fontStyle=1" parent="7KC2XA-bAF72a5EF2EjA-3" vertex="1">
          <mxGeometry x="812.36" y="858.1600000000001" width="76.5" height="93" as="geometry" />
        </mxCell>
        <mxCell id="7KC2XA-bAF72a5EF2EjA-108" value="API Compras" style="outlineConnect=0;dashed=0;verticalLabelPosition=bottom;verticalAlign=top;align=center;html=1;shape=mxgraph.aws3.api_gateway;fillColor=#D9A741;gradientColor=none;fontStyle=1" parent="7KC2XA-bAF72a5EF2EjA-3" vertex="1">
          <mxGeometry x="888.86" y="475.15999999999997" width="76.5" height="93" as="geometry" />
        </mxCell>
        <mxCell id="7KC2XA-bAF72a5EF2EjA-110" value="API Produtos" style="outlineConnect=0;dashed=0;verticalLabelPosition=bottom;verticalAlign=top;align=center;html=1;shape=mxgraph.aws3.api_gateway;fillColor=#D9A741;gradientColor=none;fontStyle=1" vertex="1" parent="7KC2XA-bAF72a5EF2EjA-3">
          <mxGeometry x="572.61" y="340.65999999999997" width="76.5" height="93" as="geometry" />
        </mxCell>
        <mxCell id="7KC2XA-bAF72a5EF2EjA-117" style="edgeStyle=orthogonalEdgeStyle;rounded=0;orthogonalLoop=1;jettySize=auto;html=1;entryX=0.35;entryY=0.5;entryDx=0;entryDy=0;entryPerimeter=0;strokeWidth=2;fontStyle=1" parent="7KC2XA-bAF72a5EF2EjA-3" source="7KC2XA-bAF72a5EF2EjA-118" target="7KC2XA-bAF72a5EF2EjA-100" edge="1">
          <mxGeometry relative="1" as="geometry">
            <Array as="points">
              <mxPoint x="639.5" y="1078.1599999999999" />
              <mxPoint x="639.5" y="1345.1599999999999" />
            </Array>
          </mxGeometry>
        </mxCell>
        <mxCell id="7KC2XA-bAF72a5EF2EjA-118" value="&lt;span&gt;Application Load Balancer&lt;/span&gt;" style="outlineConnect=0;dashed=0;verticalLabelPosition=bottom;verticalAlign=top;align=center;html=1;shape=mxgraph.aws3.application_load_balancer;fillColor=#F58534;gradientColor=none;fontStyle=1" parent="7KC2XA-bAF72a5EF2EjA-3" vertex="1">
          <mxGeometry x="500" y="1037.85" width="69" height="72" as="geometry" />
        </mxCell>
        <mxCell id="7KC2XA-bAF72a5EF2EjA-119" style="edgeStyle=orthogonalEdgeStyle;rounded=0;orthogonalLoop=1;jettySize=auto;html=1;entryX=0.5;entryY=1;entryDx=0;entryDy=0;entryPerimeter=0;strokeWidth=2;fontStyle=1" edge="1" parent="7KC2XA-bAF72a5EF2EjA-3" source="7KC2XA-bAF72a5EF2EjA-118" target="7KC2XA-bAF72a5EF2EjA-110">
          <mxGeometry relative="1" as="geometry">
            <Array as="points">
              <mxPoint x="610.5" y="1078.1599999999999" />
            </Array>
          </mxGeometry>
        </mxCell>
        <mxCell id="7KC2XA-bAF72a5EF2EjA-120" style="edgeStyle=orthogonalEdgeStyle;rounded=0;orthogonalLoop=1;jettySize=auto;html=1;entryX=0.35;entryY=0.5;entryDx=0;entryDy=0;entryPerimeter=0;strokeWidth=2;fontStyle=1" parent="7KC2XA-bAF72a5EF2EjA-3" source="7KC2XA-bAF72a5EF2EjA-118" target="7KC2XA-bAF72a5EF2EjA-108" edge="1">
          <mxGeometry relative="1" as="geometry">
            <Array as="points">
              <mxPoint x="639.5" y="1078.1599999999999" />
              <mxPoint x="639.5" y="522.1600000000001" />
            </Array>
          </mxGeometry>
        </mxCell>
        <mxCell id="7KC2XA-bAF72a5EF2EjA-121" style="edgeStyle=orthogonalEdgeStyle;rounded=0;orthogonalLoop=1;jettySize=auto;html=1;entryX=0.35;entryY=0.5;entryDx=0;entryDy=0;entryPerimeter=0;strokeWidth=2;fontStyle=1" parent="7KC2XA-bAF72a5EF2EjA-3" source="7KC2XA-bAF72a5EF2EjA-118" target="7KC2XA-bAF72a5EF2EjA-107" edge="1">
          <mxGeometry relative="1" as="geometry">
            <Array as="points">
              <mxPoint x="639.5" y="1078.1599999999999" />
              <mxPoint x="639.5" y="905.1600000000001" />
            </Array>
          </mxGeometry>
        </mxCell>
        <mxCell id="7KC2XA-bAF72a5EF2EjA-122" style="edgeStyle=orthogonalEdgeStyle;rounded=0;orthogonalLoop=1;jettySize=auto;html=1;entryX=0.35;entryY=0.5;entryDx=0;entryDy=0;entryPerimeter=0;strokeWidth=2;fontStyle=1" parent="7KC2XA-bAF72a5EF2EjA-3" source="7KC2XA-bAF72a5EF2EjA-118" target="7KC2XA-bAF72a5EF2EjA-103" edge="1">
          <mxGeometry relative="1" as="geometry">
            <Array as="points">
              <mxPoint x="1031.5" y="1078.1599999999999" />
              <mxPoint x="1031.5" y="888.1600000000001" />
            </Array>
          </mxGeometry>
        </mxCell>
        <mxCell id="7KC2XA-bAF72a5EF2EjA-123" style="edgeStyle=orthogonalEdgeStyle;rounded=0;orthogonalLoop=1;jettySize=auto;html=1;entryX=0.35;entryY=0.5;entryDx=0;entryDy=0;entryPerimeter=0;strokeWidth=2;fontStyle=1" parent="7KC2XA-bAF72a5EF2EjA-3" source="7KC2XA-bAF72a5EF2EjA-118" target="7KC2XA-bAF72a5EF2EjA-99" edge="1">
          <mxGeometry relative="1" as="geometry">
            <Array as="points">
              <mxPoint x="639.5" y="1078.1599999999999" />
              <mxPoint x="639.5" y="1498.1599999999999" />
              <mxPoint x="1011.5" y="1498.1599999999999" />
              <mxPoint x="1011.5" y="1333.1599999999999" />
            </Array>
          </mxGeometry>
        </mxCell>
        <mxCell id="7KC2XA-bAF72a5EF2EjA-124" value="Amazon Cognito" style="sketch=0;points=[[0,0,0],[0.25,0,0],[0.5,0,0],[0.75,0,0],[1,0,0],[0,1,0],[0.25,1,0],[0.5,1,0],[0.75,1,0],[1,1,0],[0,0.25,0],[0,0.5,0],[0,0.75,0],[1,0.25,0],[1,0.5,0],[1,0.75,0]];outlineConnect=0;fontColor=#232F3E;fillColor=#DD344C;strokeColor=#ffffff;dashed=0;verticalLabelPosition=top;verticalAlign=bottom;align=center;html=1;fontSize=12;fontStyle=1;aspect=fixed;shape=mxgraph.aws4.resourceIcon;resIcon=mxgraph.aws4.cognito;labelPosition=center;" parent="7KC2XA-bAF72a5EF2EjA-3" vertex="1">
          <mxGeometry x="127.5" y="484.5" width="78" height="78" as="geometry" />
        </mxCell>
        <mxCell id="7KC2XA-bAF72a5EF2EjA-129" value="&lt;span&gt;AWS IAM&lt;/span&gt;" style="outlineConnect=0;dashed=0;verticalLabelPosition=bottom;verticalAlign=top;align=center;html=1;shape=mxgraph.aws3.iam;fillColor=#759C3E;gradientColor=none;fontStyle=1" parent="7KC2XA-bAF72a5EF2EjA-3" vertex="1">
          <mxGeometry x="109" y="1235.5" width="42" height="81" as="geometry" />
        </mxCell>
        <mxCell id="7KC2XA-bAF72a5EF2EjA-131" value="Logs/Métricas/Alarmes" style="rounded=1;whiteSpace=wrap;html=1;fillColor=#fff2cc;strokeColor=#d6b656;labelPosition=center;verticalLabelPosition=top;align=center;verticalAlign=bottom;fontStyle=1;strokeWidth=2;" parent="7KC2XA-bAF72a5EF2EjA-3" vertex="1">
          <mxGeometry x="1556.25" y="459.5" width="220" height="560" as="geometry" />
        </mxCell>
        <mxCell id="7KC2XA-bAF72a5EF2EjA-132" value="&lt;span style=&quot;border-color: var(--border-color);&quot;&gt;CloudWatch Metrics&lt;/span&gt;" style="sketch=0;outlineConnect=0;fontColor=#232F3E;gradientColor=none;fillColor=#E7157B;strokeColor=none;dashed=0;verticalLabelPosition=bottom;verticalAlign=top;align=center;html=1;fontSize=12;fontStyle=1;aspect=fixed;pointerEvents=1;shape=mxgraph.aws4.cloudwatch_metrics_insights;" parent="7KC2XA-bAF72a5EF2EjA-3" vertex="1">
          <mxGeometry x="1627.75" y="677" width="77" height="78" as="geometry" />
        </mxCell>
        <mxCell id="7KC2XA-bAF72a5EF2EjA-133" value="&lt;span&gt;CloudWatch Alarm&lt;/span&gt;" style="sketch=0;outlineConnect=0;fontColor=#232F3E;gradientColor=none;fillColor=#E7157B;strokeColor=none;dashed=0;verticalLabelPosition=bottom;verticalAlign=top;align=center;html=1;fontSize=12;fontStyle=1;aspect=fixed;pointerEvents=1;shape=mxgraph.aws4.alarm;" parent="7KC2XA-bAF72a5EF2EjA-3" vertex="1">
          <mxGeometry x="1626.75" y="489.5" width="78" height="78" as="geometry" />
        </mxCell>
        <mxCell id="7KC2XA-bAF72a5EF2EjA-134" style="edgeStyle=orthogonalEdgeStyle;rounded=0;orthogonalLoop=1;jettySize=auto;html=1;strokeWidth=2;fontStyle=1" parent="7KC2XA-bAF72a5EF2EjA-3" source="7KC2XA-bAF72a5EF2EjA-132" target="7KC2XA-bAF72a5EF2EjA-133" edge="1">
          <mxGeometry relative="1" as="geometry" />
        </mxCell>
        <mxCell id="7KC2XA-bAF72a5EF2EjA-135" style="edgeStyle=orthogonalEdgeStyle;rounded=0;orthogonalLoop=1;jettySize=auto;html=1;strokeWidth=2;fontStyle=1" parent="7KC2XA-bAF72a5EF2EjA-3" source="7KC2XA-bAF72a5EF2EjA-136" target="7KC2XA-bAF72a5EF2EjA-132" edge="1">
          <mxGeometry relative="1" as="geometry" />
        </mxCell>
        <mxCell id="7KC2XA-bAF72a5EF2EjA-136" value="&lt;span&gt;CloudWatch Logs&lt;/span&gt;" style="sketch=0;outlineConnect=0;fontColor=#232F3E;gradientColor=none;fillColor=#E7157B;strokeColor=none;dashed=0;verticalLabelPosition=bottom;verticalAlign=top;align=center;html=1;fontSize=12;fontStyle=1;aspect=fixed;pointerEvents=1;shape=mxgraph.aws4.cloudwatch_logs;" parent="7KC2XA-bAF72a5EF2EjA-3" vertex="1">
          <mxGeometry x="1627.75" y="889.75" width="78" height="58" as="geometry" />
        </mxCell>
        <mxCell id="vQTYE8nqGTHFnHXz65wk-2" value="DynamoDB" style="outlineConnect=0;dashed=0;verticalLabelPosition=bottom;verticalAlign=top;align=center;html=1;shape=mxgraph.aws3.dynamo_db;fillColor=#2E73B8;gradientColor=none;fontStyle=1;labelPosition=center;" vertex="1" parent="7KC2XA-bAF72a5EF2EjA-3">
          <mxGeometry x="94.00000000000045" y="1520" width="72" height="81" as="geometry" />
        </mxCell>
        <mxCell id="vQTYE8nqGTHFnHXz65wk-10" style="edgeStyle=orthogonalEdgeStyle;rounded=0;orthogonalLoop=1;jettySize=auto;html=1;strokeWidth=2;strokeColor=#9933FF;" edge="1" parent="7KC2XA-bAF72a5EF2EjA-3" source="7KC2XA-bAF72a5EF2EjA-27">
          <mxGeometry relative="1" as="geometry">
            <mxPoint x="520" y="1100" as="targetPoint" />
            <Array as="points">
              <mxPoint x="380" y="1080" />
              <mxPoint x="380" y="1100" />
            </Array>
          </mxGeometry>
        </mxCell>
        <mxCell id="7KC2XA-bAF72a5EF2EjA-143" value="&lt;span style=&quot;font-size: 29px;&quot;&gt;Parceiros&lt;/span&gt;" style="rounded=1;whiteSpace=wrap;html=1;fillColor=#fad9d5;strokeColor=#ae4132;labelPosition=center;verticalLabelPosition=top;align=center;verticalAlign=bottom;fontStyle=1" parent="7KC2XA-bAF72a5EF2EjA-1" vertex="1">
          <mxGeometry x="-1520" y="1320" width="360" height="230" as="geometry" />
        </mxCell>
        <mxCell id="7KC2XA-bAF72a5EF2EjA-144" style="edgeStyle=orthogonalEdgeStyle;rounded=0;orthogonalLoop=1;jettySize=auto;html=1;strokeWidth=2;strokeColor=#9933FF;fontStyle=1;exitX=1;exitY=0.5;exitDx=0;exitDy=0;exitPerimeter=0;entryX=0.5;entryY=1;entryDx=0;entryDy=0;" parent="7KC2XA-bAF72a5EF2EjA-1" source="7KC2XA-bAF72a5EF2EjA-174" target="7KC2XA-bAF72a5EF2EjA-167" edge="1">
          <mxGeometry relative="1" as="geometry">
            <mxPoint x="-1455.0000000000002" y="302.50999999999976" as="sourcePoint" />
            <mxPoint x="-1295.5811764705884" y="739.9980697973856" as="targetPoint" />
            <Array as="points">
              <mxPoint x="-1200" y="1443" />
              <mxPoint x="-1200" y="1240" />
              <mxPoint x="-1309" y="1240" />
            </Array>
          </mxGeometry>
        </mxCell>
        <mxCell id="7KC2XA-bAF72a5EF2EjA-145" value="" style="rounded=1;arcSize=10;dashed=0;fillColor=none;gradientColor=none;strokeWidth=2;fontStyle=1" parent="7KC2XA-bAF72a5EF2EjA-1" vertex="1">
          <mxGeometry x="-1470" y="1366" width="260" height="160" as="geometry" />
        </mxCell>
        <mxCell id="vQTYE8nqGTHFnHXz65wk-12" style="edgeStyle=orthogonalEdgeStyle;rounded=0;orthogonalLoop=1;jettySize=auto;html=1;entryX=0.5;entryY=0;entryDx=0;entryDy=0;strokeWidth=2;" edge="1" parent="7KC2XA-bAF72a5EF2EjA-1" source="7KC2XA-bAF72a5EF2EjA-146" target="7KC2XA-bAF72a5EF2EjA-167">
          <mxGeometry relative="1" as="geometry" />
        </mxCell>
        <mxCell id="7KC2XA-bAF72a5EF2EjA-146" value="Usuários Mobile/Web" style="rounded=1;whiteSpace=wrap;html=1;fillColor=#FAD9D5;strokeColor=#AE4132;fontStyle=1;labelPosition=center;verticalLabelPosition=top;align=center;verticalAlign=bottom;fontSize=23;" parent="7KC2XA-bAF72a5EF2EjA-1" vertex="1">
          <mxGeometry x="-1408.29" y="240" width="198.29" height="180" as="geometry" />
        </mxCell>
        <mxCell id="7KC2XA-bAF72a5EF2EjA-148" value="Usuários" style="sketch=0;outlineConnect=0;fontColor=#232F3E;gradientColor=none;fillColor=#232F3D;strokeColor=none;dashed=0;verticalLabelPosition=bottom;verticalAlign=top;align=center;html=1;fontSize=12;fontStyle=1;aspect=fixed;pointerEvents=1;shape=mxgraph.aws4.user;" parent="7KC2XA-bAF72a5EF2EjA-1" vertex="1">
          <mxGeometry x="-1351.32" y="286" width="84.35" height="84.35" as="geometry" />
        </mxCell>
        <mxCell id="7KC2XA-bAF72a5EF2EjA-156" value="API Parceiro de pagamentos" style="outlineConnect=0;dashed=0;verticalLabelPosition=bottom;verticalAlign=top;align=center;html=1;shape=mxgraph.aws3.api_gateway;fillColor=#D9A741;gradientColor=none;fontStyle=1" parent="7KC2XA-bAF72a5EF2EjA-1" vertex="1">
          <mxGeometry x="-1378.25" y="1386" width="76.5" height="93" as="geometry" />
        </mxCell>
        <mxCell id="7KC2XA-bAF72a5EF2EjA-157" value="" style="dashed=0;html=1;shape=mxgraph.aws3.corporate_data_center;fillColor=#7D7C7C;gradientColor=none;dashed=0;fontStyle=1" parent="7KC2XA-bAF72a5EF2EjA-1" vertex="1">
          <mxGeometry x="-1450" y="1344" width="30" height="42" as="geometry" />
        </mxCell>
        <mxCell id="7KC2XA-bAF72a5EF2EjA-167" value="" style="image;aspect=fixed;perimeter=ellipsePerimeter;html=1;align=center;shadow=0;dashed=0;spacingTop=3;image=img/lib/active_directory/internet_cloud.svg;fontStyle=1" parent="7KC2XA-bAF72a5EF2EjA-1" vertex="1">
          <mxGeometry x="-1364.14" y="739.9999999999999" width="110" height="69.3" as="geometry" />
        </mxCell>
        <mxCell id="7KC2XA-bAF72a5EF2EjA-171" style="edgeStyle=orthogonalEdgeStyle;rounded=0;orthogonalLoop=1;jettySize=auto;html=1;strokeWidth=2;strokeColor=#9933FF;fontStyle=1" parent="7KC2XA-bAF72a5EF2EjA-1" source="7KC2XA-bAF72a5EF2EjA-167" edge="1">
          <mxGeometry relative="1" as="geometry">
            <mxPoint x="-1140" y="1080" as="targetPoint" />
            <Array as="points">
              <mxPoint x="-1260" y="1080" />
            </Array>
          </mxGeometry>
        </mxCell>
        <mxCell id="7KC2XA-bAF72a5EF2EjA-174" value="&lt;span&gt;Customer&lt;br&gt;Gateway&lt;/span&gt;" style="outlineConnect=0;dashed=0;verticalLabelPosition=bottom;verticalAlign=top;align=center;html=1;shape=mxgraph.aws3.customer_gateway;fillColor=#F58534;gradientColor=none;fontStyle=1" parent="7KC2XA-bAF72a5EF2EjA-1" vertex="1">
          <mxGeometry x="-1248.3600000000001" y="1407" width="69" height="72" as="geometry" />
        </mxCell>
        <mxCell id="7KC2XA-bAF72a5EF2EjA-177" value="" style="shape=image;verticalLabelPosition=bottom;labelBackgroundColor=default;verticalAlign=top;aspect=fixed;imageAspect=0;image=data:image/png,iVBORw0KGgoAAAANSUhEUgAAANkAAAB+CAYAAACpp7QgAAAgAElEQVR4Ae19BXQU19v+7/t/7lKhXorV3b2lFAotLqUtTpGiLV6geHFN8CAJSUjwECAEjSAJhABxF+Kuuzuz+vzPc5dJNiGebEjKzjn3zMrMnTt33mdef+/fYNtsM2CbAavOwN+s2rutc9sM2GYANpDZiMA2A1aeARvIrDzBtu5tM2ADWYugARNg1AN6CSadpuU2vQYwyIDJAMDUImauNQzCBrL7/ZSMBhhLs6BP8IYucC20l5ZCe2lJC21LobuxGYbUqzBJxYDJBrS6kI8NZHWZJWsdYzLCmB8L7cXZkBzehmZTO2g2Pteym31HyPu+gC5oM0zqXBvQ6kAbNpDVYZKsc4gJJk2eIFZp60vQrH0GmjVPt4627llI+zpDH3VYiLbWmZ+/Tq82kN2vZ2kywJgTBvnoD60LYMqLwP4laC/OgUmVdb9msNVc1way+/WojDoYUq5Acu3eOriXAi5lv7EDtF6/wFiYeL9msNVc1way+/WoDDoY7vhDcv269YLs1HgYCxLu1wy2muvaQHa/HtVfBmTx92sGW811bSC7X4/KBrL7NfPNfl0byJp9yu9e0BogW/csNBvaQWP3AjRbXoW09Q1IW16FZtPz0Kx/rmkNLNTJhLho42S1kZANZLXNkLX+b0qQEVz2L0By6gz52BBoz82A1n8JdFdWQue/BFrvqZDd+0La9qYZbIrxojF7G8jqTBk2kNV5qpr4wKYC2YbnIDl/DZ3PfBiij8KQeRPGkjThKDZp8mFS5cJYmARDkg90V1ZApjVzY4fGG1tsIKszQdhAVuepauIDmwJk69tCdu8FffRhmFTZd2MKqxmnySB8WvpwF8hu35nFShsnq2aymvZnG8iadj7r3ltjQbb2GcHB9NHHAJ2q/LpGPUxyMQQXk4sBg678P5NRgFF/ywHS3s8ap6PZOFn5vNbyyQayWibIan83FmR2HaANXA+TVFA+RIMMY3aoCNXSXf4TuhtbYUi/Bujl8mMYL5kXLYwWmk2NEBttICuf01o+2UBWywRZ7e9GgewZSLvfhyE1wJwiw0GaTDAWJkN7cS6kHe9As/llSDvfg9b7VxiyQwEj01PMG4HJiH9p+5sN181sIFOms9b9XxZkzMIwGI2QtXqUqrQoLNIgr0CNnDwVsvNKkZNXitx8FfILNSgukaGRdNAbjDA1V/pGY0BGUXHPx9DHnhJGDepjNHDooz3F72XBxjxu90fQ3dolREiFGkx6CfrQfZB2fQzNmgYGJttApkxnrfu/HMgIrFK1FqnpRQgKScPJ81FwPBCMjQ6X8efGC1iw6gzmLvfG/JXeWLL2PNZs9cMO52s4dDIMfoGJiEnMRWGxBJ3eYF3ANQZkNFhs6gTJ9TtoPYZD6z0ZWp95kA8Pqmg5pGl/22viP2NJahkxmAxa6CMPQNrzmQ1kZbNivQ9/CZCR+ZBjZWaX4NqtFLh53MZKex/8+ocnRv92CD/+4oYBo53RZ7gTeg7Zi29/2oPvhuxB72GO6DdqH74f54rhkw9g/KyjmL/yDBxcruGcfxwSkvMFYI1GU9PnJzYWZASacD4/B82mjkI81Nh1gmTfSYiS8oE+kL0mQOu/FPrY48IQUkZGRp2wSEp7v7CBrGxSrPeh1YPMYDAiO7cUF6/EY/0Of0ya64GfJrgJ8PQcuhffDWHbI4BFcFXXeAyPJRC/H+uC0dMOYcGaszjgGYKYxDxoJH3TAq0pQKaY4Okr2/UeZM+R0AWshSHxjDCAmIpTYFLnwKQtrWjeN+ptILMepu7pudWCjNyrRCULkXCjwxVMmH0UA392BoFVHZDq87sA3AgnweEWrjkHz7ORglNSjGySrSlAtq4tpF3vQHtxHvRxp2DMi4FJU2Cuw2HUAQYtTDq1ObHSwvDBeiL0rdk4WZM8yVo7aZUgMxhMyMopxYETIfhtwQkMakJwVQYiwdZvpBN+nnYIG3ddRnBYOiRZ3/gyMo0F2bpnzY7oyEMwlmbcLXBjBOgLkwphzLwFXcg+6K6uhj7ECcaiO+XFb2wgqxUYTXlAqwMZxcP45Hys334JQye6odcwx3pxLoqFPGfAz8748Zf9GDb5AEZOPXhPGzbZHf1G7ivrmxxy0BgXYTShaFpUIjUOaI0BGdP/HT+HPuEcQFFQGYnRCFNxOnRX10By7QbN1tcgbXkFWo8RMGbcFAAUxGMDWVNiqNa+WhXIaGKPiM3GkvXnBQC+q0HHqooj9R+5DxPmHMOarb6CC/oGJOJWeAbCY7IRGZdT1iJic3AlKBkzF5+qIH4SoH1HOmHyXA+cOBeJomKp4XpaI0Am2XWE7spqQCq0eMAm8V0fvBPStlfNRhHqbOufg/bYUKGjlQ3WBjKLebP+x1YDMupCYdFZmLXUC32G14970aI4aupBbHUMQHhMltDl2J/ZakjLYcXG3zNzSrFozbkKIFOAS65GS6SHd4TwszWoMFpjQLbnQ+iTfcsd0aQTRnLkRpvN+OssfF+bOkF7ehKMhRYZzARZzFFIjl80PLTK5ierMzpbBchI9NHxuVi07hx6DaufYYPcZ8hEN+w7dBOZOSUCWLXNDo0qWbmqakFGsFHknDD7GM74xAhnd72d2I0AGc3zhuzwcvHvLsgMmbchuXSuEMUhbX9LWBxN6vzy2zYaoE88C8mluw1k5bNitU8tHmQEWGpGEVbY+Qg9SuEmdd1T91qzzQ9xSXl1Apig1zqATAHajEUn4ReQCJVaW7+H1BiQHR4s4g/Jvco2UcMxBvIRpfrVM9BsaA/54EAY7lyCqVKgsDE3EtqTY8w+NsUVUJ+9jZOVTX1tH1o8yPIL1XA+EiyMFPXRwQgCcrEx0w/j5LkowW1qmwyKfaKZTMjKrV5ctAQ4ndnLNl5AVFyOCMuq7Rpl/zcGZG49YcgKrcjJwDqO+dBd3wJp57siK5opLfoQR5jkkrLLKh9M2hLogrdB2vlBw7iZDWTKVNa6b9Eg0+oMOOsXi/GzjtRbTCQQeg51xO9/nkZIZCYMxuo1J/6nkfUoLpVFo+WQ0R4MvaIJ3xJUVX2mldLx4I06i6N8Kga9Dpokf6ic61+titWG6ReDsRL3pPmeJb+jjkEXtl8kcDLtBfSZifr1FvRgMsKQcQPykcENyy2zgcxiMmv+2GJBZjSZkJJeiOWbLqL/qHJTelVEXt1vfUY4YZW9L5JTC8oMa5WnQ6s1IDYxF2f8YnHwRCjcPUJEWNau/dcxdsaROoGs19C9mPqHJ/wCEqDWWORvVb4YAGK9RDYhJlPGZX8f3NneAJAxzcX3D5joH7MUGXk9Au3uwhUEl/CZZYfBmBcrFrQQQ+Ix6jzoIw6bM6VZ/6M+oiKP3dgB6hPjoM2LVxwIVdyt7SfOQIsFGYN8j54Ox4ipB+tE6FUBjX4u+91XhOO6Kj5GA0dKetFdIJujRci5ylv1YViVr0exkWFdd9IKq9X9tAbgTqEJh2/pMGV/CcavOYuA1RUNFXUidkbXO7xjFgVLMyuksZSRtdEgyoDrYz0hnxgN7fk5MGQEixArU0ka9Lf3QnbtUc7FlCI8LE3AYjy1lA0vWd8BCfvHIjQqDvlqEwwW6mHZGGwfxAy0SJDR2BGTkIulGy6IGMTKBF3X7+SANNvn5FtkDls8eHLLG6FpmDjnWIOBrIyF+t/4mUfhezVRpM1YXEZwryLJhEsJBiz3kjFgixo/bi6CvfN5JG7rUjMXIbGvb1vu91I4Dh3STl+YYxXTA0UlX4KHjVV9jenXoQveDvnQAGjsOoBWRu2ZX6GPOABd4HrIzl2g2cgFLtpD2vEuZPfe0J742RzRf+JnSHs/v/eayrXXPI38Ne3htXE05u6LgOMVLSIzjaDthy8u21ZxBlokyBi2dPxMBEb9dqhRxE+QbdsXgNyCakBmNOFqcHKdxUIFUNXtyc22OQUgg66Cu9RmMJm5l/M1HX7aoca361SYeVCCZ4gGudH+0Lh0rRlkW16FvP9bUYmKFak0a58tP54cjVH3br2g9Z4iiulofedDe2Yq5IP9oNn6SjlQCFamxzi8C83Wu85q1ghx/Qa6axtgSL0CIwOKNXkCqASiZlP78mtZAIzctmhde/hu/RkTt4SjzwYV5hyWcCFGL7haDepvRep7QL61SJAxqn7tNn/0H90wXUwBQZ1AdqPpQEYn9YzFJ3E7IgNavQEqLRCcasQqbxk9N6owfKcGW3y1iM42Qi1ray/TTRA5fg7d9U3Qh+wTpd5k5+6QNr9i5m6KSMf9hnaQ7DsK0AkOpfxXCRwVxNGN7SGfGAt9jAcMKf4w3PEDI/eh00B3ay8ku+rLE6g3dED24XG4eD0Gi47L+H6rGuOcNNh/XYekfBMoGjfpxpdWK2WTLQ5kDP4NicrEtIUnynK/FNDUtqfIRicxDR5sg8e5YqfLNZERXdUDJ7cJvHlHhFoxXEo5T+yHO1YZ7VHbGH4cvx/Hz0Yio0DGmUg9JrlI6LFejWluGpyP1aNQYzIbCupqwt/6qhDzWNLNmBMOQ4wntBfnQ3LvBYkciaJkXQBVGWw8x64DZPee0PovgvbqKmhPT4Ah3luUk9P6L4ZmQw0GkY0dIJ8cDyk3Hgl5Ruy5qsOIXWoM2qLG2rMywjONkPVVzXo9f2M0jloNY16eaKaiIvHdpNUCRgZEt3z5tMWBjKKi18VokWxZG0FX/p+O5+mLTmL1Zl+R8cxs6POX4kUYVVWPls8nLjEPtCSu3eYnzmGmNBvjI4dMdK/VfF95DL2HO2H51stwuFiIUbvU6LORRKdFWIYBsuXbva4gY4jUttfMHCf6GEyFyWKRB0PiOREILB8fZa48tfmlmqsEE1QEJBM7d7wNyeUbaE+Ng+7aRhgSzkAfdQTy6V8EN6OjWj46uGbwWpjwKRJnl5pwKlyPaW4SBtqrsdhTQtAdA9T0HlQ1+Xd/Y6SMrDOgsFRCfrHmXl+jVgtDaBi0O3ZAXrEM2g1rod27G7oTntDfCIIx+Q5MpaWAwdBiAdfiQFZQpBFETy5UmYBr+k6LIHU49+MhiE/OE1Y+Wg7zi6p4cBYPXS3pkJ5VLI6nZZAtObVQZFjTLF/TNav6j+MY/NsJ9F6ZhkFbVXC4pEVqkUkYPywuK0q11XlVl7UsN9BRpLbogrYIjkZnMs3wTGnRh++H7tIyyB4jRJk4yeE9USRH2v4GpJ1vQ9r9ISSXbpCPDYX2/GywD33sSRizw2AqToWBaTGB68R6Y6xkJep/7HirWn1MiJwWION9EUg0fAQkGTDvqIR+dmrMPiLhcqJZbK4MNEoRKo0OyRmF8AlOhtOpEDifDkFsSn5Fn6ZeD0NkFKTFi6H+/AOo334B6k/ehrrHV9CM/BHy3NnQurrAcP06jHm5MOmI6spXqzDzzf6lxYEsLbMYKzf7iGj3qoi4ut+oD42deQRn/GNFKQI+RLba5puPg29T5XjumU7DWh9T5h+vN8g4vh6jDmDUpiQcuqkVb3i+6e/Z6srJLMU8ZkA7fAjt6YnQxxyDqSTD7PvSqWAqzYQxKwSGpHPQR7hBd2sPdDd3Qx/qbK4snHRBAJLVhJnYyWxpY1Gy4GBar4mQ9n4Cmf1GuJstkrX5ziqBjPfH25R0QEi6EavPaDFwixqT92sE0Czdh+RciRlFOOoThWW7/TFq8XH0nu6OQb8fwtbDQUjLLTcciX5lGfrgm9BMmQDVm52gfuEJc3vxaahf7wB1l48hDR0Eed1q6H19QJFSiJL3TPr9+aFFgUyIb0l5+GPVmXrniSkgO3spFowUacxGvZApMONmHmkQyPqOdsGu47HILamhZEFDQKYAzq4TZNdu0PktgiH+NFgkhxnQzHgWTacRoVQMpzJp1SJD2vyfrgxcPE/rt8C8CKHd88IKycpWtDZKdp1q5mIcRxUgU+ZcbwTico1CTO69UYVphzS4mmyAWmsUIuGZwHgs33sJP8w7gi4T9uHj0Xvw0ajd+GzMXgxbeAweftEoqRQLatJoIB89guLvvkLpC09C/fzjFRt/++A1aL7vA+2WLTCEhcEkyy2Cq7UwkJkQFp2JOcu87ivI9HojLl1LwvApBxoEMlo1D54ME0V4FMK7Z98YkJHI6Sfjyi0u3aA9+5vwiQnjCEsQlGYJUZLiJMvF0TTPoqc0auiCt5pN/C7dzSu+WHIsOqTrakipAWS8VwItNteIdedk9LVTYYqbGt43c7DjWDCGLzqGrpOc8cnPe/DxqN0CYAQZPxN0v285j4jEnIpio8kEXWIiCmZNR/6bnVDa6bGKIFNA99LTUH/yDqTxo6HzPm3marWJM/c8nKb9oUWBjE7om2FpwgzOUKXqRMOqfm9KTqbV6uF1IQo/jK+fXqiMq+8IJxHLyFjIarfGgkzhagSG3fOikKm8v4d5VZfTE6E9P0voX3RAa0+MhnxkEGSXbuI4sbTSura1cyvlGlXtawEZ75tAozl/8Qk1uv2ZjKF/XkSv6e749Gcz5yKwKrePR+/GwDkHcehChNDZLOfPqFKh0NERqZ+/j5yOj6G0UyVupgDt+Segfq0dNP2+hXaXA4w52fdVfGxhIDMiKCQV0xedqLf5XDF8sO5HYkoBUjOKQf2usEgSOpblw7L8zCpUWTkl4niew8a0GAfXa6KMnAKc+uxZ8WqnSyAKizWWl6r4ualApgCA1kPBidqZ01fsXoTG/kXz2mQb2pstj/y/IeZ+5RqW+zqAjDdMx/T50DwMXuqDz8a5lImGlcFl+f3rifuw3PESUnNKKlom9XqoL1/GnT7dkdihDXI7tqmeoxFwLz0DTdfPIG+xgzE9/b4BrYWBzCRANq0BICMI6Ov6efph4WOjKZ8R+Me8wkWZgIoUbv5GgwfF01X2PmBeGM+ZvvCkKM5DUZHcsT7gUo5l5vYO52YGmSUAmuNzHUHGmQ6Jz8aY5Sfx6c977+FcluBSPlM3m7zmNIKjK2VPsCJ0VBTu/DQA0e3bIKHdw8ipBWiql55G8VcfonTjOhgyGefZ/EGWLQ5kwWFpgtgbSuDkaDyXjSXitjsHVh9WZTIhIDhZxBzSia2cxz37UUBT3z2d2Xvcg0SxnarALX5rak7WHMCyvEY9QEaz/KQ1Xvh0TN1A9snoPfhp/lF4XYmraMQyGqGNi0Pq0EGIat8GUW0fEkDL69gGqipER9Xzj6GwUxtkvfAEsr76GKW7d8NIy2Mzby0LZCYTQqMyMHupF3oNrV8dj6qA0NxhVcoYhOHjRAhK1c2gk1kSfnN+LgOZRe2Qaog3M68UC3b64MtxTnXiZNTL+s5wh8vpUKg05TlzJqMRUkwM7gwZKEAW2fYhAbTEdg8L0VFlYQzhZwIss2MbpLZ/BGnPP4ns3t2hOXkSJqmG51LNPTTm5xYFMopv0Qm5mLfCu97WRYXALff3C2SDxjjjrF+cqM9Y7cMx6mBIuWwu3dac4GiqaxFkXr+IiP9q7/HuHzTHbzsShK4TnesGslG78e1UV2w/egOFJVJZ9yaDAergm0ge2BtR7R4FQSaA9txDiG/3MPI7Pgoz0O4CrMMjAmAEmQDay88ib8xIaEO4yk3ziY0tDGTm/C4uDEGRyxIwDfl8P0DG+Mlhk9xxMyz93hChMnKh59YAY24EZI+hTWeMaCoA1aWfzS+DEf9ihU/L+6ris05vhN+tZPSd6Q5yKUX3qmn/zWQX2B24hryicuORUZJQePAA4r/8EJHPPVwGMgVsBFpux0cFB8vo8GgFgAmgdXgUGe++jOIVy2DI5sqkVUUJVHEDjfypRYGM98LljZguMmisS6sEGfW5KfM9EZtYW+Ee1uQogO7GNkhbX25dQKOPzvlrc9SJvpzT8PlRGqlMu4yiycpXYdJqL3w+tna9jP6yHlNdse1wEAqKy/vXZ2cha8lCxLzR6R6ARbR9CGyRz5n1tDt3uZfCxcr2HR9Ddr9vIfv4APqmiGCuHYEtDmRcJ4xR7MyIbgj3sjznfnCy3sMdsXa7HzKyS2pfeokEWXQH2svLITl+Bs3mF4XPi36vFtmYz7b1VcgHeon4RlE/xAJROoMJGfka5BXLFR3J9JkZjDjiE4k+M9xq5WTkdv1nHcSBc+FgbKkAr06HYu/TSOzZFRHt2yC07UO4+dxDCGj3MC62fxjeHR7B0U5t4NypDdw6PYpznR7F9U6PIqxTG8R1eATJ7R9Byl3gZbz1PIqXLzFbGy3GXztcGnZEiwOZVm+ET1Aqxs7yaJUgYynvQydDxcKCdXokXOO5NBN6RtUH2UMXsBq6q6taZgtYA91tB7FErkkuqiBuUfDKLZZx5FIyzgSlo7BUW4GjkZaTs4qEAaQ2bkYT/vgVJ3ElJAWMvmHQryY2GomzpyHgzY7wfL4NHF55HAvfexrjO7dD7x6d8NWAl/DR0Nfx7og38MGw1/Hl96+gX9+XMOXb57H+47Y4+saTuPZiG8R0fBR3Oj2OnB/6Qfb3NwcU1+lBNfygFgUyPqiMYhM2eReg77Tz6DGkcXpZc3Mymv2nzDuO4NB0UA+p/8bERPOiES13X7UeI6J14vIwe+cNzNgWhICIHEiVMje5QCPDpcYu80TncY4VQqoU/YzRILQs0uiRXaCCXqdDXkIMLq9dhA093sGobzoJMHWc9D6enfERnp31cbWt7dxP0W5JZ3Ra1hlvzvkU3w95HRs+aQvfV55A4gevoWSzHYyFlqXO6//E6nJGiwEZHx0ziVlkZvCWYvT6/Qb6jHGv09piliKi5efmBhmd4Rt2XhLFWEl0D9KmkQ04fiUFw1f4o/e8C1juEoLb8QVQcwUcC5FM1ulxMSgR0zeeRa9pbvjqFyd8NnYvPh/niG6TnDHkjyPY6BaIqOQclGhUiE6OgsP+DRj8aw+8Pu49PPfbh3imBmBVBl3beZ+h/dLO6LCyCzou/wpvzf4EI75/FW4fd0Ti7F+hTUiwuqWxxYBMZwSupRgx3kmDAZtVsDuehll/eoNxgJbAqc/n5gbZyF8P4oxvbK1l4f5q4COGqIttPhaFPvMv4Ovp3ug59xz+2BMM39sZyC2UhE6mvHZYmiE+rUD4wRY7+GHimjOYtum8ANf564nIyi9FkUYF/9gbmOS6GG8t/A5tZ31SLceqDKwK32d/jLbzPkW7pV+iw6ou6LiqC15Y2hldJr4P+9+H4k7QZRiYg2bFrcWALFdlwmZfLfrZq7HmjIyIFDX2H7uNYZMONDj6ojlBRi7256aLIu6xpkKqVnyW961rcu3I5CIs2HMTPWafRZdp3qJ9N+ccJm64DGfvKNyMyUJGXimKVbIwZtCgkVukQWJGIcKT8hGTWii+M9dMq9fhZkoUJh1YjpcW9cCzsxsIMIXjCaB9hvbL7gJtdRd0Wv4Vvl3/IzyueECtqbrQUlNNaIsAGSWrq0kGjN2rEZwsINEASUfHdI7ILWsoN2sukNFsz1VevC7GoIQy7wO26QxGXI3IwRS7QHSbcaYMZARb1+ne6DXHC+NXncWG/YFwPR2KE5dicDYwAeeuJyA0Lgs0dgnT/915yysthJ2PK976s2/jAVYJaO2WfSm4WcfVXfDWpn5Y47MbOSV5Vn1i9x1kFCGKZRN2+mvRe5MaO/20yFOZfS005x/zjhD17EnI9REVeWxzgYylEujbS04rBBM+H7RN0hmERXHUqsv4enpFkAmu9ttpdJnqga8nuwv/Fw0bA+ccwvDFx4SZvnKSbVJeOqYdWoUO875qmIioAKvynhxtvpmjUWx8ZUNPzDtjhzsFGVxJwGqP7b6DjFwsKtuI2QcljNilwZUEQ4V6GCkZRdjqeFVUnmI0RX2A1hwgY5VihoHdCEkDS34/iFuppMcR/zv4YalfBS6miI3m/Wl8MfkoPh3rgo9GmfPJaPg4HRB3T2RMWmEWFnja48WF3zQtyAg6C9HxxbU98Ovx5YjJTqxgnGnqZ3jfQSbpAa8IPYY6aLDYU0ZSvrHCO4Wm8Mi4bCxeew4D6lmH0dog41ppU+d7wutCtMgds967sKkfe9P2V6TSwfVCIgYu8qkBZN7o8psXvpx8DJ+OdRZ5ZX1muOPctYR78v1UshonQn3RZ/sUdJjfxTpAm/8ZOi3vinHu8xGWGvXXBhkNHlt8tOi/RY29V7VgOevKG8UJLi8758/T9Vpl05ogY2oMF6Q44Bkilll60Ez2ls+Ijud95xIwYGEtIKNB5LfT+PIuR+s+xRX7vELu8aeJMKziPLgGeWHAzt/w4oJv0Laxxo8qRMcOCzpjpNMs3L4TDmPlhTssb7CRn+87JyPnWnBUwtCdapyN1ldbebZUpYVfYKJIruw7vG5mfZbN3uoUgOw8lQjzIRAsG6tSXQlKwpgZh+tlwWRpBBbZcTlyUyxY8SDqYZZ0V6TSwuV8Qu2c7K7VUeFonSfsx0y7c0jJKr5nkQ4SfW5pAU6F+WP8/sV4c2lvtJ39aZNytfZzv8DoPbMQkhzx1wAZfSkMgmAoWqnWhELJJOqmX0kyYPxeDaY4a3A73Yjq7AY8n0C7FJgodKB+I51qdVTTrL7C/iICb6WI5XCZRlOhxeXg8MlQjJhKN0Hd9D1mB/wy+yj2H7slnM4Ni+ywJNHW/7lEo8MB3yQMXuJbs7g4zVsYRrrPOoses87g25knMGzxSZy8HFsWo2g5G7Q4lkoqXE0MwRyPDXhvxQA8N+ezJgNah7lfYsK++YhMi2md4iKFPoKK4l9ivhHX7xhwOsIAlyA9dvhrse6sVqxwMs1dQvdVKiw8LCGlsGYbD4Gm0egQdDtV+KR+GL+/xlLetEgOn3xAFOaZu/w0qmpc0YUcrzaDCkHI2vzTF58UC7KnZRXfo0tYEsiD9JnRHp4BqRi63L9KkBFUff+4gNGrL2OK/TUs3Xcbaw+EY9vxSLhfiEFQZDo0cvUOYY1ORlh6HJad2o4PV37fZEDrOO8rTD+4Egk5Ka0HZAJYJiBPbcKtNAM8QvVY7i1jiosGI3ao8eNWNU9X3zoAACAASURBVAZvU2PwdjW+367G4B1qfL9NjYFb1djhp0WB5l59rCpilWU9ouNz4Hjghlj2iByrOk5kWY6AoLun1aHMQO9hjgKsLLrK9aHzCtX3RJlXNc4H5TcR1H07C2PXXUXXuyb8bjPPYMDCi/hlQ4AA1BH/ZARG5iAssQCJGcVIyS5ERk4ucvPTUViQAHVJLGRVAnRyLkyVVwUFoDPoEZOZiJWnHfDBykFoO7vxHO2FP7ph4XF7pBdkWfVRNZlORlN8rtqE09EGrPCWMcpBjT5rVeixTo0fdqgx/aAkVjfZc0WLQzd1OBmux7kYAy7GGuATZ0BsjrFafayqGWDqBFd/uXA5HsvtLmLoJPcmKVlgydEIXNbXZ5EdiodckZMraVrG4lU1tgftN+qkwbH5IjCYXKv3vPP4dfM17DubgBsxecjI06BUo4Msq6EpTUFRjj9ykx2RGbMWaeELkHJrMpKDRiLpxlikRq1FSUE4jJWX6r0LtNisZEw/sgavLP620Y7qN5f0wqbz+1BQat0g4UaDjMV6GTl/5LYevx+RMMheje82qPDzPg3WnZXhcUuH68kGUX8vp9QkVjUplU1Q6wHJALEIAxdioGhZNz5WTsK0QqnUWsQn5ePk+WissPcRjmuKdawRUt+F3AkwcjqWdPvxFzfM+dML+w4Hiyzn3AK1SLsov7rtkzIDfA6JmaVYdygcv2wMwPYT0QiOyxd5ZYxT1GkLUJp/FZnRK5F0fThifLsg4uy7CD/9KsJPvYSwE50Q6tkewUc7IPDYmwjzH43slJOQZS5DXDGbgRzNNy4Y/R2mocPczo3SzzqvGYLDQd5Qa8uzr5V7asp9g0FG/Yi+V/9EA+Yfl9BnnQrdVqsw85AMtyAdwrOMQmykoUMAqL4IquNdslu+SWkUSUopwMUrCSL6guXdfhjnCiZREjgUGyuLlPyuiJMEJcXOMdMPi1r8x06HIyImG/mFGuh0Bhv3quF5kBYKVTr4hGTi7I0MpOWpRagULYQU/3ISdyD+Sm9EeL0qwBTq8QxCPJ5GyLGnRLt97CkEHXoK/i5P4KLT4/B1bY8g7564E+sMSZNzD9DyVUVYdc4Rbyzp2QiQfYofd/yGawkh0BusmyHdIJBxfeD4PCO2+GnxwxY1uq9RYeZhCd4ReqQVmkTKSnVWwhqeVaP/onmeSy/lF6qRlFogajge8QqD3e7LwpnNBfomzfUQ1kEaPH5d4Im5K7yxaosvnA4FCxcBF5rIzlWJKkkUSUlAtq32GWBQtErSi9QWc4C0CVpNKjKiVyDq3AcIPd62DFQKuLgnwK4ffBJ+zk/g/N7H7rbHcXHfM7jq8RHiQ9ZAXXKnAtD0BgP8Y2+h8/oRDTTrf4KXFnwj9LGMwmyrv0DrDTJyr7BMIxZ6Sui+WoVBW9XYeVmLxDwjGL3REoiSYyDgdFztUq0V3Cgzu1T4tMjtEu/kIzElXyyTlJ5ZjNx8FUpKZTDXiQTSEu6hdrJu2UeYjDLyU1wRffFTCM51l2tZAoyfbxx6Cn7Oj+OCowKw8v0FpycR4PEBUiK3QieXB/HyvZeUl4G+26eg7ZzP683N6G/7bM1PcA08AbVsXVGRT6leIOOCbt5ReozarcHXq1SYdUQSVkSKhC2dMDm+6lrLJtfWOTqpNF7oX6Ge7arkYAQYRcSKHKwcYApXu+D4BK55fo7MpIMwGNRlk5Fbko/RTvPQsQF6Waf5XTDedTHC02JhbIbScHUGGQF2PsaA0bs06LZKhVVnZMTlGcFkS9tmmwHLGaD1tTjXF7G+XSvoXpZcLPiwWQe7UCYi3gswBWi+ru0QHTgD6hIWUjXL7/mlhRjvvBCdGhCp/8GKgXDwP4RSK+eRKXNSK8h4SyqtCafC9BiyTY2+m1QixpDLl7Z07qXcpG3fvDNgMupRkH4C0Re+RMixcgOHArIbhyrrYNUDjEC74PQEgs/2QUHWZZhMZiNFRlEuBu+ajnZzv6iXuNhpXheMdV6AyPQ4q+tiyqzXCjLqWZcTDPjFSYPe61Ui3yurpIrlWZUebfsHfgZMRgMKM70Qc7HzPZyMOpi/8xOoCwdTONkFx8dx/VQX5KZ6C/8ZOWVEejy624+tl+GDIVlfrRsOt2unmkUXUwihRpDR9B6aYcSMQxL6bFJjq69W+MRsHEyZPtu+qhkgCFQF1xB/tS9CPcutimYz/eMWVsSaOZglyG54f4v8DB+YjDqotRKcr53C+ysG4Nk61v6gsePtpf2w4pQDsotyrZqkWXlOqgUZIzhojre7YM5YXnZSFjGINN/bNtsM1DYDBl0+chI2IPrChwjxeFZYEekHq8qKqICpur2P8zMI9RuNkvxQGE0GJOSmYvLBlXhhQdc6ioqfoP2c7ui2fgk8bkZDamZDQrUgY1TGsdt6YaKf6qrBjRSDcCrXNrm2/20zYJ4B+smSkRWzDKGn38Gl/U81CGAUFa8cfgvJ4XaQNdkokVRwDPTEZ+uG1ilQmHloL/7xDT5dOQdfrQ7ArEMlCE031CuEr7FPtEqQkVtFZhkx46CE7zerRaxh6YNXH6axc/vAn08jhayKQ3LIfAQce0cYMKrjVlX9ToD5u72AyMsTUJwXjBJNMc5HB2LQrunoWIeMaQLslYXdMdJxHvZcvoz5x4rQf5MKK7wolTWfXaFKkDE9xeW6Dn3s1VjiKSO1sGJJgAeeemwTUPcZMBmhKYlDcuhyBHq8D1+XtgJsBBBbRXCZf6NvzMe5La4ceQeRVyYiP9MXJeoCXI4LxliXhXhZ1P6ouUwcjRxvLO4pzPxXYoNRIsm4mWLANDcJgzarBX0z66M5AnruARnDocjFph6QMMJBg7NResjWDe2q+wOzHdkqZ0BwNHUa0mK2IeLSGASd7oFAj09w+dDr8Hd/Hn5uHeDn1gmXDryCq0ffQ9CprgjzG4XkyC0oyL2F9PwUeDFD2nURXl/8Xa2lCNrP/RKfrv4Rf3jYIygxDJJOFu4mJgt7h+sxcrcGE5w1uJTQPGLjPSBj2UDqYn3s1PjzlAya65sD7a2SemyDrscMmKDXFUNdHIfcjAvISHBDUvhGxN9ajLgb8xEXvBCJoauQFrsbOaleKMgNQVbBHVxPDhM1GPtum4wXF3SrEWDtfv8Cry3+Dj/tmondlw4jJS+jQvAvreL07zpc0mLAZjXWectIL7a+v7cCyDiI1EITFnrKGLBRjeNhepuxox5kZDu0LjPAOit6GPQa6LTF0MkF0Ep5kKU8lKqykVucgfjsJPjGXscWP3eM3PcH3lsxEARQhfLbdwvj0DTPDOc3lvbGoB1T8afXDhFZX6ypeukqSmpMKJ7MROKdGpyL0ouY27qMvKHHVAAZ/WJBKQb8sFONSc4aROfY7PUNnVjbebXPAP1pbIwfLFGXICghBI4BnpjvaY/vHaYLcLHAqWWlKoKK4uALf3QVxXW6rB+Bia6LsfH8PvjHBCGrKBd6Y831L6mLMXl4wBa1yHlkPqQ1twog0+iAo7d16LlRhTVnZRSVL3JYrzFw0kpLS1FYWFhlKykpgVbbeHOlLMuIiopCWFgYNBrrR1PXZxJIPLzHoqIiSFIDJ7I+F6ziWAPXWFarKzwDzr2ulgUWVCoVbt++jcjIyLJj9Xo9eK7yTHlf/M5n0NggW84VQRYYexPbfA9g2sFV+GnnNHxnNxZdN40qa903jUa/LRMw2mkuZh1Zi80XXXH89gVEZsSjQFUoShTURbkhM6FLarKrBuP2aUT9GfqFrbVVAFmhxoR157Xot1GFgzd1DfYl8CFt3boVv//+O+bNm1ehzZ8/Hxs2bEBwcDBIBA3d+GCys7OxcOFCzJgxA3fuMOfIijNVxUBJXJmZmbh69SpiYmIEwSmHkSiDgoKwZMkSXLhwQfm52faci5ycHBw4cEDM/9y5c8V+y5YtAjw1zX1cXBzGjx+PP/74AwUFzE42ITU1FatXr4bSD5/jsmXLsGvXLnH/ynENvUGD0SAqU6UVZCI8LQ4B8TdxISoAZyKvwjvyqtifiwzApZgg3E6JQmJOCgpVRdDquNhg/Z47j2YdGrvz5kCLA0F6MADeWlsZyHjhzGITph7Q4KdtalxOMqCh0R25ubn4+uuv8dhjj+HLL7/EV199Vda6dOmC4cOHw9vbGyTEhm7Kgx88eDC6d++O6Ojoek92Q6+tnMfx+/n5CYLcsWMH8vLKc57436lTp9CzZ084OjoqpzTbnvOTkpKCpUuX4u2338YzzzyDV155BWPGjMHly5fLOFRVAyIX+/DDDzFgwADxIuPL5NatW3jjjTfw3HPP4bPPPkPnzp3x8ccfi7779euHw4cPo7i4uKru6vUbOREzqgk6Ziyz3IBloyjI/+sLrMqDIG0z6H3QFjVWn5aRZkUDSDnITBAlsgfvVGPMHg0SCxpudeEb9P3338fjjz8uJp/EZtl8fX3Fm5EPj5NFkYNiCM/jnuJV5UnkdxIuHySPI0GTewwcOBDdunW7B2QUiXgsAc9jKTZZijVKf+yTv7PxHDa+5fk7Rd78/HxBaOyH/VEEVMbGz8ePH0fXrl2xePFiQdS8F6WP5ORknDhxQoi0ykNm3zyP/fM+eb9K3/yt8sZx8TiOg8cp4if7qIkbsR+O//r16yDXee211zBkyBCcPn1acF/LuWBf7Jf9kyMFBgbivffeQ//+/ctARq7csWNH8VydnZ3Ffbm5uWHWrFnit2HDhgnOXdU9VL6nlvI9NN2Iqa4Spu6XRM1Pa4mMZSDjBWKyjPhuowqTnTVipZWGToYCsvbt2wsCJ+FZNoVA+KAzMjJw5MgRIYb88ssvQsTkW5GioELMHAcJjQSzaNEiwTl+/fVX8ZlvVUuQ8RyCwd/fX4gzkyZNAo/dvXs3EhISyt7gFGkJ9nPnzgmiI2APHjwIEk5SUpIAxvr16/Hbb7+Jt//EiRPx559/4uLFi+C5JKb4+HghDpKA+/btCx6/Z88ewaVJrImJieJ7SEiImEqeQ/2RIlxAQIC4b4rU7HvVqlWCSDlPyqbMD4+fOXMmJkyYIMRjEjkbdaaagMa54Fh5X5wnin+cVwVgyv/nz58XLwnOP0VvgvKFF164B2TPP/88vvvuOzE/HCdfXOR6PI/SyqFDh1qcbqzMZVX7tEIjlnrK+MlBA99Y64UNloGMps3baUZ8s1aF3w5K0DaiSIcCsnbt2gkQUUFWGt+uypucRE+5/qOPPsK7776LTz75RIgfFEO2b98uAEpCIHF6enqiR48eQuTh/59//rk4hyIpRVOKiyQevvH37t2Lb775pqwvclW+mUlAynEEN8FHTkhC//bbb4U4xDGQ6yocimMjgVJ8Iph43NGjR8Wb/8qVK/jpp5+EWPzSSy+J8fHtT65GLnbmzBkxBgKPG40zO3fuxOuvvw6KzbyHTz/9VIyNfY8cOVLoqjyW902wL1iwQHAKinw8lvdOsY3X27dvXwU9sCpCIhg43i+++EKMi/OjbHwZOTk5ifljn8q88vN//ud/Vgmy3r17Iz09XXTBMfIzwUu1wMXFRYBa6b+l72mDYAB8v81qHL2pBw1/1tjKQKY3ATdTzCCbdkSCrglA9r//+7+YPn264FJUmNlWrFgBHx8fIZrwbcw3IHU05e3u6uoqHi6Jn7oDiYS6BfUD6hRr164Vv1OkoR5E4qO4RvAQvCT8Pn36CD2N/1+6dElwFnILAsbd3V28gdknxacnn3xSgHvs2LFCf6FRhtyGXOLYsWOCc9FIQ65HIwZBOG3aNAEiiqFU/Emc5JjkcuRa5GDkIB4eHgKAmzZtEs+Ob/5169bh//7v/wTR29nZiXO8vLwEt+T9kePypcLzqcsRWIMGDRIclvdMXZZjfeKJJ4RxiRy+pq06kBEg5KYEDQG4ceNGMa+cPz6jZ599tkaQ8XzeD+f3+++/F9IE74PPoLVsjMfdfUWH/pvVcKxmsZOmuJcykAknXYoR3deqMO1w04DsX//1XwVhkxOw8c1NsYrEQ2KkmMHvFO34lidxkdNRvKExQzEmEHh805NDUAzjcWy0glHpprhIUz6J3t7eXnwngKln8Dg+eAKAXIhvXVrKaI0kyMjhCHByNr7ZyXGpU/E8EjAJKSsrC7GxsUK8Yx8k+vDwcHEcdS5yTRoY2AfFNxIgzyfI2rRpg8ogI4fnb7wer8V75z2/8847oh+OgSD/+eefxZjJWfmbos+Rg1E/ogW3oSDjfRFYlCBoceQ9csxs165dE79X1sk6dOgguCjPc3BwEFyWL8mXX35ZiO6cV957a9loUdx/XSf8ZfY+WuSorDP2MpBRJwtLN4PstwMaaMnaGrgp4iLftiRCmrCVRu5EXYacgWIeRadx48Zhzpw5os2ePVuIYJT/KUrywVFkeuutt4TSruggfJj8jwSvgIwiGkXAF198ET/++KNQypV+R40aJYhh6NChAiA8lp/5Jqdeoegpyi2TCDlWgmf06NFCrKRF7amnnkL3Hj1w89YtQZAnT54UIONYSagKkXGc1YGM90YxTbkm9xQt+SKiS4IiHTlEr169hB6miLjK2AhI9tFQkHGMHCv1PL7M+AKy5ECcjw8++OAeTkbL4j/+4z/if/7nfwQ35guEoiXdNBEREWI+lDG2hj2z/g8F60Q617rzMjJLG07zNd1vGcj4AmKp7F72akx00gg/QkNfSgrIaPig9YwEZ9n4QKlsU1f6t3/7N/HAHnnkESjt4YcfFuIQDQ0U6wgcchwSvUKYVYGM4CUgqE9QVFX64559Ukz74YcfEBoaKsQ9goyclOKh0i8ni2OmKEfxjaZvjpMcjDohOQgJ8+bNm00KsrNnzwpOr4CMIjWvR3GbupkCXo6vKUDGeaWISzGcYig5mLJVBzJyMorn27ZtE2PgC4bH8qWgvPyUPlrDnjqY+w2dWIth00UZ2dbmZATUnQIThu3RYPRuDWJyjRWWla3PpCkg40OhmFN54wMlEZEzkJPQmkh/k2Xjm5zERZGPhEaxhmKlAoaqQEZdiLoX9RgSArmlZZ/8TDGP+g6JrCqQsV+KS9S9+Dbfs3evACHFSxIjQSo4mZVBxrHSksf7oaiq3DfnkuJtYzkZpYDJkycLcZvO9LqAjNckd01LSxOgtwR+5WfcGr5TXHS5ZhYXWVqDDmprbOWcDEB2iQlzjskiUfNcbMODg2sDGQkmPCICI0aMEM5aKtvUTfjQ2Pg/uR0b9RUaIxSjAH9TjqEYxYeuiIs0T69Zs0ZYuqi3EEzsS+mX1+D5/K0mkFF0o55BrkKQ83i+qQlQiqGWIKPfiZyNx9LSplyPRFsfcdGSk1HvpPhFayNFaorcilWWeieNJxTd6iIuUmeji4T6MN0fPJ/zQW5NHZcvE5reOVfKvFJioBhYWScjyCyti9YgyObss1g2YZufFn3tVXC/rhOVr61x/TKQsfNiyYSt/jr02aCC0zUdtOUSRL2uXRvI2BlFDIpkNI3zbU3CpthGQiYnoWXvxo0bgrguXfIXYgoJjrodjyFXoR5EkZS/0/BBQNL6RmsZwcc3PiMVaERgXyR6cjcScU0gI8ck52Q0CTkKCZ6WOFo2qUMq4iIBxRcECY8GGPZPUZTgJwdvKMgIAIKbRhwaQ0jsNDTQAEQ3BPVTisN0c1Rn+CBgCEw6ken3evXVV0GHMeeZ+hhfNvv37xf3SeuuMv+8nylTpgjx+q8OMi6lvNZbxoCtalFinounWGOrADKurnIuUo+eG9VYfEIWK2E25KKMHKAf6M033xQPuqo+yBnoAKaPioYKcg6+bQkQvkVpbndxdRXnEzx8C3fq1EkcS58MQcD+eR71KopUJCxem294gpf6E/uhBYzEyu/U8xhvSHGJBhdaGAkiAkbZaCUkMbdt21aMhefTTE/ippOWeoziYKboRNcE3/K0gPIe2C+BRp2F1yQYuNGYsnnzZjEWOr2Va3KvWD9pPle4J8VlWkPZL3VKRtDwfqir0fXAPgiWqjbOBeeEBh8aKtgITI6P4+J5FIFp/ODY+fLgf7xH6l3klAQlX5gcH3VQziHFZc7fX2GLzzVi7mEJox01CGhEGGFtc1EBZDTjh2caMWKvBqMcNLiZWk54tXVk+T9BQRGEZnSKaNVt/I8OaR5H3xNFMepJJHCKe/yPYhcJhtZA6lkUMekApsWRpm1yPDqq+fbncSQIEgZ9NjyGx5MwqH9Q7CSx8O3PtzyjPSjukavyXGXjNQkSBsTyLU+xjeDkdejYpfhGMHPjPZB7rVy5UhAliZquB3ILjp+OaBoHuLFfclY6bdm/ck3uyVl5L+Ti9G3xNwKBbgo6xtknnezk5HzhEOz8zD6r2ng+OTY5FIGtNHJ3josvOZ5LLs9IFd4jG0HOc8g1OTd8MbAviuIcN+ecomVr3/i0LycaRMn5+UclxDbCBlHbXFQAGS9MFrrhgha91qrgfE3XLKUH+LApXpFwqTMQAJWtVQrRERA8hkDmb9VtBBuP4fEEneKTqukcy754HMHI89lquh6PVa6lHMvrN2Zjn9TxaCBiIzgp8pJ70dJJPZRgqev9VDeWyvfJe25sn9VdqyX9rtEDzoHmtK6dXOVVqkuSTMPuoALI2AXreVyM1qP/FjVmH5aQkNd8VX0adgt/zbMIUupTTDmhqEpLJ0VgujIoipOr/RU4yv14evQJc+mvBR6yWFqZdWyYY2at7R6QcQBJ+SYs8JQxeIsaB4NpdameY1hrYA96v+Qm1BsZHTN16lQhRlMUpQhMUZjcvLHc8kGdY/rHuJzyEAcN5h2VhX+4BqGo0dN0D8jYI/0HHAQXTZ/mpkFYhhGNCGVs9CAf1A4UkZeGEIKKoihF6er0sAd1nupz32QXSflGYdhjzCL9ZCyBaM2tSpCRmyUXmLDslIz+dmrs8NeJKj/WRLs1b9LWt20GlBlgNTYma/60XY2Z7pKZgVhRVOR1qwQZ/2Bcl1+cHmOdNBjhoMbJML3VnHXKBNj2thmw5gwoC6jMOSJh8DY1Dt7QgeXorb1VCzJyLYaZMEr5B4qN7hICkw1Wy7mx9o3a+rfNAP3A1+8YsOq0jF3+WrGACqU2a2/VgowX5gDuFBix/rwW/e3VoD+BNeuaeVEMa8+Brf8HZAZIz0zUTM43IrfUZFWLouWU1ggyHshQEzqoF3ua9TOma99ONy/CbtmR7bNtBmwzUPUM1Aoynkbf2Y07BhGC0t9OhT88ZASlGEGHXjNw26pHbvvVNgOtZAbqBDICib6FW6kGLDkho5+dGr+6STgVoRfxjTarYyt52lYcJt0KdDMwXIwFjxhozD2DuRnfqYRnVR4Cz2PIFuMhGYrG8LiqXBT8ja4MHsNjeQ7Dzyw3+hb5G/9XmhIHqkS2MPqH/3GsSviaZR/W+FwnkCkXpuLI5W1XeZtFx6E71XAM0AnntTU95sr1bfuWOQOMPCGoli9fLuJEGWjMRFcGezM7gRW/6FQngCw3hs4x0ZZpQoxXZVY8YzTphK+8ERSsz8JgbB7Lc1h7xTJAmnGkzENkmToew6x4xlsS4PyPoWkcI4OimeHAzI3K4XuVr9sU3+sFMl5QazAvSkGr48g9avTfZLY8kqtxBRiCzSZCNsWjafl9kDuQUzDplgmmzAz4r//6L7C2yz//8z+LPbPUmZnO0DACiucoG8HJDIWnn35aZK0z04DHMQjbEjw8R0nIZfkHZrjzWix7QK6k9Ekux7ooShY8sxZYzJWB0owt5TiZucH/WZeFAeIEn7W3eoOMA+I8FahNuBRvwJyjEr5dq8JAezUWHJdwJdEgaujTklM+nda+DVv/92MGKMIxvpLZEwQXS0mQg5FzMSuBIGAlK6bSMCWJqU0KIDheBkDz/3/4h3/A3/72N/zd3/2dqO7F9B6KdcrGcwhQZkT8+7//uzj2//2//ycASc5FoPAYpgsxO4F9sf3Lv/yL4KyMlCE3Y/4cixjxXKYMMTytxYKMN08AkaslFxjhGarDBFcNvl2vEsuFTnLTYP8NPSKyjEJnoz5nA51CMn+dPQmXWQFMCP37v/97kUDLSlbMU1NCwciBSPzkWASOAjKGjCn5diR6ApQ5bwQGswwo2inHVgUygogciWX6KIaS8zGdif38ZUCmkArBw1jHmBwjDt3SY5STGl1XqdBjtUp41WcekeBwTYebaUakFZmQpzKJDOwSrUmcx8gSW2udc5BfVIrde/eKxFQC5dFHHxVZ1awZopTYo3GBjalGlvoPQUFO9x//8R+CO7EuCzPcWQ2LnI/VvHget8ogI8fjceSAPIfGFjYmnhLsBCqPafWcTAGZsifYaOoniK4kGfDnGS2G7tag22oVOi8pxddLStFzvQqj9mow87CEBackrDyvxXofLTbYWqubg01+WrhdV2Gv+0khepG4CTSKc9SxaPQgZ2GxVhoYKuepUX9iCTyew4JLLEXBDAOKnf/93/8tSlLQKlkVyAhMZm8z05uNxhImm/Izgc66JQTgXw5kCti41xuAUhlIKTThfIwBm/20+PWghGG7NeizWS3Eym9WqwTH67pSBVtrfXPwzRoVprup4X0tUWRqs+IwgUYOwkYipwGEIh1rorCYj2X+G7OvaRAhR2LVMqWuC0tR/NM//ZNISiVHJPerzMlo+GCeHUsl0MCilE0g+KgfsrHfvzTILAGnfOZSNYWSSawWE55hQGCSAWej9TgVqcdJW2t1c+AVpUfgHQPy1UZhcmcVYopuXJuABK6AjfoRwcc6JdSzCBqCjeUm+Ds5Hzke/V4spMQS6zxXqY2iZKRbGj4IXBadZZ4dgapwUQKdZS9YRuGBBJkCNhpMaJ20tdY/B0aWIzcYhIWO5SMoFtJixxLkTDAlsMjNCDTumc1NYwmLEFEH4+8EA8v9sRgSCwSxgA9BRtM/a/6ztguNJJVBxrJ4rAbGTHFyTZ7DAkesWcJrP9AgU8Bm27f+GaBhgkRNMz6dxTSHk1PxcOx+mQAAAkpJREFUd9ZrYYEkAo2chqIbi/nQ6sjiQtSfCDLqZASJ0hSuxO8EIsVK9lsZZCz+Q1DTscwqz9TFaKKnub4uIGMpBxZEIqekK0JpinjalE+nQX6yphyAra/WOwMEDI0ONLmzUCpLr5PwyX1YZYu1IsmlyFWoR9HJTKsjfWMEE3+nJZE6Fcv80VhC4qfhhP/R8cxitbwO+1P8ZBQXCTK6BAhwck5GcNAxTStmXUBGvx19eSwqSxcDGwsWMYqEfSjug6Z4OjaQNcUsPqB9kPjpFyMYaBEkYCjysZYlxT9+p5hIgLFQKrkRK25Rd6J4x6gNhlvR0kjAsLEGJsOhHnroIeHzYl/U1VhDsjLIGMlBzkPLpXR3gXiKrbWBTBFTOWYClnodG7khI0EIXPbbVJsNZE01kw9gPzRgMFSJ68MROAQTdSla+bgnATMCg0TPqswEAOs+suozuRXXoGMUiOVG8Y11Jikqsk+Ga5HbkJMxkoQFbun85mKKBHnljTVQuHYCdTteh4tq0FnNfqnDMdKDL4WqGsfEytPkZjaQVZ5Z2/f7MgMkRIpoFBMprhEELDzLoGCa0RmoS05FINH5TN2KXIJiJEFC8YyGEMuNYhpFSpr8KYoyKJiOZupaPJ5+NzqqWVBWcVZbns9rsBQ7r8EFGlkAlpyOOheByggV9ltV45gIRFo6beKi5azaPt/XGSAxEmzkFDR+MIKeOhn3BAaBYEmwtBTyeDZ+tvxPuRGlT+U45RjLc5XflHMs95bHWV6jcr9K/5Z7Ht/U2/8HJHbsNwtm/moAAAAASUVORK5CYII=;" parent="7KC2XA-bAF72a5EF2EjA-1" vertex="1">
          <mxGeometry x="-1499.3100000000002" y="1622.5" width="318.61" height="185" as="geometry" />
        </mxCell>
        <mxCell id="vQTYE8nqGTHFnHXz65wk-0" value="&lt;b&gt;Virtual Private Gateway&lt;/b&gt;" style="outlineConnect=0;dashed=0;verticalLabelPosition=bottom;verticalAlign=top;align=center;html=1;shape=mxgraph.aws3.vpn_gateway;fillColor=#F58534;gradientColor=none;" vertex="1" parent="7KC2XA-bAF72a5EF2EjA-1">
          <mxGeometry x="-1160" y="1228" width="69" height="72" as="geometry" />
        </mxCell>
        <mxCell id="vQTYE8nqGTHFnHXz65wk-1" value="&lt;b&gt;CONEXÃO VPN&lt;/b&gt;" style="outlineConnect=0;dashed=0;verticalLabelPosition=bottom;verticalAlign=top;align=center;html=1;shape=mxgraph.aws3.vpn_connection;fillColor=#F58534;gradientColor=none;" vertex="1" parent="7KC2XA-bAF72a5EF2EjA-1">
          <mxGeometry x="-1301.75" y="1200" width="58.5" height="48" as="geometry" />
        </mxCell>
        <mxCell id="vQTYE8nqGTHFnHXz65wk-7" style="edgeStyle=orthogonalEdgeStyle;rounded=0;orthogonalLoop=1;jettySize=auto;html=1;entryX=0;entryY=0.27;entryDx=0;entryDy=0;entryPerimeter=0;strokeWidth=2;" edge="1" parent="7KC2XA-bAF72a5EF2EjA-1" source="7KC2XA-bAF72a5EF2EjA-167" target="7KC2XA-bAF72a5EF2EjA-81">
          <mxGeometry relative="1" as="geometry">
            <Array as="points">
              <mxPoint x="-1240" y="775" />
              <mxPoint x="-1240" y="1036" />
            </Array>
          </mxGeometry>
        </mxCell>
      </root>
    </mxGraphModel>
  </diagram>
</mxfile>
